<svg width="1896" height="720" viewBox="0 0 1896 720" fill="none" xmlns="http://www.w3.org/2000/svg">
<path d="M847.239 654.094H841.017C840.904 653.289 840.672 652.574 840.321 651.949C839.971 651.314 839.521 650.775 838.972 650.33C838.423 649.884 837.788 649.544 837.069 649.307C836.358 649.07 835.587 648.952 834.753 648.952C833.248 648.952 831.936 649.326 830.819 650.074C829.701 650.812 828.835 651.892 828.219 653.312C827.604 654.723 827.296 656.437 827.296 658.455C827.296 660.528 827.604 662.271 828.219 663.682C828.844 665.093 829.715 666.158 830.833 666.878C831.95 667.598 833.243 667.957 834.711 667.957C835.534 667.957 836.297 667.848 836.998 667.631C837.708 667.413 838.337 667.096 838.887 666.679C839.436 666.253 839.891 665.737 840.25 665.131C840.62 664.525 840.875 663.833 841.017 663.057L847.239 663.085C847.078 664.42 846.676 665.708 846.032 666.949C845.397 668.18 844.54 669.283 843.461 670.259C842.391 671.224 841.112 671.991 839.625 672.56C838.148 673.118 836.477 673.398 834.611 673.398C832.016 673.398 829.696 672.811 827.651 671.636C825.615 670.462 824.005 668.762 822.821 666.537C821.647 664.312 821.06 661.617 821.06 658.455C821.06 655.282 821.657 652.583 822.85 650.358C824.043 648.133 825.662 646.437 827.708 645.273C829.753 644.098 832.054 643.511 834.611 643.511C836.297 643.511 837.859 643.748 839.299 644.222C840.748 644.695 842.031 645.386 843.148 646.295C844.266 647.195 845.175 648.298 845.875 649.605C846.586 650.912 847.04 652.408 847.239 654.094ZM861.394 673.426C859.187 673.426 857.279 672.957 855.669 672.02C854.069 671.073 852.833 669.757 851.962 668.071C851.091 666.376 850.655 664.411 850.655 662.176C850.655 659.922 851.091 657.953 851.962 656.267C852.833 654.572 854.069 653.256 855.669 652.318C857.279 651.371 859.187 650.898 861.394 650.898C863.6 650.898 865.504 651.371 867.104 652.318C868.714 653.256 869.954 654.572 870.826 656.267C871.697 657.953 872.132 659.922 872.132 662.176C872.132 664.411 871.697 666.376 870.826 668.071C869.954 669.757 868.714 671.073 867.104 672.02C865.504 672.957 863.6 673.426 861.394 673.426ZM861.422 668.739C862.426 668.739 863.264 668.455 863.936 667.886C864.609 667.309 865.115 666.523 865.456 665.528C865.807 664.534 865.982 663.402 865.982 662.134C865.982 660.865 865.807 659.733 865.456 658.739C865.115 657.744 864.609 656.958 863.936 656.381C863.264 655.803 862.426 655.514 861.422 655.514C860.409 655.514 859.557 655.803 858.865 656.381C858.184 656.958 857.667 657.744 857.317 658.739C856.976 659.733 856.806 660.865 856.806 662.134C856.806 663.402 856.976 664.534 857.317 665.528C857.667 666.523 858.184 667.309 858.865 667.886C859.557 668.455 860.409 668.739 861.422 668.739ZM882.118 660.386V673H876.067V651.182H881.834V655.031H882.09C882.573 653.762 883.382 652.759 884.519 652.02C885.655 651.272 887.033 650.898 888.652 650.898C890.167 650.898 891.489 651.229 892.615 651.892C893.742 652.555 894.618 653.502 895.243 654.733C895.868 655.955 896.181 657.413 896.181 659.108V673H890.13V660.188C890.139 658.852 889.798 657.811 889.107 657.062C888.416 656.305 887.464 655.926 886.252 655.926C885.437 655.926 884.718 656.101 884.093 656.452C883.477 656.802 882.994 657.313 882.644 657.986C882.303 658.649 882.128 659.449 882.118 660.386ZM920.51 651.182L912.882 673H906.064L898.436 651.182H904.828L909.359 666.793H909.586L914.103 651.182H920.51ZM932.761 673.426C930.555 673.426 928.646 672.957 927.037 672.02C925.436 671.073 924.2 669.757 923.329 668.071C922.458 666.376 922.022 664.411 922.022 662.176C922.022 659.922 922.458 657.953 923.329 656.267C924.2 654.572 925.436 653.256 927.037 652.318C928.646 651.371 930.555 650.898 932.761 650.898C934.967 650.898 936.871 651.371 938.471 652.318C940.081 653.256 941.322 654.572 942.193 656.267C943.064 657.953 943.5 659.922 943.5 662.176C943.5 664.411 943.064 666.376 942.193 668.071C941.322 669.757 940.081 671.073 938.471 672.02C936.871 672.957 934.967 673.426 932.761 673.426ZM932.789 668.739C933.793 668.739 934.631 668.455 935.304 667.886C935.976 667.309 936.483 666.523 936.824 665.528C937.174 664.534 937.349 663.402 937.349 662.134C937.349 660.865 937.174 659.733 936.824 658.739C936.483 657.744 935.976 656.958 935.304 656.381C934.631 655.803 933.793 655.514 932.789 655.514C931.776 655.514 930.924 655.803 930.233 656.381C929.551 656.958 929.035 657.744 928.684 658.739C928.343 659.733 928.173 660.865 928.173 662.134C928.173 663.402 928.343 664.534 928.684 665.528C929.035 666.523 929.551 667.309 930.233 667.886C930.924 668.455 931.776 668.739 932.789 668.739ZM953.485 643.909V673H947.434V643.909H953.485ZM972.324 663.71V651.182H978.375V673H972.566V669.037H972.338C971.846 670.315 971.027 671.343 969.881 672.119C968.745 672.896 967.357 673.284 965.719 673.284C964.261 673.284 962.978 672.953 961.87 672.29C960.762 671.627 959.895 670.685 959.27 669.463C958.655 668.241 958.342 666.778 958.333 665.074V651.182H964.384V663.994C964.393 665.282 964.739 666.3 965.421 667.048C966.103 667.796 967.016 668.17 968.162 668.17C968.891 668.17 969.573 668.005 970.208 667.673C970.842 667.332 971.354 666.83 971.742 666.168C972.14 665.505 972.334 664.686 972.324 663.71ZM994.821 651.182V655.727H981.681V651.182H994.821ZM984.664 645.955H990.716V666.295C990.716 666.854 990.801 667.29 990.971 667.602C991.142 667.905 991.378 668.118 991.681 668.241C991.994 668.365 992.354 668.426 992.761 668.426C993.045 668.426 993.329 668.402 993.613 668.355C993.897 668.298 994.115 668.256 994.267 668.227L995.218 672.73C994.915 672.825 994.489 672.934 993.94 673.057C993.391 673.189 992.723 673.27 991.937 673.298C990.479 673.355 989.2 673.161 988.102 672.716C987.013 672.271 986.165 671.58 985.559 670.642C984.953 669.705 984.655 668.521 984.664 667.091V645.955ZM998.762 673V651.182H1004.81V673H998.762ZM1001.8 648.369C1000.9 648.369 1000.13 648.071 999.487 647.474C998.852 646.868 998.535 646.144 998.535 645.301C998.535 644.468 998.852 643.753 999.487 643.156C1000.13 642.55 1000.9 642.247 1001.8 642.247C1002.7 642.247 1003.47 642.55 1004.1 643.156C1004.75 643.753 1005.07 644.468 1005.07 645.301C1005.07 646.144 1004.75 646.868 1004.1 647.474C1003.47 648.071 1002.7 648.369 1001.8 648.369ZM1019.52 673.426C1017.31 673.426 1015.4 672.957 1013.79 672.02C1012.19 671.073 1010.96 669.757 1010.09 668.071C1009.22 666.376 1008.78 664.411 1008.78 662.176C1008.78 659.922 1009.22 657.953 1010.09 656.267C1010.96 654.572 1012.19 653.256 1013.79 652.318C1015.4 651.371 1017.31 650.898 1019.52 650.898C1021.73 650.898 1023.63 651.371 1025.23 652.318C1026.84 653.256 1028.08 654.572 1028.95 656.267C1029.82 657.953 1030.26 659.922 1030.26 662.176C1030.26 664.411 1029.82 666.376 1028.95 668.071C1028.08 669.757 1026.84 671.073 1025.23 672.02C1023.63 672.957 1021.73 673.426 1019.52 673.426ZM1019.55 668.739C1020.55 668.739 1021.39 668.455 1022.06 667.886C1022.73 667.309 1023.24 666.523 1023.58 665.528C1023.93 664.534 1024.11 663.402 1024.11 662.134C1024.11 660.865 1023.93 659.733 1023.58 658.739C1023.24 657.744 1022.73 656.958 1022.06 656.381C1021.39 655.803 1020.55 655.514 1019.55 655.514C1018.53 655.514 1017.68 655.803 1016.99 656.381C1016.31 656.958 1015.79 657.744 1015.44 658.739C1015.1 659.733 1014.93 660.865 1014.93 662.134C1014.93 663.402 1015.1 664.534 1015.44 665.528C1015.79 666.523 1016.31 667.309 1016.99 667.886C1017.68 668.455 1018.53 668.739 1019.55 668.739ZM1040.24 660.386V673H1034.19V651.182H1039.96V655.031H1040.21C1040.7 653.762 1041.51 652.759 1042.64 652.02C1043.78 651.272 1045.16 650.898 1046.78 650.898C1048.29 650.898 1049.61 651.229 1050.74 651.892C1051.87 652.555 1052.74 653.502 1053.37 654.733C1053.99 655.955 1054.31 657.413 1054.31 659.108V673H1048.25V660.188C1048.26 658.852 1047.92 657.811 1047.23 657.062C1046.54 656.305 1045.59 655.926 1044.38 655.926C1043.56 655.926 1042.84 656.101 1042.22 656.452C1041.6 656.802 1041.12 657.313 1040.77 657.986C1040.43 658.649 1040.25 659.449 1040.24 660.386ZM1065.3 673.412C1063.9 673.412 1062.66 673.17 1061.57 672.688C1060.49 672.195 1059.62 671.471 1058.99 670.514C1058.36 669.548 1058.05 668.346 1058.05 666.906C1058.05 665.694 1058.27 664.676 1058.72 663.852C1059.16 663.028 1059.77 662.366 1060.54 661.864C1061.31 661.362 1062.18 660.983 1063.15 660.727C1064.14 660.472 1065.17 660.292 1066.25 660.188C1067.52 660.055 1068.54 659.932 1069.32 659.818C1070.09 659.695 1070.66 659.515 1071.01 659.278C1071.36 659.042 1071.53 658.691 1071.53 658.227V658.142C1071.53 657.242 1071.25 656.546 1070.68 656.054C1070.12 655.562 1069.33 655.315 1068.29 655.315C1067.2 655.315 1066.34 655.557 1065.69 656.04C1065.05 656.513 1064.62 657.11 1064.42 657.83L1058.82 657.375C1059.1 656.049 1059.66 654.903 1060.5 653.938C1061.33 652.962 1062.4 652.214 1063.72 651.693C1065.05 651.163 1066.58 650.898 1068.32 650.898C1069.53 650.898 1070.69 651.04 1071.8 651.324C1072.92 651.608 1073.91 652.048 1074.77 652.645C1075.64 653.241 1076.33 654.009 1076.83 654.946C1077.33 655.874 1077.58 656.987 1077.58 658.284V673H1071.84V669.974H1071.67C1071.32 670.656 1070.86 671.258 1070.27 671.778C1069.68 672.29 1068.98 672.692 1068.15 672.986C1067.33 673.27 1066.38 673.412 1065.3 673.412ZM1067.03 669.236C1067.92 669.236 1068.71 669.061 1069.39 668.71C1070.07 668.35 1070.6 667.867 1070.99 667.261C1071.38 666.655 1071.57 665.969 1071.57 665.202V662.886C1071.39 663.009 1071.13 663.123 1070.79 663.227C1070.47 663.322 1070.11 663.412 1069.7 663.497C1069.29 663.573 1068.89 663.644 1068.48 663.71C1068.07 663.767 1067.7 663.819 1067.37 663.866C1066.66 663.971 1066.04 664.136 1065.51 664.364C1064.98 664.591 1064.57 664.899 1064.27 665.287C1063.98 665.666 1063.83 666.139 1063.83 666.707C1063.83 667.531 1064.13 668.161 1064.73 668.597C1065.33 669.023 1066.1 669.236 1067.03 669.236ZM1088.33 643.909V673H1082.28V643.909H1088.33ZM1102.55 673V643.909H1108.7V656.736H1109.08L1119.55 643.909H1126.92L1116.13 656.935L1127.05 673H1119.69L1111.72 661.04L1108.7 664.733V673H1102.55ZM1138.35 673.426C1136.11 673.426 1134.18 672.972 1132.56 672.062C1130.95 671.144 1129.71 669.847 1128.84 668.17C1127.97 666.485 1127.53 664.491 1127.53 662.19C1127.53 659.946 1127.97 657.976 1128.84 656.281C1129.71 654.586 1130.93 653.265 1132.52 652.318C1134.11 651.371 1135.97 650.898 1138.11 650.898C1139.55 650.898 1140.89 651.13 1142.13 651.594C1143.38 652.048 1144.47 652.735 1145.4 653.653C1146.34 654.572 1147.07 655.727 1147.59 657.119C1148.11 658.502 1148.37 660.121 1148.37 661.977V663.639H1129.94V659.889H1142.67C1142.67 659.018 1142.48 658.246 1142.1 657.574C1141.73 656.902 1141.2 656.376 1140.53 655.997C1139.86 655.609 1139.09 655.415 1138.21 655.415C1137.29 655.415 1136.48 655.628 1135.77 656.054C1135.07 656.471 1134.52 657.034 1134.12 657.744C1133.72 658.445 1133.52 659.226 1133.51 660.088V663.653C1133.51 664.733 1133.71 665.666 1134.11 666.452C1134.51 667.238 1135.09 667.844 1135.83 668.27C1136.56 668.696 1137.44 668.909 1138.45 668.909C1139.13 668.909 1139.74 668.814 1140.3 668.625C1140.86 668.436 1141.34 668.152 1141.73 667.773C1142.13 667.394 1142.44 666.93 1142.64 666.381L1148.24 666.75C1147.96 668.095 1147.37 669.269 1146.49 670.273C1145.62 671.267 1144.5 672.044 1143.11 672.602C1141.74 673.152 1140.15 673.426 1138.35 673.426ZM1152.32 673V651.182H1158.18V654.989H1158.41C1158.81 653.634 1159.48 652.612 1160.41 651.92C1161.35 651.22 1162.43 650.869 1163.65 650.869C1163.96 650.869 1164.28 650.888 1164.63 650.926C1164.98 650.964 1165.29 651.016 1165.56 651.082V656.452C1165.27 656.366 1164.88 656.291 1164.38 656.224C1163.87 656.158 1163.42 656.125 1163 656.125C1162.11 656.125 1161.31 656.319 1160.61 656.707C1159.92 657.086 1159.37 657.616 1158.96 658.298C1158.57 658.98 1158.37 659.766 1158.37 660.656V673H1152.32ZM1174.74 660.386V673H1168.68V651.182H1174.45V655.031H1174.71C1175.19 653.762 1176 652.759 1177.14 652.02C1178.27 651.272 1179.65 650.898 1181.27 650.898C1182.78 650.898 1184.11 651.229 1185.23 651.892C1186.36 652.555 1187.24 653.502 1187.86 654.733C1188.49 655.955 1188.8 657.413 1188.8 659.108V673H1182.75V660.188C1182.76 658.852 1182.42 657.811 1181.72 657.062C1181.03 656.305 1180.08 655.926 1178.87 655.926C1178.05 655.926 1177.33 656.101 1176.71 656.452C1176.09 656.802 1175.61 657.313 1175.26 657.986C1174.92 658.649 1174.74 659.449 1174.74 660.386ZM1203.51 673.426C1201.27 673.426 1199.33 672.972 1197.71 672.062C1196.1 671.144 1194.86 669.847 1193.99 668.17C1193.12 666.485 1192.69 664.491 1192.69 662.19C1192.69 659.946 1193.12 657.976 1193.99 656.281C1194.86 654.586 1196.09 653.265 1197.67 652.318C1199.26 651.371 1201.13 650.898 1203.27 650.898C1204.71 650.898 1206.05 651.13 1207.29 651.594C1208.54 652.048 1209.63 652.735 1210.56 653.653C1211.49 654.572 1212.22 655.727 1212.74 657.119C1213.26 658.502 1213.52 660.121 1213.52 661.977V663.639H1195.1V659.889H1207.83C1207.83 659.018 1207.64 658.246 1207.26 657.574C1206.88 656.902 1206.36 656.376 1205.68 655.997C1205.02 655.609 1204.25 655.415 1203.37 655.415C1202.45 655.415 1201.64 655.628 1200.93 656.054C1200.22 656.471 1199.68 657.034 1199.28 657.744C1198.88 658.445 1198.68 659.226 1198.67 660.088V663.653C1198.67 664.733 1198.87 665.666 1199.26 666.452C1199.67 667.238 1200.24 667.844 1200.98 668.27C1201.72 668.696 1202.6 668.909 1203.61 668.909C1204.28 668.909 1204.9 668.814 1205.46 668.625C1206.02 668.436 1206.49 668.152 1206.89 667.773C1207.29 667.394 1207.59 666.93 1207.8 666.381L1213.4 666.75C1213.11 668.095 1212.53 669.269 1211.65 670.273C1210.78 671.267 1209.65 672.044 1208.27 672.602C1206.9 673.152 1205.31 673.426 1203.51 673.426ZM1223.52 643.909V673H1217.47V643.909H1223.52Z" fill="black"/>
<path d="M1312.44 352.795V340.693H1359.52V352.795H1312.44ZM1312.44 375.432V363.33H1359.52V375.432H1312.44Z" fill="black"/>
<rect x="2.5" y="0.5" width="719" height="719" fill="white" stroke="black"/>
<line x1="2" y1="239.5" x2="722" y2="239.5" stroke="black"/>
<line x1="247.5" y1="2.18557e-08" x2="247.5" y2="720" stroke="black"/>
<line x1="473.5" y1="2.18557e-08" x2="473.5" y2="720" stroke="black"/>
<line y1="479.5" x2="721" y2="479.5" stroke="black"/>
<path d="M103.976 150V145.33L126.783 119.693C129.76 116.33 132.158 113.455 133.976 111.068C135.794 108.682 137.112 106.477 137.93 104.455C138.771 102.432 139.192 100.33 139.192 98.1477C139.192 95.4886 138.567 93.1705 137.317 91.1932C136.089 89.1932 134.396 87.6364 132.237 86.5227C130.078 85.4091 127.646 84.8523 124.942 84.8523C122.078 84.8523 119.567 85.4659 117.408 86.6932C115.271 87.9205 113.612 89.6023 112.43 91.7386C111.249 93.875 110.658 96.3295 110.658 99.1023H104.555C104.555 95.2386 105.442 91.8182 107.214 88.8409C109.01 85.8409 111.453 83.4886 114.544 81.7841C117.658 80.0795 121.18 79.2273 125.112 79.2273C128.999 79.2273 132.453 80.0682 135.476 81.75C138.499 83.4091 140.874 85.6705 142.601 88.5341C144.328 91.3977 145.192 94.6023 145.192 98.1477C145.192 100.716 144.737 103.205 143.828 105.614C142.942 108.023 141.408 110.705 139.226 113.659C137.044 116.614 134.021 120.227 130.158 124.5L112.839 143.83V144.273H147.374V150H103.976Z" fill="black"/>
<path d="M125.756 395.955C121.46 395.955 117.619 395.182 114.233 393.636C110.847 392.068 108.165 389.898 106.188 387.125C104.21 384.352 103.165 381.159 103.051 377.545H109.494C109.608 380.091 110.392 382.318 111.847 384.227C113.301 386.114 115.233 387.591 117.642 388.659C120.051 389.705 122.733 390.227 125.688 390.227C128.915 390.227 131.756 389.625 134.21 388.42C136.688 387.216 138.619 385.568 140.006 383.477C141.415 381.364 142.119 378.977 142.119 376.318C142.119 373.5 141.403 371.011 139.972 368.852C138.54 366.693 136.483 365.011 133.801 363.807C131.142 362.602 127.96 362 124.256 362H120.165V356.273H124.256C127.278 356.273 129.949 355.727 132.267 354.636C134.608 353.523 136.449 351.966 137.79 349.966C139.131 347.966 139.801 345.614 139.801 342.909C139.801 340.341 139.222 338.08 138.062 336.125C136.903 334.17 135.267 332.636 133.153 331.523C131.063 330.409 128.619 329.852 125.824 329.852C123.119 329.852 120.642 330.375 118.392 331.42C116.142 332.466 114.324 333.943 112.938 335.852C111.574 337.761 110.847 340.023 110.756 342.636H104.585C104.676 339 105.676 335.807 107.585 333.057C109.517 330.284 112.074 328.125 115.256 326.58C118.46 325.011 122.006 324.227 125.892 324.227C130.006 324.227 133.562 325.068 136.562 326.75C139.562 328.432 141.881 330.67 143.517 333.466C145.176 336.239 146.006 339.295 146.006 342.636C146.006 346.614 144.926 350.023 142.767 352.864C140.608 355.682 137.699 357.636 134.04 358.727V359.17C138.494 360.057 141.994 362.034 144.54 365.102C147.108 368.148 148.392 371.886 148.392 376.318C148.392 380.045 147.415 383.398 145.46 386.375C143.506 389.33 140.824 391.67 137.415 393.398C134.028 395.102 130.142 395.955 125.756 395.955Z" fill="black"/>
<path d="M101.555 620V614.818L132.68 565.182H136.499V573.875H133.669L108.68 613.83V614.273H149.487V620H101.555ZM134.146 635V618.364V615.977V565.182H140.214V635H134.146Z" fill="black"/>
<path d="M344.237 150L376.044 86.3523V85.9091H339.396V80.1818H382.726V86.1818L350.953 150H344.237Z" fill="black"/>
<path d="M360.599 395.955C356.713 395.955 353.236 395.17 350.168 393.602C347.122 392.011 344.69 389.83 342.872 387.057C341.077 384.284 340.122 381.114 340.009 377.545H346.179C346.384 381.25 347.838 384.295 350.543 386.682C353.247 389.045 356.599 390.227 360.599 390.227C363.713 390.227 366.486 389.489 368.918 388.011C371.349 386.511 373.247 384.466 374.611 381.875C375.997 379.261 376.69 376.318 376.69 373.045C376.668 369.636 375.929 366.636 374.474 364.045C373.02 361.432 371.043 359.386 368.543 357.909C366.065 356.432 363.281 355.693 360.19 355.693C357.849 355.67 355.554 356.057 353.304 356.852C351.054 357.648 349.179 358.67 347.679 359.92L341.304 359.102L345.497 325.182H379.997V330.909H350.849L348.054 354.261H348.395C349.94 352.966 351.815 351.909 354.02 351.091C356.247 350.273 358.599 349.864 361.077 349.864C365.19 349.864 368.884 350.852 372.156 352.83C375.452 354.807 378.054 357.534 379.963 361.011C381.895 364.466 382.861 368.443 382.861 372.943C382.861 377.352 381.895 381.295 379.963 384.773C378.054 388.227 375.418 390.955 372.054 392.955C368.713 394.955 364.895 395.955 360.599 395.955Z" fill="black"/>
<path d="M339.976 635V630.33L362.783 604.693C365.76 601.33 368.158 598.455 369.976 596.068C371.794 593.682 373.112 591.477 373.93 589.455C374.771 587.432 375.192 585.33 375.192 583.148C375.192 580.489 374.567 578.17 373.317 576.193C372.089 574.193 370.396 572.636 368.237 571.523C366.078 570.409 363.646 569.852 360.942 569.852C358.078 569.852 355.567 570.466 353.408 571.693C351.271 572.92 349.612 574.602 348.43 576.739C347.249 578.875 346.658 581.33 346.658 584.102H340.555C340.555 580.239 341.442 576.818 343.214 573.841C345.01 570.841 347.453 568.489 350.544 566.784C353.658 565.08 357.18 564.227 361.112 564.227C364.999 564.227 368.453 565.068 371.476 566.75C374.499 568.409 376.874 570.67 378.601 573.534C380.328 576.398 381.192 579.602 381.192 583.148C381.192 585.716 380.737 588.205 379.828 590.614C378.942 593.023 377.408 595.705 375.226 598.659C373.044 601.614 370.021 605.227 366.158 609.5L348.839 628.83V629.273H383.374V635H339.976Z" fill="black"/>
<path d="M602.443 80.1818V150H596.068V86.8636H595.659L579.295 97.7386V91.125L595.795 80.1818H602.443Z" fill="black"/>
<path d="M594.517 395.955C589.608 395.955 585.415 394.545 581.938 391.727C578.483 388.886 575.824 384.784 573.96 379.42C572.119 374.057 571.199 367.614 571.199 360.091C571.199 352.591 572.119 346.17 573.96 340.83C575.824 335.466 578.494 331.364 581.972 328.523C585.472 325.659 589.653 324.227 594.517 324.227C599.381 324.227 603.551 325.659 607.028 328.523C610.528 331.364 613.199 335.466 615.04 340.83C616.903 346.17 617.835 352.591 617.835 360.091C617.835 367.614 616.903 374.057 615.04 379.42C613.199 384.784 610.54 388.886 607.062 391.727C603.608 394.545 599.426 395.955 594.517 395.955ZM594.517 390.227C599.903 390.227 604.108 387.602 607.131 382.352C610.153 377.08 611.665 369.659 611.665 360.091C611.665 353.727 610.972 348.295 609.585 343.795C608.222 339.273 606.256 335.818 603.688 333.432C601.142 331.045 598.085 329.852 594.517 329.852C589.176 329.852 584.983 332.511 581.938 337.83C578.892 343.125 577.369 350.545 577.369 360.091C577.369 366.455 578.051 371.886 579.415 376.386C580.801 380.886 582.767 384.318 585.312 386.682C587.881 389.045 590.949 390.227 594.517 390.227Z" fill="black"/>
<path d="M594.756 635.955C590.46 635.955 586.619 635.182 583.233 633.636C579.847 632.068 577.165 629.898 575.188 627.125C573.21 624.352 572.165 621.159 572.051 617.545H578.494C578.608 620.091 579.392 622.318 580.847 624.227C582.301 626.114 584.233 627.591 586.642 628.659C589.051 629.705 591.733 630.227 594.688 630.227C597.915 630.227 600.756 629.625 603.21 628.42C605.688 627.216 607.619 625.568 609.006 623.477C610.415 621.364 611.119 618.977 611.119 616.318C611.119 613.5 610.403 611.011 608.972 608.852C607.54 606.693 605.483 605.011 602.801 603.807C600.142 602.602 596.96 602 593.256 602H589.165V596.273H593.256C596.278 596.273 598.949 595.727 601.267 594.636C603.608 593.523 605.449 591.966 606.79 589.966C608.131 587.966 608.801 585.614 608.801 582.909C608.801 580.341 608.222 578.08 607.062 576.125C605.903 574.17 604.267 572.636 602.153 571.523C600.063 570.409 597.619 569.852 594.824 569.852C592.119 569.852 589.642 570.375 587.392 571.42C585.142 572.466 583.324 573.943 581.938 575.852C580.574 577.761 579.847 580.023 579.756 582.636H573.585C573.676 579 574.676 575.807 576.585 573.057C578.517 570.284 581.074 568.125 584.256 566.58C587.46 565.011 591.006 564.227 594.892 564.227C599.006 564.227 602.562 565.068 605.562 566.75C608.562 568.432 610.881 570.67 612.517 573.466C614.176 576.239 615.006 579.295 615.006 582.636C615.006 586.614 613.926 590.023 611.767 592.864C609.608 595.682 606.699 597.636 603.04 598.727V599.17C607.494 600.057 610.994 602.034 613.54 605.102C616.108 608.148 617.392 611.886 617.392 616.318C617.392 620.045 616.415 623.398 614.46 626.375C612.506 629.33 609.824 631.67 606.415 633.398C603.028 635.102 599.142 635.955 594.756 635.955Z" fill="black"/>
<rect x="776.5" y="119.5" width="472" height="481" fill="white" stroke="black"/>
<rect x="776.5" y="119.5" width="472" height="481" fill="white" stroke="black"/>
<line x1="776" y1="360.5" x2="1249" y2="360.5" stroke="black"/>
<line x1="1023.5" y1="119" x2="1023.5" y2="601" stroke="black"/>
<path d="M901.017 270.955C896.108 270.955 891.915 269.545 888.438 266.727C884.983 263.886 882.324 259.784 880.46 254.42C878.619 249.057 877.699 242.614 877.699 235.091C877.699 227.591 878.619 221.17 880.46 215.83C882.324 210.466 884.994 206.364 888.472 203.523C891.972 200.659 896.153 199.227 901.017 199.227C905.881 199.227 910.051 200.659 913.528 203.523C917.028 206.364 919.699 210.466 921.54 215.83C923.403 221.17 924.335 227.591 924.335 235.091C924.335 242.614 923.403 249.057 921.54 254.42C919.699 259.784 917.04 263.886 913.562 266.727C910.108 269.545 905.926 270.955 901.017 270.955ZM901.017 265.227C906.403 265.227 910.608 262.602 913.631 257.352C916.653 252.08 918.165 244.659 918.165 235.091C918.165 228.727 917.472 223.295 916.085 218.795C914.722 214.273 912.756 210.818 910.188 208.432C907.642 206.045 904.585 204.852 901.017 204.852C895.676 204.852 891.483 207.511 888.438 212.83C885.392 218.125 883.869 225.545 883.869 235.091C883.869 241.455 884.551 246.886 885.915 251.386C887.301 255.886 889.267 259.318 891.812 261.682C894.381 264.045 897.449 265.227 901.017 265.227Z" fill="black"/>
<path d="M901.017 515.955C896.108 515.955 891.915 514.545 888.438 511.727C884.983 508.886 882.324 504.784 880.46 499.42C878.619 494.057 877.699 487.614 877.699 480.091C877.699 472.591 878.619 466.17 880.46 460.83C882.324 455.466 884.994 451.364 888.472 448.523C891.972 445.659 896.153 444.227 901.017 444.227C905.881 444.227 910.051 445.659 913.528 448.523C917.028 451.364 919.699 455.466 921.54 460.83C923.403 466.17 924.335 472.591 924.335 480.091C924.335 487.614 923.403 494.057 921.54 499.42C919.699 504.784 917.04 508.886 913.562 511.727C910.108 514.545 905.926 515.955 901.017 515.955ZM901.017 510.227C906.403 510.227 910.608 507.602 913.631 502.352C916.653 497.08 918.165 489.659 918.165 480.091C918.165 473.727 917.472 468.295 916.085 463.795C914.722 459.273 912.756 455.818 910.188 453.432C907.642 451.045 904.585 449.852 901.017 449.852C895.676 449.852 891.483 452.511 888.438 457.83C885.392 463.125 883.869 470.545 883.869 480.091C883.869 486.455 884.551 491.886 885.915 496.386C887.301 500.886 889.267 504.318 891.812 506.682C894.381 509.045 897.449 510.227 901.017 510.227Z" fill="black"/>
<path d="M1138.52 270.955C1133.61 270.955 1129.41 269.545 1125.94 266.727C1122.48 263.886 1119.82 259.784 1117.96 254.42C1116.12 249.057 1115.2 242.614 1115.2 235.091C1115.2 227.591 1116.12 221.17 1117.96 215.83C1119.82 210.466 1122.49 206.364 1125.97 203.523C1129.47 200.659 1133.65 199.227 1138.52 199.227C1143.38 199.227 1147.55 200.659 1151.03 203.523C1154.53 206.364 1157.2 210.466 1159.04 215.83C1160.9 221.17 1161.84 227.591 1161.84 235.091C1161.84 242.614 1160.9 249.057 1159.04 254.42C1157.2 259.784 1154.54 263.886 1151.06 266.727C1147.61 269.545 1143.43 270.955 1138.52 270.955ZM1138.52 265.227C1143.9 265.227 1148.11 262.602 1151.13 257.352C1154.15 252.08 1155.66 244.659 1155.66 235.091C1155.66 228.727 1154.97 223.295 1153.59 218.795C1152.22 214.273 1150.26 210.818 1147.69 208.432C1145.14 206.045 1142.09 204.852 1138.52 204.852C1133.18 204.852 1128.98 207.511 1125.94 212.83C1122.89 218.125 1121.37 225.545 1121.37 235.091C1121.37 241.455 1122.05 246.886 1123.41 251.386C1124.8 255.886 1126.77 259.318 1129.31 261.682C1131.88 264.045 1134.95 265.227 1138.52 265.227Z" fill="black"/>
<path d="M1138.02 515.955C1133.11 515.955 1128.91 514.545 1125.44 511.727C1121.98 508.886 1119.32 504.784 1117.46 499.42C1115.62 494.057 1114.7 487.614 1114.7 480.091C1114.7 472.591 1115.62 466.17 1117.46 460.83C1119.32 455.466 1121.99 451.364 1125.47 448.523C1128.97 445.659 1133.15 444.227 1138.02 444.227C1142.88 444.227 1147.05 445.659 1150.53 448.523C1154.03 451.364 1156.7 455.466 1158.54 460.83C1160.4 466.17 1161.34 472.591 1161.34 480.091C1161.34 487.614 1160.4 494.057 1158.54 499.42C1156.7 504.784 1154.04 508.886 1150.56 511.727C1147.11 514.545 1142.93 515.955 1138.02 515.955ZM1138.02 510.227C1143.4 510.227 1147.61 507.602 1150.63 502.352C1153.65 497.08 1155.16 489.659 1155.16 480.091C1155.16 473.727 1154.47 468.295 1153.09 463.795C1151.72 459.273 1149.76 455.818 1147.19 453.432C1144.64 451.045 1141.59 449.852 1138.02 449.852C1132.68 449.852 1128.48 452.511 1125.44 457.83C1122.39 463.125 1120.87 470.545 1120.87 480.091C1120.87 486.455 1121.55 491.886 1122.91 496.386C1124.3 500.886 1126.27 504.318 1128.81 506.682C1131.38 509.045 1134.45 510.227 1138.02 510.227Z" fill="black"/>
<rect x="1423.5" y="119.5" width="472" height="481" fill="white" stroke="black"/>
<line x1="1423" y1="360.5" x2="1896" y2="360.5" stroke="black"/>
<line x1="1670.5" y1="119" x2="1670.5" y2="601" stroke="black"/>
<path d="M1548.02 270.955C1543.11 270.955 1538.91 269.545 1535.44 266.727C1531.98 263.886 1529.32 259.784 1527.46 254.42C1525.62 249.057 1524.7 242.614 1524.7 235.091C1524.7 227.591 1525.62 221.17 1527.46 215.83C1529.32 210.466 1531.99 206.364 1535.47 203.523C1538.97 200.659 1543.15 199.227 1548.02 199.227C1552.88 199.227 1557.05 200.659 1560.53 203.523C1564.03 206.364 1566.7 210.466 1568.54 215.83C1570.4 221.17 1571.34 227.591 1571.34 235.091C1571.34 242.614 1570.4 249.057 1568.54 254.42C1566.7 259.784 1564.04 263.886 1560.56 266.727C1557.11 269.545 1552.93 270.955 1548.02 270.955ZM1548.02 265.227C1553.4 265.227 1557.61 262.602 1560.63 257.352C1563.65 252.08 1565.16 244.659 1565.16 235.091C1565.16 228.727 1564.47 223.295 1563.09 218.795C1561.72 214.273 1559.76 210.818 1557.19 208.432C1554.64 206.045 1551.59 204.852 1548.02 204.852C1542.68 204.852 1538.48 207.511 1535.44 212.83C1532.39 218.125 1530.87 225.545 1530.87 235.091C1530.87 241.455 1531.55 246.886 1532.91 251.386C1534.3 255.886 1536.27 259.318 1538.81 261.682C1541.38 264.045 1544.45 265.227 1548.02 265.227Z" fill="black"/>
<path d="M1548.02 515.955C1543.11 515.955 1538.91 514.545 1535.44 511.727C1531.98 508.886 1529.32 504.784 1527.46 499.42C1525.62 494.057 1524.7 487.614 1524.7 480.091C1524.7 472.591 1525.62 466.17 1527.46 460.83C1529.32 455.466 1531.99 451.364 1535.47 448.523C1538.97 445.659 1543.15 444.227 1548.02 444.227C1552.88 444.227 1557.05 445.659 1560.53 448.523C1564.03 451.364 1566.7 455.466 1568.54 460.83C1570.4 466.17 1571.34 472.591 1571.34 480.091C1571.34 487.614 1570.4 494.057 1568.54 499.42C1566.7 504.784 1564.04 508.886 1560.56 511.727C1557.11 514.545 1552.93 515.955 1548.02 515.955ZM1548.02 510.227C1553.4 510.227 1557.61 507.602 1560.63 502.352C1563.65 497.08 1565.16 489.659 1565.16 480.091C1565.16 473.727 1564.47 468.295 1563.09 463.795C1561.72 459.273 1559.76 455.818 1557.19 453.432C1554.64 451.045 1551.59 449.852 1548.02 449.852C1542.68 449.852 1538.48 452.511 1535.44 457.83C1532.39 463.125 1530.87 470.545 1530.87 480.091C1530.87 486.455 1531.55 491.886 1532.91 496.386C1534.3 500.886 1536.27 504.318 1538.81 506.682C1541.38 509.045 1544.45 510.227 1548.02 510.227Z" fill="black"/>
<path d="M1785.52 270.955C1780.61 270.955 1776.41 269.545 1772.94 266.727C1769.48 263.886 1766.82 259.784 1764.96 254.42C1763.12 249.057 1762.2 242.614 1762.2 235.091C1762.2 227.591 1763.12 221.17 1764.96 215.83C1766.82 210.466 1769.49 206.364 1772.97 203.523C1776.47 200.659 1780.65 199.227 1785.52 199.227C1790.38 199.227 1794.55 200.659 1798.03 203.523C1801.53 206.364 1804.2 210.466 1806.04 215.83C1807.9 221.17 1808.84 227.591 1808.84 235.091C1808.84 242.614 1807.9 249.057 1806.04 254.42C1804.2 259.784 1801.54 263.886 1798.06 266.727C1794.61 269.545 1790.43 270.955 1785.52 270.955ZM1785.52 265.227C1790.9 265.227 1795.11 262.602 1798.13 257.352C1801.15 252.08 1802.66 244.659 1802.66 235.091C1802.66 228.727 1801.97 223.295 1800.59 218.795C1799.22 214.273 1797.26 210.818 1794.69 208.432C1792.14 206.045 1789.09 204.852 1785.52 204.852C1780.18 204.852 1775.98 207.511 1772.94 212.83C1769.89 218.125 1768.37 225.545 1768.37 235.091C1768.37 241.455 1769.05 246.886 1770.41 251.386C1771.8 255.886 1773.77 259.318 1776.31 261.682C1778.88 264.045 1781.95 265.227 1785.52 265.227Z" fill="black"/>
<path d="M1785.02 515.955C1780.11 515.955 1775.91 514.545 1772.44 511.727C1768.98 508.886 1766.32 504.784 1764.46 499.42C1762.62 494.057 1761.7 487.614 1761.7 480.091C1761.7 472.591 1762.62 466.17 1764.46 460.83C1766.32 455.466 1768.99 451.364 1772.47 448.523C1775.97 445.659 1780.15 444.227 1785.02 444.227C1789.88 444.227 1794.05 445.659 1797.53 448.523C1801.03 451.364 1803.7 455.466 1805.54 460.83C1807.4 466.17 1808.34 472.591 1808.34 480.091C1808.34 487.614 1807.4 494.057 1805.54 499.42C1803.7 504.784 1801.04 508.886 1797.56 511.727C1794.11 514.545 1789.93 515.955 1785.02 515.955ZM1785.02 510.227C1790.4 510.227 1794.61 507.602 1797.63 502.352C1800.65 497.08 1802.16 489.659 1802.16 480.091C1802.16 473.727 1801.47 468.295 1800.09 463.795C1798.72 459.273 1796.76 455.818 1794.19 453.432C1791.64 451.045 1788.59 449.852 1785.02 449.852C1779.68 449.852 1775.48 452.511 1772.44 457.83C1769.39 463.125 1767.87 470.545 1767.87 480.091C1767.87 486.455 1768.55 491.886 1769.91 496.386C1771.3 500.886 1773.27 504.318 1775.81 506.682C1778.38 509.045 1781.45 510.227 1785.02 510.227Z" fill="black"/>
</svg>
