<svg xmlns="http://www.w3.org/2000/svg" direction="ltr" width="1558.3305838107233" height="195.1439235440213" viewBox="233.42017192767935 222.14795037568055 1558.3305838107233 195.1439235440213" stroke-linecap="round" stroke-linejoin="round" style="background-color: rgb(249, 250, 251);" encoding="UTF-8&quot;"><defs><g>
					<pattern id="hash_pattern" width="8" height="8" patternUnits="userSpaceOnUse" strokelinecap="round" stroke="white">
						<line x1="0.6666666666666666" y1="2" x2="2" y2="0.6666666666666666"/>
						<line x1="3.333333333333333" y1="4.666666666666666" x2="4.666666666666666" y2="3.333333333333333"/>
						<line x1="6" y1="7.333333333333333" x2="7.333333333333333" y2="6"/>
					</pattern>
					<mask id="hash_mask">
						<rect x="-100%" y="-100%" width="200%" height="200%" fill="url(#hash_pattern)"/>
					</mask>
				</g><style/></defs><path d="M0.9801,2.8159 Q0.0628,3.7345 -0.6094,6.0141 T-1.1761,10.2645 0.3131,14.3493 4.3072,16.4251 7.8518,14.4998 8.5189,10.7165 6.6415,8.3524 3.8077,8.2001 2.1673,8.5433 1.3465,8.4636 0.594,8.126 -0.0112,7.5657 -0.4059,6.8416 -0.5487,6.0293 -0.4246,5.2139 -0.0467,4.4809 0.5456,3.9069 1.2901,3.552 2.1089,3.4535 2.9163,3.6216 3.6278,4.0387 4.1689,4.6611 4.4828,5.4238 4.5369,6.2467 4.3253,7.0439 3.8702,7.7317 3.2194,8.2382 2.4408,8.5104 1.6162,8.5198 0.8317,8.2653 0.1695,7.7736 -0.301,7.0963 -0.5306,6.3042 -0.4953,5.4802 -0.1987,4.7106 0.3282,4.0761 1.03,3.6429 1.4161,3.484 3.5678,3.0159 7.9484,3.2865 11.6745,5.3165 13.7496,9.1184 13.7541,14.104 12.2494,18.0948 9.8724,20.5406 6.4874,21.9486 2.4822,22.1513 -0.9834,20.9539 -3.6563,18.4781 -5.6742,15.2287 -6.4565,10.0929 -5.9467,4.963 -4.6233,1.6612 -2.8721,-0.9239 -1.4621,-2.1882 -0.5134,-2.5811 0.5135,-2.5811 1.4622,-2.1881 2.1882,-1.462 2.5811,-0.5132 2.5811,0.5136 2.188,1.4623 1.8972,1.8974 0.9801,2.8159 Z" fill="#1d1d1d" stroke-linecap="round" transform="matrix(1, 0, 0, 1, 274.4202, 289.2919)" opacity="1"/><path d="M2.6744,1.4218 Q2.7075,2.8436 2.4853,4.52 T1.8078,8.7017 0.9954,12.4572 0.4563,14.1101 -0.0268,14.8363 -0.7164,15.3702 -1.5405,15.656 -2.4126,15.6637 -3.2416,15.3925 -3.9405,14.8708 -4.4363,14.1532 -4.677,13.3149 -4.6374,12.4436 -4.3217,11.6306 -3.7629,10.961 -3.0195,10.5048 -2.1694,10.3099 -1.3015,10.3966 -0.5068,10.7559 0.1316,11.3502 0.5468,12.1172 0.6954,12.9766 0.5617,13.8385 0.1599,14.6126 -0.4681,15.2179 -1.2565,15.5909 -2.1227,15.6927 -2.9761,15.5125 -3.7273,15.0693 -4.2976,14.4094 -4.6274,13.602 -4.6821,12.7315 -4.6381,12.2922 -4.0812,10.1199 -3.1158,5.3898 -2.6744,1.4162 -2.5408,-0.5054 -2.154,-1.4393 -1.4392,-2.154 -0.5053,-2.5408 0.5055,-2.5408 1.4394,-2.1539 2.1541,-1.4391 2.5409,-0.5052 2.6413,0.0001 2.6744,1.4218 Z" fill="#1d1d1d" stroke-linecap="round" transform="matrix(1, 0, 0, 1, 279.4202, 308.2919)" opacity="1"/><path d="M1.2368,-3.1668 Q2.8919,-3.4049 4.6318,-3.7542 T8.416,-4.3158 13.7713,-5.0426 19.4226,-5.7091 24.349,-5.9306 27.4158,-5.9319 28.3302,-5.6456 29.1054,-5.0824 29.6601,-4.3011 29.9363,-3.3836 29.905,-2.4259 29.5697,-1.5284 28.9652,-0.7849 28.155,-0.2733 27.2239,-0.0473 26.2693,-0.1303 25.3913,-0.5139 24.6816,-1.1577 24.2147,-1.9944 24.0395,-2.9364 24.1741,-3.8851 24.6047,-4.7411 25.286,-5.4148 26.1468,-5.8357 27.097,-5.9596 28.0369,-5.7737 28.8683,-5.2974 29.5041,-4.5806 29.8777,-3.6982 29.95,-2.7428 29.7135,-1.8143 29.1928,-1.0099 28.4426,-0.4139 27.5413,-0.0887 27.0644,0.0001 25.7261,0.0227 22.3248,0.1088 17.5084,0.4181 12.9037,1.0201 9.2885,1.5446 5.6271,2.0859 2.0742,2.6938 -0.1579,2.8973 -1.2547,2.6163 -2.1604,1.937 -2.7372,0.9627 -2.8973,-0.1581 -2.6163,-1.2548 -1.9369,-2.1605 -0.9626,-2.7373 -0.4182,-2.9288 1.2368,-3.1668 Z" fill="#1d1d1d" stroke-linecap="round" transform="matrix(1, 0, 0, 1, 265.4202, 325.2919)" opacity="1"/><path d="M3.0961,1.419 Q3.108,2.838 2.8121,5.0445 T4.1103,6.9933 7.9621,6.7914 11.6304,6.8738 13.5349,6.988 14.4687,7.3164 15.2487,7.9259 15.7932,8.7525 16.0453,9.7097 15.9786,10.6973 15.6,11.6119 14.9492,12.3578 14.0943,12.8567 13.1248,13.0566 12.1423,12.9364 11.2496,12.5088 10.5401,11.8186 10.0882,10.9379 9.9411,9.959 10.1143,8.9844 10.5897,8.1162 11.3174,7.4451 12.2213,7.0416 13.2067,6.9478 14.1705,7.1736 15.0117,7.6953 15.6423,8.4583 15.9962,9.3827 16.0365,10.3718 15.7588,11.3219 15.1923,12.1336 14.3962,12.7219 13.454,13.0253 12.9585,13.0997 10.2554,13.0796 5.2007,12.9531 0.8802,12.2342 -2.4134,9.5188 -3.4228,5.127 -3.0961,1.419 -2.9669,-0.5902 -2.5152,-1.6806 -1.6805,-2.5153 -0.59,-2.9669 0.5903,-2.9668 1.6808,-2.5151 2.5153,-1.6804 2.9669,-0.5899 3.0843,0.0002 3.0961,1.419 Z" fill="#1d1d1d" stroke-linecap="round" transform="matrix(1, 0, 0, 1, 302.4202, 285.2919)" opacity="1"/><path d="M1.8911,-2.8312 Q3.7822,-2.8362 5.8094,-3.069 T10.4883,-3.4373 15.226,-3.6417 19.4591,-3.9624 23.8252,-4.3178 28.4333,-4.5408 31.2519,-4.6188 32.0749,-4.4013 32.7854,-3.9323 33.309,-3.2611 33.5908,-2.4578 33.6013,-1.6065 33.3395,-0.7965 32.8327,-0.1125 32.1341,0.3739 31.3167,0.6118 30.4662,0.5762 29.6715,0.2708 29.0159,-0.2722 28.5681,-0.9962 28.3749,-1.8253 28.4565,-2.6727 28.8045,-3.4496 29.3823,-4.0748 30.1295,-4.4827 30.9678,-4.6307 31.8095,-4.5033 32.5664,-4.1137 33.1594,-3.5029 33.5262,-2.7347 33.6286,-1.8896 33.4557,-1.056 33.0257,-0.3213 32.3837,0.2377 31.5967,0.5623 31.177,0.6601 28.7935,0.8592 24.3444,1.2403 19.8874,1.7129 15.4562,2.0658 10.9333,2.242 6.1178,2.596 1.8929,2.8312 -0.5408,2.7187 -1.5401,2.3048 -2.3049,1.54 -2.7188,0.5407 -2.7187,-0.5409 -2.3047,-1.5402 -1.5399,-2.305 -0.5405,-2.7188 0.0001,-2.8263 1.8911,-2.8312 Z" fill="#1d1d1d" stroke-linecap="round" transform="matrix(1, 0, 0, 1, 298.4202, 306.2919)" opacity="1"/><path d="M1.3072,-2.6666 Q2.9568,-2.9373 5.4872,-3.2951 T9.8436,-3.2678 12.8521,-1.4034 13.9672,2.0647 13.662,4.8451 13.259,6.0071 12.8192,6.6757 12.1888,7.1689 11.4341,7.435 10.6338,7.4461 9.8719,7.2011 9.2281,6.7257 8.7699,6.0696 8.5451,5.3015 8.5773,4.5018 8.8632,3.7543 9.3729,3.1372 10.0529,2.7152 10.832,2.5324 11.6288,2.6079 12.3597,2.9339 12.9482,3.4762 13.3328,4.1781 13.4731,4.966 13.3545,5.7575 12.9894,6.4696 12.416,7.0279 11.6943,7.3739 10.8999,7.4713 10.1161,7.31 9.4247,6.9068 8.8983,6.304 8.592,5.5646 8.5377,4.7662 8.576,4.3629 8.1722,2.9052 5.7168,1.7192 2.0038,2.1936 -0.1292,2.3702 -1.0264,2.1403 -1.7674,1.5846 -2.2393,0.7876 -2.3702,-0.1293 -2.1403,-1.0266 -1.5845,-1.7675 -0.7875,-2.2393 -0.3422,-2.3959 1.3072,-2.6666 Z" fill="#1d1d1d" stroke-linecap="round" transform="matrix(1, 0, 0, 1, 307.4202, 316.2919)" opacity="1"/><path d="M0.946,-2.9051 Q1.892,-2.8591 2.446,-2.8471 T3.3393,-2.7939 3.998,-2.6315 4.5988,-2.3162 5.1067,-1.8663 5.4921,-1.3078 5.7327,-0.6734 5.8144,0.0001 5.7326,0.6737 5.492,1.3081 5.1065,1.8665 4.5986,2.3164 3.9978,2.6316 3.339,2.7939 5.4731,3.0489 9.6472,2.8001 13.0076,1.3555 15.1214,0.2294 16.0521,0.0939 16.9773,0.2627 17.8002,0.7181 18.4346,1.4123 18.8141,2.2729 18.899,3.2095 18.6803,4.1242 18.181,4.9212 17.4534,5.5171 16.5736,5.8494 15.6337,5.8834 14.7322,5.6155 13.9634,5.0737 13.4079,4.3148 13.1237,3.4183 13.1407,2.478 13.4571,1.5923 14.0397,0.854 14.8276,0.3404 15.7382,0.1053 16.6762,0.1732 17.5434,0.5371 18.2491,1.1589 18.7192,1.9734 18.9047,2.8954 18.786,3.8284 18.3756,4.6746 17.7166,5.3455 17.3324,5.6268 15.7421,6.3925 12.3121,7.6958 7.9416,8.6514 2.8143,8.8194 -1.3827,6.8411 -3.3365,3.5355 -2.4744,0.0021 0.8704,-2.3944 3.3393,-2.7939 3.998,-2.6315 4.5988,-2.3162 5.1067,-1.8663 5.4921,-1.3078 5.7327,-0.6734 5.8144,0.0001 5.7326,0.6737 5.492,1.3081 5.1065,1.8665 4.5986,2.3164 3.9978,2.6316 3.339,2.7939 2.4459,2.8471 0.946,2.9051 -0.5647,2.8387 -1.6081,2.4065 -2.4066,1.6079 -2.8387,0.5645 -2.8387,-0.5648 -2.4064,-1.6082 -1.6078,-2.4067 -0.5644,-2.8388 0.0001,-2.951 0.946,-2.9051 Z" fill="#1d1d1d" stroke-linecap="round" transform="matrix(1, 0, 0, 1, 312.4202, 324.2919)" opacity="1"/><path d="M2.8199,1.6555 Q2.8449,3.311 2.8768,5.7139 T3.1322,10.0128 4.8412,10.9242 8.4569,8.7845 11.0027,7.4657 11.8641,7.28 12.7398,7.379 13.538,7.7524 14.1751,8.3612 14.5846,9.1415 14.7234,10.0117 14.5771,10.8807 14.161,11.6575 13.5186,12.2608 12.7172,12.6273 11.8407,12.7188 10.9809,12.5256 10.2278,12.068 9.6603,11.3938 9.3377,10.5738 9.2939,9.6936 9.5334,8.8456 10.0311,8.1184 10.735,7.5882 11.5714,7.3105 12.4526,7.3144 13.2864,7.5995 13.9856,8.136 14.4768,8.8676 14.7088,9.7177 14.6571,10.5974 14.3272,11.4146 13.7537,12.0837 13.4124,12.371 12.2673,13.1156 8.9018,15.0228 4.9969,16.4957 1.4509,16.3395 -1.6426,13.7512 -2.8919,9.8732 -2.8768,5.7139 -2.8199,1.6555 -2.6885,-0.5348 -2.2792,-1.523 -1.5229,-2.2793 -0.5347,-2.6886 0.5349,-2.6885 1.5231,-2.2791 2.2794,-1.5227 2.6886,-0.5345 2.7949,0.0001 2.8199,1.6555 Z" fill="#1d1d1d" stroke-linecap="round" transform="matrix(1, 0, 0, 1, 387.4202, 284.2919)" opacity="1"/><path d="M2.5377,2.1285 Q2.5724,4.257 2.5786,6.0882 T2.5429,9.594 2.4625,13.1343 2.3604,15.387 2.1133,16.1204 1.6449,16.7366 1.0043,17.1709 0.2585,17.3779 -0.5143,17.336 -1.2333,17.0495 -1.8232,16.5484 -2.2221,15.8852 -2.3884,15.1293 -2.3047,14.3598 -1.9796,13.6574 -1.4473,13.0956 -0.7634,12.7332 0.0004,12.6081 0.7641,12.7334 1.4479,13.096 1.98,13.658 2.3049,14.3605 2.3884,15.13 2.2219,15.8858 1.8227,16.5489 1.2327,17.0498 0.5136,17.3361 -0.2592,17.3778 -1.0049,17.1706 -1.6454,16.7361 -2.1136,16.1198 -2.3605,15.3863 -2.4239,14.9996 -2.4625,13.1343 -2.5429,9.594 -2.5786,6.0882 -2.5377,2.1285 -2.4077,-0.4789 -2.0411,-1.3639 -1.3638,-2.0412 -0.4788,-2.4077 0.4791,-2.4077 1.364,-2.0411 2.0413,-1.3637 2.4078,-0.4787 2.503,0.0001 2.5377,2.1285 Z" fill="#1d1d1d" stroke-linecap="round" transform="matrix(1, 0, 0, 1, 401.4202, 284.2919)" opacity="1"/><path d="M1.7156,-2.874 Q4.0935,-3.5408 6.7385,-4.2978 T9.7277,-5.0995 10.4124,-5.0765 11.0539,-4.8361 11.585,-4.4035 11.9502,-3.8239 12.1112,-3.1581 12.0511,-2.4757 11.7763,-1.8482 11.3155,-1.3413 10.717,-1.0081 10.0434,-0.8834 9.3653,-0.9803 8.7536,-1.2887 8.2724,-1.7763 7.9721,-2.392 7.8841,-3.0713 8.0177,-3.7432 8.3588,-4.3373 8.8717,-4.7913 9.5028,-5.0578 10.1859,-5.1089 10.8495,-4.9391 11.4243,-4.5664 11.8499,-4.0296 12.0818,-3.385 12.0957,-2.7001 11.8903,-2.0466 11.4869,-1.493 10.9278,-1.0971 10.6161,-0.9451 7.9915,-0.1212 3.0144,1.455 0.2146,2.25 -0.6628,2.1608 -1.4392,1.7427 -1.9966,1.0592 -2.25,0.2145 -2.1608,-0.6629 -1.7426,-1.4393 -1.0591,-1.9966 -0.6621,-2.2073 1.7156,-2.874 Z" fill="#1d1d1d" stroke-linecap="round" transform="matrix(1, 0, 0, 1, 401.4202, 294.2919)" opacity="1"/><path d="M-0.2333,4.2595 Q-2.2597,7.1742 -4.0882,9.4611 T-7.3477,13.7131 -10.4308,17.993 -12.342,20.5795 -12.9332,21.0262 -13.636,21.2608 -14.3769,21.2587 -15.0784,21.0201 -15.667,20.57 -16.081,19.9555 -16.2772,19.241 -16.2349,18.5012 -15.9587,17.8137 -15.4773,17.2504 -14.8413,16.8702 -14.1172,16.7131 -13.3808,16.7954 -12.7093,17.1085 -12.1729,17.6197 -11.8278,18.2753 -11.7101,19.0069 -11.8322,19.7377 -12.1812,20.3913 -12.7207,20.8992 -13.3941,21.2083 -14.131,21.2862 -14.8541,21.1247 -15.4878,20.7407 -15.9658,20.1745 -16.2379,19.4853 -16.2757,18.7453 -16.0752,18.032 -15.9167,17.6921 -14.3647,15.3095 -11.3673,10.6756 -8.0882,6.3012 -4.0237,1.4165 -1.4675,-1.6368 -0.7294,-2.0738 0.1197,-2.1951 0.9506,-1.9822 1.6368,-1.4675 2.0738,-0.7293 2.1951,0.1198 1.9821,0.9507 1.7931,1.3449 -0.2333,4.2595 Z" fill="#1d1d1d" stroke-linecap="round" transform="matrix(1, 0, 0, 1, 425.4202, 295.2919)" opacity="1"/><path d="M2.5127,-1.4779 Q3.9295,-0.7639 5.5084,0.0307 T7.4061,1.0559 7.9532,1.6066 8.2959,2.3033 8.3982,3.0728 8.2494,3.8348 7.8651,4.5093 7.2855,5.0259 6.5713,5.3303 5.7973,5.3907 5.0445,5.2008 4.3918,4.7805 3.9074,4.1738 3.6422,3.4442 3.6238,2.6681 3.8542,1.9267 4.3092,1.2977 4.9413,0.8469 5.6842,0.6216 6.4602,0.6453 7.188,0.9155 7.7914,1.404 8.2073,2.0595 8.392,2.8136 8.3263,3.5872 8.0171,4.2992 7.4966,4.8753 6.8195,5.255 6.0565,5.3986 5.2876,5.2911 4.9124,5.1745 3.3296,4.3883 0.3253,2.8969 -1.4736,1.8987 -2.0881,1.1902 -2.3846,0.3005 -2.3181,-0.6349 -1.8986,-1.4737 -1.1901,-2.0881 -0.3004,-2.3846 0.635,-2.3181 1.096,-2.1918 2.5127,-1.4779 Z" fill="#1d1d1d" stroke-linecap="round" transform="matrix(1, 0, 0, 1, 417.4202, 305.2919)" opacity="1"/><path d="M0.4778,3.3146 Q-0.9146,5.2266 -2.428,7.1275 T-5.6103,11.1596 -7.5302,13.5317 -8.0962,13.9208 -8.7569,14.1088 -9.443,14.0761 -10.0827,13.826 -10.6091,13.3847 -10.967,12.7984 -11.1189,12.1285 -11.049,11.4452 -10.7646,10.8199 -10.2954,10.3183 -9.6906,9.9927 -9.0135,9.8772 -8.335,9.984 -7.7261,10.3019 -7.2505,10.7976 -6.9582,11.4192 -6.8796,12.1016 -7.023,12.7733 -7.3735,13.3641 -7.8942,13.8121 -8.5307,14.0703 -9.2163,14.1118 -9.8793,13.9321 -10.4502,13.5502 -10.8693,13.006 -11.0927,12.3564 -11.0969,11.6696 -10.8817,11.0173 -10.7207,10.709 -9.1423,8.5106 -6.1626,4.3266 -3.3158,0.4694 -1.5307,-1.7072 -0.7608,-2.163 0.1249,-2.2895 0.9915,-2.0674 1.7072,-1.5306 2.163,-0.7607 2.2895,0.125 2.0674,0.9916 1.8702,1.4028 0.4778,3.3146 Z" fill="#1d1d1d" stroke-linecap="round" transform="matrix(1, 0, 0, 1, 432.4202, 300.2919)" opacity="1"/><path d="M1.8318,-2.242 Q3.255,-2.0327 6.2338,-1.7596 T9.6041,-1.3875 10.3348,-1.0696 10.9258,-0.535 11.3151,0.1602 11.4621,0.9434 11.3512,1.7326 10.9942,2.445 10.4284,3.0061 9.7131,3.3572 8.9231,3.4615 8.1411,3.3081 7.4491,2.913 6.9194,2.3176 6.6076,1.5843 6.5463,0.7898 6.7419,0.0173 7.1739,-0.6523 7.7971,-1.1489 8.5462,-1.4205 9.3429,-1.4387 10.1036,-1.2016 10.7489,-0.7339 11.211,-0.0847 11.4416,0.6781 11.4166,1.4745 11.1385,2.2213 10.6366,2.8402 9.9633,3.2665 9.1892,3.4554 8.787,3.4865 5.6042,3.2326 1.0062,2.715 -0.8621,2.2799 -1.6689,1.7764 -2.2217,1.0025 -2.4362,0.0759 -2.2798,-0.8622 -1.7763,-1.669 -1.0024,-2.2218 -0.0758,-2.4362 0.4087,-2.4513 1.8318,-2.242 Z" fill="#1d1d1d" stroke-linecap="round" transform="matrix(1, 0, 0, 1, 426.4202, 309.2919)" opacity="1"/><path d="M3.761,0.7497 Q4.4727,2.6429 5.1467,5.5004 T6.1662,10.5845 6.9211,15.3277 7.5594,19.9753 8.0294,24.3819 8.2396,27.1885 8.0098,28.2131 7.4649,29.1107 6.6619,29.7873 5.6849,30.172 4.6362,30.2247 3.6256,29.9397 2.7589,29.3469 2.1268,28.5084 1.7955,27.512 1.7998,26.462 2.1391,25.4683 2.778,24.635 3.6495,24.0493 4.6624,23.7725 5.7106,23.8337 6.6845,24.2263 7.482,24.9094 8.0196,25.8114 8.2411,26.8378 8.1232,27.8812 7.6783,28.8323 6.953,29.5916 6.0233,30.0796 4.9863,30.2451 3.9509,30.0708 3.0252,29.5751 2.3064,28.8097 1.8695,27.8549 1.7294,27.3421 1.4938,25.0665 1.059,20.8363 0.4573,16.3395 -0.2432,11.8086 -1.0879,7.3728 -2.342,3.0343 -3.1521,0.5165 -3.1098,-0.7291 -2.594,-1.8637 -1.6833,-2.7145 -0.5163,-3.1521 0.7293,-3.1097 1.8638,-2.5939 2.7146,-1.6832 3.0494,-1.1433 3.761,0.7497 Z" fill="#1d1d1d" stroke-linecap="round" transform="matrix(1, 0, 0, 1, 441.4202, 293.2919)" opacity="1"/><path d="M2.4784,-2.9127 Q4.6064,-2.673 6.37,-2.549 T9.7626,-2.3549 13.7213,-1.8178 17.1327,1.3415 17.2297,5.742 15.131,8.985 12.2573,12.9791 8.1801,17.2751 5.4767,19.3537 4.6478,19.702 3.7511,19.7674 2.8805,19.5431 2.127,19.0525 1.5697,18.347 1.2668,17.5004 1.2501,16.6015 1.5213,15.7443 2.052,15.0186 2.7867,14.5003 3.6484,14.2437 4.5469,14.2758 5.3882,14.593 6.0841,15.1623 6.5618,15.924 6.7713,16.7983 6.6906,17.6938 6.3282,18.5166 5.7221,19.1806 4.9356,19.6163 4.0512,19.7781 3.1615,19.649 2.3595,19.2426 1.7293,18.6014 1.3368,17.7925 1.2232,16.9006 1.4003,16.0191 1.8496,15.2404 2.1378,14.8881 3.8347,13.1837 7.2166,9.1248 10.0234,5.3813 9.4254,3.9308 5.8064,3.7443 1.7786,3.3857 -0.9402,2.9655 -2.0035,2.3799 -2.7617,1.432 -3.0995,0.2661 -2.9654,-0.9403 -2.3798,-2.0036 -1.4319,-2.7618 -0.266,-3.0995 0.3504,-3.1525 2.4784,-2.9127 Z" fill="#1d1d1d" stroke-linecap="round" transform="matrix(1, 0, 0, 1, 495.4202, 277.2919)" opacity="1"/><path d="M1.8019,-2.0546 Q3.2253,-1.8378 5.5893,-1.3035 T10.526,0.5984 13.3947,2.1947 13.8981,2.7345 14.2029,3.4069 14.2769,4.1413 14.1126,4.861 13.7271,5.4905 13.1608,5.9639 12.4729,6.2318 11.7355,6.2659 11.0258,6.0629 10.4181,5.6438 9.9761,5.0526 9.7459,4.3513 9.7517,3.6131 9.993,2.9155 10.4443,2.3314 11.0586,1.922 11.7714,1.7302 12.5082,1.776 13.1917,2.0547 13.7505,2.537 14.126,3.1726 14.2789,3.8947 14.1932,4.6279 13.8779,5.2954 13.3659,5.8272 12.711,6.1677 11.9816,6.2812 11.2541,6.156 10.901,6.0338 8.9864,4.9775 4.7611,3.3524 1.0361,2.5276 -0.7988,2.1125 -1.5464,1.646 -2.0586,0.9289 -2.2573,0.0704 -2.1124,-0.7989 -1.6459,-1.5465 -0.9288,-2.0586 -0.0702,-2.2573 0.3787,-2.2713 1.8019,-2.0546 Z" fill="#1d1d1d" stroke-linecap="round" transform="matrix(1, 0, 0, 1, 507.4202, 285.2919)" opacity="1"/><path d="M3.1385,1.6446 Q4.1146,4.1542 4.1943,4.5139 T4.2346,5.24 4.041,5.941 3.6337,6.5434 3.0553,6.9843 2.3665,7.2174 1.6392,7.2183 0.9498,6.987 0.3703,6.5476 -0.0386,5.9462 -0.234,5.2458 -0.1955,4.5196 0.0728,3.8437 0.5429,3.2888 1.1656,2.9131 1.8757,2.756 2.5987,2.8337 3.2591,3.1383 3.7876,3.6378 4.129,4.2799 4.2475,4.9974 4.1306,5.7152 3.7907,6.3581 3.2633,6.8588 2.6036,7.1649 1.8808,7.2443 1.1704,7.0887 0.5468,6.7145 0.0755,6.1607 -0.1147,5.8455 -1.1385,3.3554 -2.2455,0.4183 -2.2347,-0.4729 -1.8836,-1.2921 -1.2457,-1.9146 -0.4181,-2.2456 0.4731,-2.2346 1.2922,-1.8835 1.9147,-1.2456 2.1624,-0.8648 3.1385,1.6446 Z" fill="#1d1d1d" stroke-linecap="round" transform="matrix(1, 0, 0, 1, 508.4202, 296.2919)" opacity="1"/><path d="M1.6332,-2.3061 Q3.5208,-2.5769 5.3965,-2.9564 T9.7326,-3.7322 14.9192,-4.5786 17.9787,-5.0323 18.6288,-4.9327 19.213,-4.6308 19.6702,-4.1581 19.9526,-3.5641 20.0305,-2.9111 19.8958,-2.2674 19.5626,-1.7004 19.0659,-1.2695 18.4575,-1.0197 17.8012,-0.9773 17.1657,-1.1467 16.6176,-1.5101 16.2142,-2.0295 15.9978,-2.6505 15.991,-3.3081 16.1946,-3.9335 16.5872,-4.4611 17.1277,-4.8357 17.7595,-5.0182 18.4165,-4.9893 19.0299,-4.7522 19.5355,-4.3316 19.8803,-3.7716 20.0282,-3.1308 19.9638,-2.4763 19.6938,-1.8766 19.2464,-1.3946 18.6685,-1.0807 18.3542,-0.9711 15.637,-0.4703 10.4938,0.488 6.0576,1.2881 2.1508,1.8331 -0.1447,2.0065 -0.9016,1.7983 -1.5211,1.3164 -1.9091,0.6341 -2.0065,-0.1448 -1.7983,-0.9017 -1.3163,-1.5212 -0.634,-1.9092 -0.2543,-2.0353 1.6332,-2.3061 Z" fill="#1d1d1d" stroke-linecap="round" transform="matrix(1, 0, 0, 1, 500.4202, 307.2919)" opacity="1"/><path d="M2.7473,0.6609 Q3.2054,2.0849 3.7184,3.6705 T4.2917,5.6319 4.2892,6.383 4.0471,7.0939 3.5906,7.6903 2.9676,8.1097 2.2433,8.3082 1.4935,8.2651 0.7968,7.9848 0.226,7.4967 -0.159,6.8519 -0.318,6.1179 -0.2343,5.3715 0.0833,4.691 0.6016,4.1475 1.2664,3.798 2.0079,3.679 2.7486,3.803 3.4109,4.1571 3.9256,4.7041 4.2386,5.3868 4.3172,6.1337 4.1532,6.8666 3.7638,7.5087 3.1897,7.993 2.491,8.2685 1.741,8.3065 1.018,8.1031 0.3979,7.6794 -0.0545,7.0799 -0.2314,6.7434 -0.7724,5.1675 -1.8013,2.1771 -2.3481,0.296 -2.2827,-0.6252 -1.8696,-1.4511 -1.172,-2.0562 -0.2959,-2.3481 0.6253,-2.2826 1.4512,-1.8696 2.0562,-1.1719 2.2893,-0.763 2.7473,0.6609 Z" fill="#1d1d1d" stroke-linecap="round" transform="matrix(1, 0, 0, 1, 512.4202, 307.2919)" opacity="1"/><path d="M1.419,-2.4945 Q2.838,-2.5061 5.419,-2.4736 T8.3897,-2.3772 9.1284,-2.1283 9.7489,-1.6566 10.1863,-1.0114 10.3948,-0.2603 10.3526,0.518 10.064,1.2421 9.5594,1.8361 8.8914,2.2379 8.1302,2.4054 7.3553,2.3211 6.6479,1.9937 6.0821,1.4576 5.717,0.7689 5.5911,-0.0004 5.7173,-0.7695 6.0825,-1.4582 6.6485,-1.9941 7.356,-2.3213 8.1309,-2.4054 8.8921,-2.2377 9.5599,-1.8357 10.0644,-1.2415 10.3527,-0.5173 10.3948,0.2611 10.186,1.0121 9.7484,1.6571 9.1278,2.1287 8.389,2.3773 7.9996,2.4411 5.419,2.4736 1.419,2.4945 -0.4751,2.3885 -1.353,2.0248 -2.0249,1.3529 -2.3885,0.475 -2.3884,-0.4752 -2.0248,-1.3531 -1.3528,-2.025 -0.4749,-2.3885 0.0001,-2.483 1.419,-2.4945 Z" fill="#1d1d1d" stroke-linecap="round" transform="matrix(1, 0, 0, 1, 506.4202, 315.2919)" opacity="1"/><path d="M2.2744,2.3646 Q1.7934,3.9418 3.4552,3.7416 T3.4737,2.112 0.4115,0.0714 -1.3739,-0.7651 -2.0156,-1.3208 -2.4462,-2.0523 -2.6208,-2.883 -2.521,-3.726 -2.1572,-4.493 -1.5675,-5.1036 -0.8138,-5.494 0.0252,-5.6233 0.8615,-5.4779 1.6077,-5.0731 2.1855,-4.4512 2.5344,-3.6774 2.6181,-2.8327 2.4276,-2.0054 1.9829,-1.2824 1.3307,-0.7391 0.5391,-0.4326 -0.309,-0.3949 -1.1246,-0.6299 -1.8226,-1.1131 -2.3297,-1.7938 -2.5929,-2.6009 -2.5846,-3.4497 -2.3057,-4.2514 -1.7854,-4.9221 -1.0782,-5.3916 -0.258,-5.6107 0.5891,-5.5564 1.0078,-5.46 3.2828,-4.5585 7.1944,-1.7009 9.481,2.1561 9.5152,5.746 7.4861,8.4627 4.208,9.9056 0.6084,9.723 -2.1785,7.6556 -3.4581,4.433 -3.2204,0.9464 -2.4999,-1.2846 -1.818,-2.1435 -0.8593,-2.6761 0.2302,-2.8012 1.2847,-2.4999 2.1436,-1.8179 2.6761,-0.8592 2.8012,0.2303 2.7554,0.7874 2.2744,2.3646 Z" fill="#1d1d1d" stroke-linecap="round" transform="matrix(1, 0, 0, 1, 512.4202, 320.2919)" opacity="1"/><path d="M1.3015,-2.836 Q3.1941,-3.3081 6.401,-3.8103 T9.9874,-4.3146 10.7271,-4.1975 11.3907,-3.8503 11.9087,-3.3093 12.2269,-2.6313 12.3119,-1.8872 12.1548,-1.1549 11.7722,-0.5111 11.204,-0.0231 10.5097,0.2578 9.7621,0.3024 9.0394,0.1059 8.4172,-0.3111 7.9608,-0.9049 7.7179,-1.6134 7.7139,-2.3623 7.9493,-3.0733 8.3994,-3.672 9.017,-4.0956 9.7376,-4.2997 10.4857,-4.2631 11.1829,-3.9896 11.7563,-3.5077 12.1457,-2.868 12.3106,-2.1374 12.2335,-1.3924 11.9225,-0.711 11.4103,-0.1646 10.7504,0.1896 10.3918,0.3126 7.383,0.8643 2.4825,1.89 0.1162,2.3871 -0.8062,2.2499 -1.6059,1.7701 -2.161,1.0208 -2.3871,0.116 -2.2498,-0.8063 -1.77,-1.606 -1.0206,-2.1611 -0.5909,-2.3641 1.3015,-2.836 Z" fill="#1d1d1d" stroke-linecap="round" transform="matrix(1, 0, 0, 1, 531.4202, 298.2919)" opacity="1"/><path d="M2.0054,2.9101 Q1.3235,4.8125 0.7124,6.3328 T-0.0735,9.8005 1.6158,10.9259 3.956,10.0966 4.8854,10.2345 5.7221,10.662 6.3785,11.3343 6.7858,12.1809 6.9015,13.1134 6.7134,14.0339 6.2413,14.8462 5.5344,15.4652 4.6669,15.8261 3.7296,15.8911 2.8206,15.6534 2.035,15.1379 1.4552,14.3986 1.1419,13.5128 1.1278,12.5733 1.4144,11.6785 1.9717,10.9221 2.7414,10.3832 3.6429,10.1183 4.5817,10.1551 5.4597,10.4898 6.1848,11.0873 6.6812,11.8851 6.8968,12.7996 6.8092,13.735 6.4274,14.5936 5.7915,15.2852 4.968,15.7376 4.5196,15.8963 2.0179,16.3199 -2.1946,16.2323 -4.9774,14.1895 -6.1308,10.8723 -5.1865,5.921 -3.4244,0.8739 -2.3921,-1.4836 -1.6423,-2.2861 -0.6424,-2.7405 0.4553,-2.7778 1.4837,-2.3921 2.2862,-1.6422 2.7406,-0.6423 2.7777,0.4554 2.6872,1.0079 2.0054,2.9101 Z" fill="#1d1d1d" stroke-linecap="round" transform="matrix(1, 0, 0, 1, 537.4202, 298.2919)" opacity="1"/><path d="M2.797,2.1285 Q2.8633,4.257 2.9206,7.0342 T2.997,11.9845 2.9699,16.4867 2.5528,20.9127 1.8066,25.1534 1.3202,27.6773 0.9824,28.3827 0.4371,28.9434 -0.2587,29.3005 -1.032,29.4168 -1.8021,29.28 -2.4881,28.9046 -3.0184,28.3297 -3.3373,27.6156 -3.4115,26.837 -3.2332,26.0755 -2.8211,25.4108 -2.2184,24.9125 -1.488,24.6328 -0.7066,24.6009 0.0441,24.8201 0.6855,25.2677 1.1504,25.8966 1.3902,26.641 1.3797,27.423 1.1201,28.1607 0.6385,28.7769 -0.0147,29.2071 -0.771,29.4061 -1.5513,29.3533 -2.2739,29.0541 -2.8631,28.5398 -3.2572,27.8642 -3.415,27.0982 -3.4312,26.7027 -3.2796,24.5321 -3.0258,20.5858 -2.9699,16.484 -2.997,11.9845 -2.9206,7.0342 -2.797,2.1285 -2.6268,-0.5225 -2.2269,-1.488 -1.4879,-2.2269 -0.5224,-2.6268 0.5227,-2.6268 1.4881,-2.2268 2.227,-1.4878 2.6269,-0.5223 2.7307,0.0001 2.797,2.1285 Z" fill="#1d1d1d" stroke-linecap="round" transform="matrix(1, 0, 0, 1, 559.4202, 287.2919)" opacity="1"/><path d="M0.1947,-3.1605 Q1.5923,-3.9154 3.4471,-4.6104 T7.2945,-5.4005 11.0756,-5.5265 13.2759,-5.5123 14.0636,-5.2926 14.74,-4.833 15.2342,-4.1814 15.4945,-3.4062 15.4936,-2.5884 15.2316,-1.8137 14.736,-1.1632 14.0586,-0.705 13.2704,-0.4871 12.4538,-0.5324 11.6945,-0.8359 11.0718,-1.3661 10.651,-2.0673 10.4762,-2.8662 10.5656,-3.6791 10.9099,-4.4209 11.473,-5.0139 12.196,-5.3961 13.0032,-5.5274 13.81,-5.394 14.532,-5.0101 15.0937,-4.4156 15.4361,-3.673 15.5235,-2.8599 15.3466,-2.0615 14.9241,-1.3613 14.3001,-0.8327 13.54,-0.531 13.1356,-0.4425 10.1427,-0.2084 5.6165,0.5516 2.6433,1.7415 0.6967,2.5442 -0.33,2.6172 -1.3065,2.2917 -2.084,1.6173 -2.5443,0.6966 -2.6172,-0.3301 -2.2916,-1.3066 -1.6172,-2.0841 -1.2027,-2.4057 0.1947,-3.1605 Z" fill="#1d1d1d" stroke-linecap="round" transform="matrix(1, 0, 0, 1, 557.4202, 307.2919)" opacity="1"/><path d="M2.6932,-2.7344 Q4.5846,-2.2615 7.5637,-1.8097 T14.6371,-1.1217 23.4374,-1.0008 31.8878,-1.1779 39.1566,-1.5059 45.3286,-1.9218 45.8021,-2.0819 41.8634,-3.3278 37.9295,-5.809 35.4404,-7.3657 34.8843,-8.0549 34.5093,-8.857 34.3372,-9.7257 34.378,-10.6102 34.6293,-11.4593 35.0765,-12.2236 35.6936,-12.8586 36.4448,-13.3275 37.2863,-13.603 38.1694,-13.6691 39.0425,-13.522 39.8551,-13.1701 41.0173,-12.5614 42.255,-11.8082 43.0337,-10.9412 43.4947,-9.8709 43.5898,-8.7094 43.3091,-7.5783 42.6819,-6.5961 41.7739,-5.8656 40.6802,-5.4632 39.5153,-5.4312 38.4011,-5.7728 37.4543,-6.4523 36.7741,-7.3985 36.4316,-8.5124 36.4627,-9.6774 36.8642,-10.7714 37.594,-11.68 38.5757,-12.308 39.7065,-12.5896 40.8681,-12.4954 41.9388,-12.0352 42.8064,-11.2573 43.3803,-10.243 43.6002,-9.0985 43.4432,-7.9438 42.9257,-6.8996 42.1019,-6.0754 41.058,-5.5573 39.9033,-5.3997 38.7587,-5.6191 38.2049,-5.8223 36.9828,-6.4385 35.4404,-7.3657 34.8843,-8.0549 34.5093,-8.857 34.3372,-9.7257 34.378,-10.6102 34.6293,-11.4593 35.0765,-12.2236 35.6936,-12.8586 36.4448,-13.3275 37.2863,-13.603 38.1694,-13.6691 39.0425,-13.522 39.8551,-13.1701 42.1634,-11.8388 45.9697,-9.3492 50.3185,-6.0152 53.6238,-1.9592 53.3884,1.8856 50.3329,4.1591 45.7624,4.8225 39.4507,5.2151 32.0064,5.5236 23.3087,5.6567 13.9306,5.4688 6.2554,4.6733 1.0908,3.6804 -1.385,2.9318 -2.4016,2.1786 -3.0525,1.0937 -3.2387,-0.1578 -2.9317,-1.3852 -2.1785,-2.4017 -1.0935,-3.0526 0.1579,-3.2387 0.802,-3.2073 2.6932,-2.7344 Z" fill="#1d1d1d" stroke-linecap="round" transform="matrix(1, 0, 0, 1, 630.4202, 298.2919)" opacity="1"/><path d="M0.9193,3.6874 Q-0.4291,5.863 -1.858,7.9959 T-5.1008,12.5214 -7.9455,15.9064 -9.3325,17.1722 -10.1134,17.5909 -10.9872,17.7384 -11.8622,17.5991 -12.647,17.1877 -13.2594,16.5473 -13.6352,15.7448 -13.7351,14.8644 -13.5486,13.9982 -13.0953,13.2368 -12.4226,12.6601 -11.601,12.3283 -10.7164,12.2763 -9.8615,12.5094 -9.1259,13.0033 -8.5864,13.7063 -8.2997,14.5447 -8.2957,15.4308 -8.5748,16.2718 -9.1078,16.9796 -9.839,17.4801 -10.6917,17.721 -11.5767,17.677 -12.4013,17.3527 -13.0792,16.7821 -13.5394,16.0249 -13.7337,15.1604 -13.6418,14.2791 -13.2733,13.4733 -13.0233,13.1008 -11.4785,11.2967 -9.0758,8.0741 -6.7326,4.6535 -3.7573,0.5696 -1.8921,-1.8882 -1.0255,-2.4685 -0.0027,-2.6731 1.0205,-2.4706 1.8883,-1.892 2.4686,-1.0254 2.6731,-0.0026 2.4706,1.0206 2.2676,1.5119 0.9193,3.6874 Z" fill="#1d1d1d" stroke-linecap="round" transform="matrix(1, 0, 0, 1, 681.4202, 301.2919)" opacity="1"/><path d="M1.26,2.9156 Q0.3405,4.5858 -0.3261,6.0832 T-2.4179,9.7667 -5.0576,13.7014 -7.6147,17.4026 -9.2273,19.6458 -9.8456,20.1257 -10.5848,20.383 -11.3675,20.3909 -12.1117,20.1484 -12.7395,19.6809 -13.1851,19.0375 -13.402,18.2855 -13.3674,17.5035 -13.085,16.7736 -12.5842,16.172 -11.9176,15.7618 -11.1549,15.586 -10.376,15.6629 -9.6624,15.9845 -9.0888,16.5172 -8.7154,17.2051 -8.5812,17.9762 -8.7002,18.7498 -9.06,19.4449 -9.6229,19.9887 -10.33,20.3243 -11.1073,20.4166 -11.8733,20.2558 -12.5479,19.8589 -13.0604,19.2673 -13.3572,18.543 -13.4072,17.7619 -13.2052,17.0057 -13.0424,16.6445 -11.7654,14.6487 -9.3514,10.8572 -6.973,7.2155 -4.928,3.7027 -3.152,0.3954 -1.8582,-1.615 -1.0987,-2.2032 -0.1719,-2.4559 0.7811,-2.3347 1.6151,-1.8581 2.2032,-1.0986 2.4559,-0.1718 2.3347,0.7812 2.1794,1.2455 1.26,2.9156 Z" fill="#1d1d1d" stroke-linecap="round" transform="matrix(1, 0, 0, 1, 300.4202, 359.2919)" opacity="1"/><path d="M3.0823,-0.7207 Q4.9878,0.4414 6.802,1.8274 T10.0265,4.4269 12.498,6.8573 14.6163,9.302 15.8643,10.8355 16.1385,11.4917 16.1889,12.2012 16.01,12.8896 15.6208,13.4849 15.0618,13.9247 14.3916,14.1629 13.6805,14.1748 13.0028,13.9589 12.4295,13.5379 12.0206,12.9559 11.819,12.2738 11.8457,11.5631 12.098,10.8981 12.5495,10.3485 13.1527,9.9717 13.8447,9.8074 14.553,9.8726 15.2034,10.1605 15.7277,10.6411 16.0712,11.2639 16.1978,11.9638 16.0943,12.6675 15.7715,13.3013 15.2633,13.7988 14.6228,14.108 13.9171,14.1965 13.22,14.0551 12.6046,13.6984 12.3264,13.4699 10.3868,11.2958 7.1126,7.9844 4.1792,5.568 0.7017,3.0857 -1.4923,1.586 -1.9857,0.8942 -2.1767,0.0662 -2.0363,-0.7718 -1.586,-1.4924 -0.8941,-1.9857 -0.0661,-2.1767 0.7719,-2.0363 1.1769,-1.8828 3.0823,-0.7207 Z" fill="#1d1d1d" stroke-linecap="round" transform="matrix(1, 0, 0, 1, 288.4202, 363.2919)" opacity="1"/><path d="M2.2637,1.6555 Q2.2074,3.311 2.1552,5.1555 T2.048,7.3358 1.8336,7.9721 1.4272,8.5067 0.8714,8.8836 0.2243,9.0632 -0.4463,9.0268 -1.0701,8.7782 -1.5819,8.3434 -1.928,7.768 -2.0723,7.1122 -1.9997,6.4446 -1.7176,5.8351 -1.2557,5.3477 -0.6624,5.0332 0.0003,4.9246 0.663,5.0334 1.2562,5.348 1.718,5.8356 1.9998,6.4452 2.0723,7.1128 1.9278,7.7686 1.5815,8.3439 1.0696,8.7785 0.4457,9.027 -0.2249,9.0631 -0.8719,8.8833 -1.4276,8.5063 -1.8339,7.9716 -2.0481,7.3352 -2.1031,6.9997 -2.1552,5.1555 -2.2637,1.6555 -2.2317,-0.4439 -1.8919,-1.2642 -1.2641,-1.892 -0.4438,-2.2317 0.444,-2.2317 1.2643,-1.8919 1.8921,-1.264 2.2318,-0.4437 2.32,0.0001 2.2637,1.6555 Z" fill="#1d1d1d" stroke-linecap="round" transform="matrix(1, 0, 0, 1, 311.4202, 377.2919)" opacity="1"/><path d="M0.9514,3.2251 Q-0.2013,5.1351 -1.2465,7.2098 T-3.4382,11.0074 -5.7798,14.5212 -7.2374,16.6011 -7.8409,17.0801 -8.5658,17.3413 -9.3361,17.3574 -10.0712,17.1266 -10.6942,16.6732 -11.1398,16.0447 -11.3614,15.3067 -11.3357,14.5366 -11.0655,13.8151 -10.579,13.2176 -9.9272,12.8067 -9.1783,12.6255 -8.4108,12.6928 -7.7049,13.0018 -7.1346,13.5199 -6.7597,14.193 -6.6193,14.9506 -6.7282,15.7134 -7.0749,16.4015 -7.6232,16.9428 -8.3156,17.2807 -9.0797,17.3799 -9.8355,17.2298 -10.5037,16.8463 -11.0146,16.2695 -11.3145,15.5598 -11.3721,14.7914 -11.1813,14.0449 -11.0249,13.6876 -9.879,11.8653 -7.7779,8.5222 -5.6759,4.7174 -3.3164,0.5589 -1.7723,-1.6676 -0.9992,-2.2189 -0.074,-2.4324 0.8625,-2.2755 1.6677,-1.7722 2.2189,-0.9991 2.4324,-0.0739 2.2755,0.8626 2.104,1.3151 0.9514,3.2251 Z" fill="#1d1d1d" stroke-linecap="round" transform="matrix(1, 0, 0, 1, 424.4202, 351.2919)" opacity="1"/><path d="M3.5977,0.618 Q5.2667,2.7362 6.3956,4.3974 T8.7431,7.8473 10.1281,9.9848 10.3408,10.7175 10.3085,11.4797 10.0345,12.1917 9.5475,12.779 8.8984,13.18 8.1553,13.3527 7.3959,13.2791 6.6998,12.9669 6.1398,12.4488 5.7746,11.7789 5.6423,11.0276 5.757,10.2733 6.1064,9.5951 6.6542,9.064 7.3428,8.7356 8.1003,8.6443 8.8472,8.7996 9.5055,9.1853 10.0061,9.7611 10.2967,10.4665 10.3468,11.2278 10.1512,11.9652 9.7304,12.6016 9.1284,13.0703 8.4083,13.3222 7.6454,13.331 6.9196,13.0958 6.307,12.6411 6.0382,12.3638 4.7858,10.5992 2.4443,7.306 -0.2867,3.639 -2.1423,1.074 -2.3902,0.1723 -2.2742,-0.7555 -1.812,-1.5683 -1.0738,-2.1424 -0.1722,-2.3903 0.7556,-2.2742 1.5684,-1.8119 1.9288,-1.5 3.5977,0.618 Z" fill="#1d1d1d" stroke-linecap="round" transform="matrix(1, 0, 0, 1, 415.4202, 353.2919)" opacity="1"/><path d="M1.6555,-2.9011 Q3.311,-2.8793 5.9139,-2.0526 T9.2367,1.4634 9.2998,5.636 7.2833,8.7042 7.9303,10.6142 11.7069,11.8196 14.6237,13.1222 16.1424,13.7318 16.8068,14.2153 17.2821,14.8857 17.5184,15.6727 17.4911,16.494 17.2029,17.2636 16.6841,17.9009 15.989,18.3391 15.1903,18.5325 14.3717,18.4607 13.6189,18.1312 13.0106,17.5786 12.6107,16.8608 12.4609,16.0528 12.577,15.2393 12.9467,14.5054 13.5315,13.928 14.27,13.5676 15.0849,13.4618 15.8909,13.6218 16.6037,14.0308 17.1485,14.6459 17.4684,15.4029 17.5299,16.2223 17.3264,17.0185 16.8794,17.708 16.2357,18.2187 15.4625,18.4972 14.6409,18.5141 14.2291,18.4554 11.712,17.7571 6.9261,15.7265 3.3478,13.4518 1.5489,10.2953 2.1854,5.4803 1.6555,2.9011 -0.5593,2.8117 -1.5928,2.3836 -2.3837,1.5926 -2.8118,0.5592 -2.8117,-0.5594 -2.3836,-1.5929 -1.5925,-2.3838 -0.559,-2.8118 0.0001,-2.923 1.6555,-2.9011 Z" fill="#1d1d1d" stroke-linecap="round" transform="matrix(1, 0, 0, 1, 433.4202, 363.2919)" opacity="1"/><path d="M0.9746,-2.8561 Q2.6306,-3.3275 4.1906,-3.8022 T7.8721,-4.6928 11.8954,-3.6307 14.0604,-0.5164 14.3935,1.959 14.4312,3.1967 14.2412,3.9627 13.8164,4.6279 13.2015,5.1227 12.4608,5.3952 11.6719,5.417 10.9173,5.1857 10.276,4.7256 9.8153,4.0848 9.5833,3.3304 9.6043,2.5414 9.8762,1.8004 10.3704,1.1851 11.0352,0.7597 11.8011,0.5689 12.5878,0.6327 13.3129,0.9443 13.9006,1.4711 14.2893,2.1581 14.4383,2.9331 14.332,3.7152 13.9815,4.4224 13.4236,4.9806 12.7167,5.3315 11.9347,5.4383 11.1595,5.2898 10.4723,4.9015 9.9451,4.3142 9.6331,3.5893 9.5365,3.2016 9.9878,1.456 8.819,0.0759 5.5953,0.9387 2.3364,1.9101 0.1991,2.4244 -0.7438,2.316 -1.5736,1.8551 -2.1637,1.1116 -2.4244,0.199 -2.316,-0.744 -1.855,-1.5736 -1.1115,-2.1637 -0.6812,-2.3848 0.9746,-2.8561 Z" fill="#1d1d1d" stroke-linecap="round" transform="matrix(1, 0, 0, 1, 390.4202, 309.2919)" opacity="1"/><path d="M1.0684,-2.3406 Q2.4814,-2.6129 4.2851,-2.845 T8.6869,-4.0223 11.6178,-5.0301 12.286,-5.0458 12.9243,-4.8474 13.4658,-4.4555 13.8539,-3.9113 14.0478,-3.2716 14.0273,-2.6035 13.7946,-1.9769 13.374,-1.4574 12.8095,-1.0995 12.1602,-0.9405 11.4942,-0.9971 10.8812,-1.2635 10.3853,-1.7116 10.0584,-2.2947 9.9348,-2.9516 10.0275,-3.6136 10.3267,-4.2113 10.801,-4.6822 11.401,-4.977 12.0636,-5.0648 12.7195,-4.9364 13.3002,-4.6052 13.7447,-4.106 14.0065,-3.491 14.0583,-2.8246 13.8945,-2.1766 13.5324,-1.6147 13.0099,-1.1979 12.7147,-1.0325 11.5665,-0.5699 8.4817,0.6313 4.87,1.5184 1.7696,1.8676 -0.0642,2.0555 -0.8459,1.8745 -1.4989,1.4081 -1.9236,0.7273 -2.0555,-0.0643 -1.8745,-0.846 -1.408,-1.499 -0.7272,-1.9237 -0.3446,-2.0683 1.0684,-2.3406 Z" fill="#1d1d1d" stroke-linecap="round" transform="matrix(1, 0, 0, 1, 389.4202, 316.2919)" opacity="1"/><path d="M2.7674,1.6555 Q2.7549,3.311 2.7343,5.807 T4.7893,7.5009 9.3633,6.0717 12.7803,5.3394 14.1483,5.2586 15.0159,5.4494 15.7771,5.9073 16.3523,6.5843 16.6812,7.4096 16.7294,8.2966 16.4918,9.1526 15.9933,9.8879 15.2861,10.4256 14.4443,10.7093 13.5559,10.7093 12.7141,10.4257 12.0068,9.8881 11.5083,9.1528 11.2706,8.2968 11.3187,7.4098 11.6476,6.5845 12.2227,5.9075 12.9839,5.4495 13.8515,5.2586 14.7347,5.3547 15.5409,5.7277 16.1858,6.3387 16.6018,7.1236 16.7454,8.0003 16.6016,8.8769 16.1854,9.6618 15.5404,10.2726 14.7341,10.6455 14.3008,10.7658 13.3816,10.8608 10.3384,11.4961 6.6229,12.5365 2.2608,12.6976 -1.6115,10.3938 -2.7343,5.87 -2.7674,1.6555 -2.6741,-0.5319 -2.267,-1.5148 -1.5147,-2.267 -0.5318,-2.6741 0.5321,-2.6741 1.5149,-2.2669 2.2671,-1.5146 2.6741,-0.5317 2.7799,0.0001 2.7674,1.6555 Z" fill="#1d1d1d" stroke-linecap="round" transform="matrix(1, 0, 0, 1, 391.4202, 317.2919)" opacity="1"/><path d="M0.8534,3.1638 Q-0.2578,5.0999 -1.0133,6.7318 T-2.9334,10.5077 -5.2966,14.6035 -7.8134,18.7741 -9.3389,21.2652 -9.8298,21.7294 -10.4433,22.0125 -11.1151,22.0849 -11.7748,21.939 -12.3534,21.5901 -12.7903,21.0747 -13.0397,20.4468 -13.0756,19.7721 -12.8942,19.1213 -12.5144,18.5624 -11.9761,18.1541 -11.3356,17.9391 -10.66,17.9398 -10.0199,18.1562 -9.4825,18.5657 -9.1039,19.1253 -8.9239,19.7766 -8.9612,20.4512 -9.212,21.0786 -9.65,21.593 -10.2294,21.9407 -10.8894,22.0852 -11.561,22.0113 -12.1739,21.7269 -12.6638,21.2617 -12.9796,20.6643 -13.0881,19.9974 -12.978,19.3308 -12.8684,19.0068 -11.7674,16.6731 -9.6936,12.2046 -7.5604,8.0504 -5.436,4.2494 -3.2184,0.6202 -1.6548,-1.557 -0.933,-2.0718 -0.0691,-2.2711 0.8053,-2.1247 1.5571,-1.6547 2.0718,-0.9329 2.2711,-0.069 2.1246,0.8054 1.9645,1.2279 0.8534,3.1638 Z" fill="#1d1d1d" stroke-linecap="round" transform="matrix(1, 0, 0, 1, 542.4202, 346.2919)" opacity="1"/><path d="M2.9016,0.5384 Q3.917,2.1546 4.7316,3.8074 T6.6692,7.9366 8.3634,11.7358 9.0341,13.3921 9.1217,14.0735 8.9872,14.7471 8.6446,15.3425 8.1298,15.7974 7.4967,16.0641 6.8117,16.1146 6.1463,15.9438 5.5703,15.5694 5.144,15.0308 4.9121,14.3842 4.8987,13.6973 5.1053,13.0422 5.5104,12.4874 6.0713,12.0909 6.7295,11.8943 7.4161,11.9182 8.059,12.16 8.5911,12.5945 8.9566,13.1762 9.1173,13.8441 9.0562,14.5283 8.7799,15.1572 8.3172,15.665 7.7166,15.9984 7.041,16.1226 6.3611,16.0246 5.7481,15.7146 5.2661,15.225 5.0654,14.9411 4.377,13.6757 2.4333,9.9499 0.5225,5.9785 -1.0096,2.7726 -2.0206,0.6759 -2.1255,-0.1489 -1.9067,-0.9509 -1.3976,-1.6082 -0.6758,-2.0207 0.149,-2.1254 0.951,-1.9066 1.6083,-1.3975 1.8862,-1.0777 2.9016,0.5384 Z" fill="#1d1d1d" stroke-linecap="round" transform="matrix(1, 0, 0, 1, 534.4202, 348.2919)" opacity="1"/><path d="M0.3899,-2.8231 Q1.8344,-3.5369 3.4536,-3.7731 T6.965,-3.2 9.9288,-0.662 11.4811,2.6384 11.1003,6.2467 8.6662,9.0173 5.0388,9.489 2.426,7.8412 3.4568,5.5871 6.8517,5.0599 9.73,6.8239 10.9984,10.3792 10.9783,14.2342 9.8874,18.1671 7.2984,21.7546 3.7103,22.9583 -0.0291,20.6218 -2.4999,17.3134 -3.2365,15.8015 -3.3753,15.0454 -3.2655,14.2845 -2.9184,13.5986 -2.3705,13.0594 -1.6791,12.7234 -0.9166,12.6257 -0.1628,12.7766 0.5033,13.1603 1.012,13.7367 1.3101,14.4453 1.3663,15.212 1.1747,15.9564 0.7555,16.6008 0.1524,17.0775 -0.5713,17.3368 -1.3399,17.3513 -2.0729,17.1197 -2.6936,16.6662 -3.1369,16.0382 -3.3566,15.3015 -3.3295,14.5332 -3.0585,13.8138 -2.5719,13.2186 -1.9208,12.8099 -1.1733,12.6306 -0.4077,12.6993 0.296,13.0088 0.8639,13.5269 1.1053,13.8322 1.7566,14.9514 3.9899,16.5086 6.0884,14.818 6.4638,10.3281 6.6465,5.6406 5.406,2.0068 2.4481,1.4041 0.6109,2.2309 -0.2893,2.2948 -1.1455,2.0094 -1.8273,1.4181 -2.2309,0.6108 -2.2948,-0.2895 -2.0093,-1.1456 -1.418,-1.8274 -1.0546,-2.1094 0.3899,-2.8231 Z" fill="#1d1d1d" stroke-linecap="round" transform="matrix(1, 0, 0, 1, 552.4202, 363.2919)" opacity="1"/><path d="M2.2391,-2.5426 Q4.1351,-2.3411 6.6807,-2.2685 T11.5433,-2.1589 16.9627,-2.1154 23.3603,-2.1106 29.3373,-2.1169 30.4116,-4.6246 27.8993,-8.511 25.9622,-11.4897 24.7046,-13.6253 24.4382,-14.7495 24.5446,-15.9 25.0129,-16.9562 25.7939,-17.8076 26.8059,-18.3651 27.9429,-18.5702 29.0859,-18.4015 30.1152,-17.8767 30.923,-17.0507 31.4248,-16.01 31.568,-14.8635 31.3377,-13.7314 30.7578,-12.732 29.8893,-11.9701 28.8229,-11.5255 27.6704,-11.4446 26.5523,-11.736 25.5859,-12.3691 24.8722,-13.2777 24.486,-14.3666 24.4677,-15.5218 24.8192,-16.6224 25.5038,-17.5531 26.4497,-18.2165 27.558,-18.5432 28.7125,-18.4988 29.7924,-18.0882 30.6846,-17.3542 31.0703,-16.9145 32.0488,-15.2862 33.9279,-12.1471 36.1803,-8.423 38.3519,-2.8729 37.4996,2.0241 33.9169,3.8317 29.3138,4.0548 23.3098,3.9928 16.8458,3.8919 11.3228,3.7348 6.1925,3.4637 1.5449,3.0156 -0.855,2.574 -1.775,2.0508 -2.4247,1.2154 -2.7053,0.195 -2.5739,-0.8552 -2.0507,-1.7751 -1.2153,-2.4248 -0.1948,-2.7053 0.3431,-2.7441 2.2391,-2.5426 Z" fill="#1d1d1d" stroke-linecap="round" transform="matrix(1, 0, 0, 1, 1088.5837, 298.5759)" opacity="1"/><path d="M1.969,3.6615 Q1.0589,6.276 0.3506,8.3509 T-1.2355,12.5628 -2.8765,16.2521 -4.4643,19.5059 -5.5526,21.6085 -6.1943,22.3057 -7.0251,22.7616 -7.958,22.9283 -8.8952,22.7885 -9.7387,22.3566 -10.4002,21.6781 -10.8104,20.8238 -10.9263,19.8833 -10.7358,18.955 -10.2589,18.1361 -9.5455,17.5124 -8.6703,17.1491 -7.7249,17.0843 -6.8083,17.3248 -6.0164,17.8454 -5.4323,18.5915 -5.117,19.4852 -5.1035,20.4327 -5.3933,21.3349 -5.956,22.0974 -6.7328,22.6403 -7.6422,22.9067 -8.589,22.8688 -9.4742,22.5305 -10.2051,21.9273 -10.7051,21.1223 -10.9218,20.1998 -10.8326,19.2564 -10.7109,18.7924 -9.9984,17.0416 -8.669,13.7442 -7.2094,10.25 -5.6047,6.2161 -3.861,1.5415 -2.5693,-1.5581 -1.7774,-2.4227 -0.715,-2.9185 0.4564,-2.9699 1.5582,-2.5692 2.4228,-1.7773 2.9185,-0.7148 2.9699,0.4565 2.8791,1.0471 1.969,3.6615 Z" fill="#1d1d1d" stroke-linecap="round" transform="matrix(1, 0, 0, 1, 1124.5837, 299.5759)" opacity="1"/><path d="M2.3646,-2.8357 Q4.7292,-2.8948 7.5101,-3.1747 T14.018,-3.6178 20.6351,-3.8723 26.601,-4.2111 32.7048,-4.2082 38.9075,-3.7326 42.4805,-3.4289 43.2309,-3.1483 43.8525,-2.6428 44.2801,-1.9653 44.4689,-1.1867 44.3993,-0.3886 44.0785,0.3455 43.54,0.9388 42.8403,1.329 42.0526,1.4754 41.2595,1.3627 40.5438,1.0025 39.9806,0.4327 39.6289,-0.2871 39.5254,-1.0816 39.681,-1.8675 40.0794,-2.5626 40.6788,-3.0941 41.4167,-3.4063 42.2156,-3.4666 42.9919,-3.2686 43.6644,-2.8331 44.1626,-2.2057 44.4344,-1.4521 44.4513,-0.6511 44.2115,0.1134 43.7403,0.7613 43.0868,1.2247 42.3195,1.4553 41.9173,1.5077 38.735,1.524 32.874,1.6037 26.9319,1.9616 20.8108,2.2964 14.365,2.4226 7.7537,2.7017 2.3654,2.8357 -0.5313,2.6708 -1.513,2.2642 -2.2643,1.5128 -2.6709,0.5311 -2.6708,-0.5314 -2.2641,-1.5131 -1.5127,-2.2643 -0.531,-2.6709 0.0001,-2.7765 2.3646,-2.8357 Z" fill="#1d1d1d" stroke-linecap="round" transform="matrix(1, 0, 0, 1, 1151.5837, 271.5759)" opacity="1"/><path d="M3.3201,2.6015 Q3.3332,5.203 3.3426,8.2295 T3.3589,14.2699 3.37,19.5829 3.1236,24.221 2.7275,28.5585 2.3835,32.5503 1.9905,36.8169 1.7085,39.5339 1.3962,40.3708 0.8331,41.0642 0.078,41.5415 -0.79,41.7526 -1.6799,41.6756 -2.4987,41.3184 -3.1605,40.7185 -3.5961,39.9387 -3.76,39.0606 -3.6348,38.1761 -3.2338,37.3779 -2.5989,36.7495 -1.7966,36.3568 -0.9109,36.2408 -0.0345,36.4137 0.7408,36.8574 1.3338,37.5254 1.6825,38.3478 1.7503,39.2385 1.5302,40.1042 1.0451,40.8543 0.346,41.4103 -0.4941,41.7139 -1.3872,41.7333 -2.2397,41.4666 -2.9624,40.9416 -3.4797,40.2134 -3.7373,39.3581 -3.796,38.9097 -3.8442,36.6293 -3.9594,32.2549 -3.9228,27.9941 -3.5966,23.8522 -3.37,19.5807 -3.3589,14.2699 -3.3426,8.2295 -3.3201,2.6015 -3.1812,-0.6328 -2.6968,-1.802 -1.8019,-2.6969 -0.6326,-3.1812 0.633,-3.1811 1.8022,-2.6967 2.697,-1.8018 3.1812,-0.6325 3.307,0.0002 3.3201,2.6015 Z" fill="#1d1d1d" stroke-linecap="round" transform="matrix(1, 0, 0, 1, 1172.5837, 271.5759)" opacity="1"/><path d="M2.1537,2.2933 Q1.6731,3.7085 1.56,5.3876 T3.0226,7.8554 6.0925,7.9816 6.6768,4.9881 3.5615,0.8273 1.0802,-1.3173 0.6434,-2.0184 0.4533,-2.8223 0.5299,-3.6448 0.8651,-4.3998 1.4238,-5.0082 2.1476,-5.4064 2.9606,-5.5526 3.7777,-5.4315 4.5134,-5.0559 5.0907,-4.465 5.449,-3.7208 5.551,-2.901 5.3858,-2.0917 4.9709,-1.3774 4.3496,-0.833 3.587,-0.5155 2.763,-0.4581 1.9637,-0.6669 1.273,-1.1199 0.7631,-1.7698 0.4874,-2.5485 0.4747,-3.3744 0.7265,-4.1612 1.2163,-4.8264 1.8928,-5.3003 2.6853,-5.5334 3.5107,-5.5013 4.2827,-5.2072 4.6443,-4.9972 6.0488,-3.9116 9.594,-0.4243 12.4464,3.4312 12.3158,8.0254 9.3261,12.2731 5.4313,13.7114 0.8716,12.6543 -2.9279,9.6122 -3.7403,4.9627 -3.0997,0.5447 -2.366,-1.3488 -1.6698,-2.1516 -0.7193,-2.6268 0.3407,-2.7021 1.3489,-2.366 2.1516,-1.6697 2.6268,-0.7191 2.7021,0.3409 2.6343,0.8782 2.1537,2.2933 Z" fill="#1d1d1d" stroke-linecap="round" transform="matrix(1, 0, 0, 1, 1187.5837, 295.5759)" opacity="1"/><path d="M2.5424,2.365 Q2.5759,4.73 2.608,7.6322 T2.4226,13.5897 2.0952,18.6477 1.9336,22.3951 1.6848,26.4787 -0.0115,30.056 -3.1453,30.2397 -5.9648,27.9104 -8.2792,28.0474 -9.246,31.3072 -7.9255,31.8035 -6.6673,29.1239 -6.3855,27.5069 -5.9589,26.9794 -5.4184,26.5693 -4.7954,26.3005 -4.1263,26.1886 -3.4498,26.24 -2.8052,26.4519 -2.2301,26.8119 -1.7579,27.2991 -1.416,27.8851 -1.2243,28.5359 -1.1939,29.2137 -1.3265,29.879 0.6092,31.5621 2.9404,33.2386 3.4012,33.9504 3.6107,34.7721 3.5468,35.6176 3.2163,36.3985 2.6537,37.033 1.918,37.4546 1.0861,37.6192 0.2453,37.5096 -0.5166,37.1372 -1.1196,36.5411 -1.5007,35.7836 -1.62,34.9441 -1.465,34.1104 -1.0519,33.3698 -0.424,32.8 0.3531,32.4605 1.1978,32.3869 2.0219,32.5868 2.7389,33.0395 3.2739,33.6974 3.5708,34.4916 3.5986,35.3392 3.3543,36.1512 2.8634,36.8426 2.1775,37.3412 1.3683,37.5946 0.5205,37.5764 -0.277,37.2884 -0.6519,37.0793 -1.5469,36.4143 -4.2541,33.9173 -6.3164,29.941 -6.3855,27.5069 -5.9589,26.9794 -5.4184,26.5693 -4.7954,26.3005 -4.1263,26.1886 -3.4498,26.24 -2.8052,26.4519 -2.2301,26.8119 -1.7579,27.2991 -1.416,27.8851 -1.2243,28.5359 -1.1939,29.2137 -1.3265,29.879 -1.2928,30.8746 -2.3766,33.6866 -4.9405,37.0626 -8.1937,38.5651 -12.364,37.007 -15.107,33.2834 -14.9172,28.2141 -13.1003,23.3935 -10.3758,21.1577 -6.1545,21.3831 -2.4546,23.9733 -2.3995,26.5623 -3.4978,25.6554 -3.5095,22.1276 -3.2905,18.2664 -2.8956,13.3742 -2.608,7.6315 -2.5424,2.365 -2.4135,-0.4801 -2.0461,-1.3672 -1.3671,-2.0461 -0.48,-2.4135 0.4802,-2.4135 1.3673,-2.046 2.0462,-1.367 2.4136,-0.4799 2.509,0.0001 2.5424,2.365 Z" fill="#1d1d1d" stroke-linecap="round" transform="matrix(1, 0, 0, 1, 1223.5837, 271.5759)" opacity="1"/><path d="M-0.6837,3.2709 Q-2.5287,4.2194 -3.8197,6.3669 T-4.367,7.0103 -1.5552,3.7799 1.503,4.059 3.4508,8.1006 6.4673,12.04 8.8147,14.2407 9.2815,14.9122 9.5094,15.6977 9.4746,16.5148 9.1806,17.278 8.6584,17.9074 7.9625,18.3371 7.1659,18.5221 6.3519,18.443 5.6057,18.1082 5.0055,17.5526 4.6142,16.8345 4.4726,16.029 4.5957,15.2204 4.9705,14.4935 5.5577,13.9243 6.296,13.5725 7.108,13.4748 7.9087,13.6415 8.6142,14.0551 9.1508,14.6723 9.4621,15.4286 9.5157,16.2447 9.3058,17.0352 8.8546,17.7173 8.2092,18.2196 7.4371,18.4895 6.6193,18.4987 5.8414,18.2464 5.4734,18.0566 4.368,17.2826 1.3163,14.2929 -0.9375,9.4987 0.2362,6.3755 0.7783,8.011 -1.0679,11.9212 -4.6382,14.7658 -8.8133,14.4651 -10.6239,11.2495 -10.4574,7.7169 -9.1589,4.5068 -6.6826,1.2967 -3.1003,-1.3789 -0.6726,-2.4562 0.3186,-2.5266 1.2612,-2.2124 2.0119,-1.5613 2.4562,-0.6725 2.5266,0.3187 2.2123,1.2614 1.5612,2.012 1.1611,2.3225 -0.6837,3.2709 Z" fill="#1d1d1d" stroke-linecap="round" transform="matrix(1, 0, 0, 1, 1243.5837, 292.5759)" opacity="1"/><path d="M2.7301,1.3055 Q3.2561,3.1621 4.9207,4.7048 T7.9301,7.1243 9.5607,8.2568 10.0356,8.8464 10.2974,9.5568 10.3186,10.3136 10.0971,11.0375 9.656,11.6529 9.0416,12.0951 8.318,12.318 7.5612,12.2982 6.8503,12.0378 6.2598,11.564 5.8515,10.9265 5.6682,10.192 5.7289,9.4373 6.0275,8.7416 6.5326,8.1776 7.1913,7.8045 7.9347,7.6612 8.6849,7.7628 9.3634,8.0986 9.8992,8.6335 10.2361,9.3115 10.3389,10.0615 10.1968,10.8052 9.8247,11.4645 9.2616,11.9705 8.5663,12.2701 7.8118,12.3321 7.077,12.15 6.7248,11.9988 5.363,11.1494 2.4442,9.2098 -0.2383,6.2629 -1.7841,2.4785 -2.2257,0.1083 -2.0977,-0.7517 -1.6503,-1.4973 -0.9517,-2.0149 -0.1082,-2.2257 0.7518,-2.0977 1.4973,-1.6503 2.0149,-0.9516 2.2042,-0.5509 2.7301,1.3055 Z" fill="#1d1d1d" stroke-linecap="round" transform="matrix(1, 0, 0, 1, 1256.5837, 294.5759)" opacity="1"/><path d="M2.4724,2.7811 Q1.9904,4.9057 1.781,7.72 T1.2045,13.1626 0.1882,19.5476 -1.2723,27.2027 -3.0888,33.9826 -5.1435,39.8979 -6.4153,43.3553 -6.9834,44.1097 -7.7626,44.6431 -8.6714,44.8999 -9.6145,44.853 -10.4934,44.5074 -11.2158,43.8993 -11.7063,43.0923 -11.9134,42.171 -11.8155,41.2318 -11.4228,40.3729 -10.7764,39.6845 -9.9441,39.2385 -9.0129,39.0816 -8.0803,39.2303 -7.244,39.6689 -6.5916,40.3517 -6.1914,41.207 -6.0852,42.1453 -6.2842,43.0684 -6.7675,43.8797 -7.4846,44.4942 -8.3603,44.8475 -9.303,44.9027 -10.214,44.6539 -10.9979,44.1274 -11.5726,43.378 -11.878,42.4844 -11.882,41.5401 -11.8067,41.068 -10.8344,38.0091 -9.0519,32.3627 -7.4045,25.9896 -5.8825,18.5593 -4.8293,12.4747 -4.1716,6.8215 -3.4184,1.4759 -2.7164,-1.1969 -2.0515,-2.1453 -1.0744,-2.7671 0.0664,-2.9676 1.197,-2.7163 2.1454,-2.0514 2.7672,-1.0742 2.9676,0.0665 2.9544,0.6567 2.4724,2.7811 Z" fill="#1d1d1d" stroke-linecap="round" transform="matrix(1, 0, 0, 1, 1270.5837, 294.5759)" opacity="1"/><path d="M1.5651,2.7457 Q0.8708,4.6441 -0.289,6.9247 T-2.6772,11.6232 -4.1266,14.3482 -4.6552,14.8758 -5.3245,15.2071 -6.0647,15.3072 -6.798,15.1658 -7.4478,14.7976 -7.946,14.2412 -8.2404,13.5549 -8.3003,12.8104 -8.1194,12.0858 -7.7165,11.4569 -7.1339,10.9896 -6.4326,10.7328 -5.686,10.7133 -4.9723,10.9333 -4.3662,11.3696 -3.9311,11.9767 -3.7127,12.6909 -3.7337,13.4374 -3.992,14.1382 -4.4606,14.7198 -5.0903,15.1213 -5.8153,15.3007 -6.5596,15.2393 -7.2453,14.9433 -7.8006,14.444 -8.1675,13.7934 -8.3073,13.0598 -8.2056,12.3199 -8.0943,11.9586 -6.9086,9.5199 -4.7158,5.0024 -2.9841,1.0383 -2.0113,-1.2474 -1.3808,-1.9221 -0.5401,-2.3043 0.3828,-2.3355 1.2475,-2.0113 1.9222,-1.3807 2.3043,-0.54 2.3355,0.3829 2.2594,0.8474 1.5651,2.7457 Z" fill="#1d1d1d" stroke-linecap="round" transform="matrix(1, 0, 0, 1, 1297.5837, 265.5759)" opacity="1"/><path d="M-2.0432,2.478 Q-3.7024,2.2676 -5.536,2.3382 T-5.6208,4.6797 -3.0537,8.6363 -1.7459,13.1428 -3.1473,18.2565 -8.0506,20.8345 -12.5328,20.3889 -15.1206,19.011 -16.5836,18.1045 -17.1727,17.4886 -17.5343,16.7169 -17.6306,15.8702 -17.4514,15.037 -17.0156,14.3047 -16.3687,13.7498 -15.5786,13.4306 -14.7278,13.3803 -13.9056,13.6044 -13.1979,14.0793 -12.679,14.7552 -12.403,15.5615 -12.3989,16.4137 -12.6672,17.2226 -13.1797,17.9035 -13.8828,18.3851 -14.7029,18.6169 -15.5541,18.5748 -16.3472,18.2631 -16.9993,17.7144 -17.4421,16.9863 -17.6292,16.1548 -17.541,15.3072 -17.1868,14.5321 -16.6036,13.9107 -15.8525,13.508 -15.0121,13.3663 -14.1705,13.5003 -13.7611,13.6361 -12.0108,14.531 -8.3644,14.9857 -7.5319,12.2216 -9.7084,8.1329 -11.632,3.7245 -10.4294,-1.0444 -5.668,-3.1918 -1.2678,-2.951 0.8839,-2.5126 1.7781,-1.9831 2.4017,-1.1516 2.6596,-0.1448 2.5125,0.884 1.983,1.7782 1.1515,2.4017 0.1447,2.6596 -0.3842,2.6884 -2.0432,2.478 Z" fill="#1d1d1d" stroke-linecap="round" transform="matrix(1, 0, 0, 1, 1313.5837, 284.5759)" opacity="1"/><path d="M3.3072,1.508 Q3.5417,3.4001 3.887,5.2522 T4.8584,9.545 5.6949,9.7351 6.7255,5.7316 9.7922,2.8225 13.3793,3.1815 15.6497,6.2716 18.1979,10.0477 21.2309,10.4197 22.8526,5.9643 23.0566,1.2321 23.1101,-1.3477 23.3724,-2.2522 23.9098,-3.0257 24.666,-3.5871 25.562,-3.8776 26.5037,-3.8668 27.3928,-3.5559 28.136,-2.9774 28.6556,-2.1918 28.8971,-1.2815 28.8353,-0.3416 28.4767,0.5292 27.8587,1.24 27.0461,1.7163 26.124,1.9081 25.189,1.7955 24.3388,1.3902 23.6625,0.7346 23.231,-0.1026 23.0894,-1.0337 23.2526,-1.9613 23.7034,-2.7883 24.3946,-3.428 25.254,-3.8135 26.1914,-3.9045 27.1088,-3.6913 27.9101,-3.1963 28.5114,-2.4714 28.8498,-1.5925 28.9469,-1.1257 29.1234,0.9724 29.0778,6.8911 28.2064,12.504 24.8234,16.7515 20.408,19.0122 17.0109,17.6848 13.2509,13.7866 10.689,9.3257 11.2711,8.2192 10.9426,11.02 7.2089,15.0263 2.7991,16.19 -0.1125,13.5346 -1.381,9.8731 -2.2187,6.2019 -2.8342,2.276 -3.0292,-0.2185 -2.715,-1.3611 -1.9875,-2.2965 -0.9573,-2.8823 0.2186,-3.0292 1.3613,-2.715 2.2966,-1.9873 2.8824,-0.9571 3.0727,-0.3839 3.3072,1.508 Z" fill="#1d1d1d" stroke-linecap="round" transform="matrix(1, 0, 0, 1, 1361.5837, 286.5759)" opacity="1"/><path d="M0.8055,-3.447 Q2.4694,-3.8897 4.0762,-4.6213 T5.8896,-7.2863 4.9487,-6.435 3.1654,-1.892 3.2565,1.9768 4.9208,4.861 6.1872,5.9933 6.7135,6.7968 6.9556,7.7262 6.8883,8.6843 6.5186,9.5708 5.8852,10.2928 5.0544,10.7747 4.1132,10.9661 3.1602,10.847 2.2951,10.4298 1.6085,9.7582 1.1722,8.9025 1.0321,7.9523 1.2027,7.0071 1.6662,6.1659 2.374,5.5167 3.252,5.1275 4.2084,5.039 5.143,5.2606 5.9579,5.769 6.5678,6.5109 6.9088,7.4088 6.9453,8.3686 6.6734,9.2898 6.1217,10.0759 5.3477,10.6447 4.4327,10.9366 3.4724,10.921 2.5673,10.5996 2.1414,10.365 0.0879,8.7936 -3.0107,5.6345 -3.7039,0.8542 -2.5622,-4.3826 -0.7459,-8.4123 2.8557,-12.6681 7.1186,-14.7433 10.4336,-12.0504 12.0759,-7.3541 10.6238,-2.8042 6.6548,0.7727 2.5055,2.501 0.2508,3.0542 -0.9371,2.9177 -1.9823,2.337 -2.7258,1.4004 -3.0542,0.2507 -2.9177,-0.9372 -2.3369,-1.9825 -1.4003,-2.7259 -0.8582,-3.0044 0.8055,-3.447 Z" fill="#1d1d1d" stroke-linecap="round" transform="matrix(1, 0, 0, 1, 1398.5837, 300.5759)" opacity="1"/><path d="M-2.4824,2.628 Q-4.0832,2.1703 -5.4923,3.081 T-7.4792,6.1354 -6.4179,6.9417 -4.2459,3.0629 -3.9488,-0.5755 -4.1776,-2.0582 -4.0713,-2.817 -3.7865,-3.5283 -3.3398,-4.1507 -2.7571,-4.6482 -2.0722,-4.9918 -1.3251,-5.1614 -0.559,-5.1474 0.1814,-4.9504 0.8532,-4.5819 1.4172,-4.0634 1.8408,-3.4249 2.0992,-2.7036 2.4249,0.1198 3.3801,4.3278 4.7883,7.1967 5.6871,8.7453 5.9471,9.669 5.8985,10.6274 5.5464,11.52 4.9277,12.2536 4.1072,12.7511 3.1708,12.9607 2.2165,12.8602 1.3442,12.4603 0.6453,11.8028 0.1929,10.9565 0.0344,10.0101 0.1864,9.0626 0.633,8.2133 1.3275,7.551 2.197,7.1452 3.1506,7.0382 4.0885,7.2414 4.9123,7.7333 5.536,8.4626 5.8941,9.3529 5.9493,10.3109 5.6956,11.2363 5.1597,12.0324 4.3977,12.6156 3.4893,12.9249 2.5297,12.9281 1.6194,12.6246 0.8536,12.0464 0.5183,11.6949 -0.2617,10.6467 -2.3635,6.6479 -3.9348,1.0126 -4.1776,-2.0582 -4.0713,-2.817 -3.7865,-3.5283 -3.3398,-4.1507 -2.7571,-4.6482 -2.0722,-4.9918 -1.3251,-5.1614 -0.559,-5.1474 0.1814,-4.9504 0.8532,-4.5819 1.4172,-4.0634 1.8408,-3.4249 2.0992,-2.7036 2.2935,-1.7541 2.1711,1.7632 1.2681,6.8274 -0.7973,10.8896 -3.7202,13.6401 -7.3584,14.4298 -11.203,13.1268 -13.6323,9.6805 -13.9185,5.7171 -12.3933,1.5912 -9.2174,-2.1749 -4.8492,-3.8395 -0.8286,-3.574 1.4385,-2.7995 2.4004,-2.0359 2.9968,-0.9623 3.1369,0.2578 2.7995,1.4386 2.0358,2.4005 0.9622,2.9968 -0.2579,3.1369 -0.8818,3.0857 -2.4824,2.628 Z" fill="#1d1d1d" stroke-linecap="round" transform="matrix(1, 0, 0, 1, 1429.5837, 292.5759)" opacity="1"/><path d="M1.5394,-3.0598 Q3.4246,-3.3526 5.9424,-3.5432 T10.8101,-4.0261 15.7312,-4.3702 21.0679,-4.5085 24.2518,-4.5535 25.054,-4.3395 25.7458,-3.8804 26.2549,-3.2245 26.5278,-2.4404 26.5361,-1.6102 26.2789,-0.8208 25.7831,-0.1548 25.1005,0.3179 24.3028,0.548 23.4733,0.5113 22.699,0.2116 22.0609,-0.3195 21.6258,-1.0267 21.4393,-1.8357 21.5209,-2.662 21.8621,-3.4189 22.4271,-4.0273 23.1568,-4.4234 23.9747,-4.5658 24.7954,-4.4395 25.5327,-4.0579 26.1096,-3.4607 26.4655,-2.7107 26.5634,-1.8862 26.3929,-1.0736 25.9718,-0.358 25.3443,0.1856 24.576,0.5004 24.1665,0.5948 21.4133,0.8633 16.2776,1.3985 11.3338,1.9772 6.4577,2.348 2.2446,2.5868 -0.1967,2.7279 -1.2257,2.4449 -2.0681,1.7897 -2.5955,0.862 -2.7278,-0.1969 -2.4448,-1.2258 -1.7896,-2.0681 -0.8619,-2.5956 -0.3457,-2.767 1.5394,-3.0598 Z" fill="#1d1d1d" stroke-linecap="round" transform="matrix(1, 0, 0, 1, 1434.5837, 294.5759)" opacity="1"/><path d="M2.9778,2.8637 Q3.3542,5.9275 3.531,9.257 T3.9045,15.4082 4.3652,21.4784 4.6039,25.1538 4.4185,25.9772 3.9799,26.6983 3.334,27.2416 2.5484,27.5502 1.7053,27.5918 0.8932,27.362 0.1969,26.8849 -0.3106,26.2105 -0.5762,25.4093 -0.572,24.5653 -0.2986,23.7668 0.2155,23.0974 0.9165,22.6272 1.7309,22.4054 2.5734,22.4553 3.3559,22.7716 3.9965,23.3213 4.428,24.0466 4.6053,24.8719 4.5099,25.7105 4.1516,26.4747 3.5681,27.0845 2.8204,27.4761 1.9868,27.6085 1.1546,27.4677 0.4109,27.0685 -0.1665,26.4528 -0.5169,25.685 -0.6292,25.2727 -1.0385,22.0398 -1.8556,15.8105 -2.3357,9.5925 -2.5048,3.2853 -2.5406,-0.3053 -2.2304,-1.2543 -1.5806,-2.0124 -0.6901,-2.4641 0.3054,-2.5406 1.2544,-2.2303 2.0125,-1.5805 2.4641,-0.69 2.6014,-0.2 2.9778,2.8637 Z" fill="#1d1d1d" stroke-linecap="round" transform="matrix(1, 0, 0, 1, 1444.5837, 277.5759)" opacity="1"/><path d="M3.214,1.655 Q3.2103,3.31 3.4586,5.9367 T3.8622,11.9892 4.1073,18.6257 4.2455,23.9946 4.365,28.5536 4.3915,31.3661 4.2053,32.1671 3.8328,32.9003 3.2957,33.523 2.6252,33.9991 1.8602,34.3009 1.0452,34.4109 0.2276,34.3226 -0.5451,34.0412 -1.228,33.583 -1.7814,32.9747 -2.1732,32.2517 -2.3806,31.4559 -1.9285,28.0441 0.2373,21.9694 3.092,17.694 5.9027,15.7052 9.8357,15.241 14.7003,17.6269 18.0607,21.5273 19.5436,24.992 20.3483,27.1687 20.4385,28.2814 20.1686,29.3646 19.567,30.3049 18.6967,31.0039 17.6487,31.3885 16.5327,31.4182 15.4657,31.09 14.5594,30.4384 13.9085,29.5314 13.5814,28.4641 13.6122,27.3482 13.9976,26.3005 14.6975,25.4308 15.6384,24.8301 16.7219,24.5612 17.8345,24.6525 18.8597,25.0941 19.6902,25.8401 20.239,26.8122 20.4488,27.9086 20.2974,29.0146 19.8008,30.0144 19.011,30.8033 18.0106,31.2987 16.9044,31.4487 15.8082,31.2376 14.8368,30.6875 14.0919,29.8561 13.7878,29.3798 13.0671,27.7751 11.7484,24.6277 9.4743,23.1109 6.5497,25.2145 4.8685,29.1235 4.3915,31.3661 4.2053,32.1671 3.8328,32.9003 3.2957,33.523 2.6252,33.9991 1.8602,34.3009 1.0452,34.4109 0.2276,34.3226 -0.5451,34.0412 -1.228,33.583 -1.7814,32.9747 -2.1732,32.2517 -2.3806,31.4559 -2.4422,28.6534 -2.469,24.1178 -2.5314,18.8173 -2.6669,12.3883 -2.9856,6.2142 -3.214,1.656 -3.0952,-0.6157 -2.624,-1.7534 -1.7532,-2.6241 -0.6155,-3.0953 0.6159,-3.0952 1.7535,-2.6239 2.6242,-1.7531 3.0953,-0.6154 3.2177,0.0002 3.214,1.655 Z" fill="#1d1d1d" stroke-linecap="round" transform="matrix(1, 0, 0, 1, 1458.5837, 271.5759)" opacity="1"/><path d="M2.0622,-3.4372 Q4.6729,-3.8574 6.4124,-4.2905 T9.5286,-5.6956 8.5819,-6.2664 5.277,-4.4016 3.8892,-1.3394 5.6734,1.203 9.3842,2.6739 11.3276,3.4187 12.0824,3.9778 12.6191,4.7486 12.8816,5.6504 12.8424,6.5888 12.5055,7.4656 11.9064,8.1889 11.1077,8.6831 10.193,8.8963 9.258,8.8063 8.4008,8.4224 7.711,7.785 7.2609,6.9606 7.0975,6.0357 7.2381,5.107 7.6678,4.2719 8.3417,3.6176 9.1892,3.2128 10.1216,3.0998 11.0413,3.2905 11.852,3.7648 12.4687,4.4732 12.827,5.3414 12.8893,6.2786 12.6491,7.1866 12.1315,7.9704 11.3908,8.5478 10.5044,8.8585 9.5652,8.87 9.0951,8.7988 7.5543,8.3368 4.2604,7.2868 0.768,5.3591 -1.7522,2.0184 -1.704,-3.1331 0.1724,-7.7588 4.0278,-10.779 9.7411,-12.1901 14.433,-10.281 16.2721,-6.2278 15.2118,-2.3374 11.8645,0.0817 7.6815,1.427 3.1408,2.4912 -0.0496,3.0072 -1.1967,2.7593 -2.1615,2.0913 -2.7973,1.1048 -3.0072,-0.0498 -2.7592,-1.1968 -2.0911,-2.1617 -1.1047,-2.7974 -0.5484,-3.0171 2.0622,-3.4372 Z" fill="#1d1d1d" stroke-linecap="round" transform="matrix(1, 0, 0, 1, 1483.5837, 296.5759)" opacity="1"/><path d="M3.8758,1.4365 Q4.0389,3.3372 4.5346,6.1126 T5.2548,9.6526 5.4984,10.8418 5.4346,11.6837 5.1711,12.4858 4.7234,13.2015 4.1174,13.7893 3.3883,14.215 2.5785,14.4538 1.7351,14.4919 0.9071,14.327 0.1427,13.9688 -0.5139,13.438 -1.0243,12.7656 -1.359,11.9905 -1.2528,9.2175 0.1321,4.341 2.8621,0.1095 7.0643,-3.2387 11.0476,-5.5037 12.9435,-6.3138 14.0569,-6.4777 15.1644,-6.2775 16.15,-5.7341 16.9105,-4.9044 17.3662,-3.8754 17.4695,-2.7547 17.2096,-1.6597 16.6136,-0.705 15.7439,0.0094 14.6917,0.4087 13.567,0.4511 12.4877,0.1322 11.5667,-0.5147 10.9005,-1.4217 10.5588,-2.4941 10.5774,-3.6194 10.9543,-4.6798 11.6502,-5.5644 12.592,-6.1805 13.6813,-6.4636 14.8039,-6.384 15.8424,-5.9502 16.688,-5.2074 17.2521,-4.2336 17.4757,-3.1306 17.3355,-2.0139 16.846,-1.0004 16.0585,-0.1964 15.5993,0.1409 13.398,1.3337 9.4575,4.0162 6.599,7.9613 5.4984,10.8418 5.4346,11.6837 5.1711,12.4858 4.7234,13.2015 4.1174,13.7893 3.3883,14.215 2.5785,14.4538 1.7351,14.4919 0.9071,14.327 0.1427,13.9688 -0.5139,13.438 -1.0243,12.7656 -1.359,11.9905 -1.8603,9.7534 -2.6671,6.0775 -3.4028,2.3475 -3.6603,-0.264 -3.2806,-1.6447 -2.4015,-2.7749 -1.1567,-3.4827 0.2642,-3.6603 1.6448,-3.2805 2.7751,-2.4013 3.4828,-1.1565 3.7128,-0.4639 3.8758,1.4365 Z" fill="#1d1d1d" stroke-linecap="round" transform="matrix(1, 0, 0, 1, 1509.5837, 288.5759)" opacity="1"/><path d="M3.0092,3.6743 Q3.0081,5.8286 3.7278,8.6585 T4.4828,11.9741 4.3967,12.9315 4.0093,13.8112 3.3613,14.5212 2.5205,14.9871 1.575,15.1602 0.6237,15.0223 -0.2338,14.5878 -0.9076,13.9023 -1.3273,13.0375 -1.4488,12.084 -1.2595,11.1415 -0.7792,10.3089 -0.0582,9.6732 0.8281,9.301 1.7868,9.2313 2.7175,9.4714 3.5229,9.9961 4.1186,10.7505 4.4422,11.6556 4.4599,12.6167 4.1697,13.5331 3.6022,14.3089 2.8166,14.8628 1.8952,15.1369 0.9346,15.1025 0.0353,14.7631 -0.7086,14.1543 -1.2192,13.3398 -1.4076,12.8912 -1.808,11.2205 -2.6083,7.7083 -3.0092,3.6936 -2.8958,0.944 -2.4549,-0.1204 -1.6403,-0.935 -0.5759,-1.3758 0.5762,-1.3758 1.6405,-0.9348 2.4551,-0.1201 2.8958,0.9443 3.0104,1.5202 3.0092,3.6743 Z" fill="#1d1d1d" stroke-linecap="round" transform="matrix(1, 0, 0, 1, 1573.301, 286.0263)" opacity="1"/><path d="M2.8852,-0.1745 Q2.9282,0.5367 2.6357,1.1864 T1.7825,2.2754 0.5208,2.8431 -0.8601,2.7595 -2.044,2.0436 -2.7596,0.8596 -2.843,-0.5214 -2.275,-1.7829 -1.1858,-2.636 0.175,-2.8851 1.4958,-2.4733 2.4738,-1.4951 2.8852,-0.1745 Z" fill="#1d1d1d" stroke-linecap="round" transform="matrix(1, 0, 0, 1, 1573.301, 266.2122)" opacity="1"/><path d="M-2.4764,1.3702 Q-3.5778,0.6801 -5.5756,-0.251 T-7.3231,0.681 -5.1071,4.1373 -2.1617,7.0478 -0.6032,10.0471 -0.4357,13.71 -2.3918,16.794 -6.1837,18.7578 -10.2495,19.9557 -14.0075,19.4758 -16.9401,16.711 -18.5103,13.1942 -19.1791,11.2303 -19.2319,10.4317 -19.0269,9.6581 -18.5857,8.9904 -17.9543,8.4986 -17.1989,8.2341 -16.3987,8.2246 -15.6373,8.4712 -14.9945,8.948 -14.5376,9.6051 -14.3144,10.3737 -14.3484,11.1733 -14.6358,11.9202 -15.1468,12.5362 -15.8277,12.9568 -16.6072,13.138 -17.4038,13.0608 -18.134,12.7333 -18.7215,12.1897 -19.1046,11.487 -19.2432,10.6988 -19.1229,9.9076 -18.7563,9.1962 -18.1817,8.6391 -17.4593,8.2946 -16.6647,8.1989 -15.8812,8.3618 -15.1907,8.7665 -14.6655,9.3704 -14.4526,9.7151 -13.7564,11.2345 -11.7583,13.7182 -7.6459,13.8579 -5.6424,11.3362 -8.2285,8.2805 -11.1168,5.338 -12.4919,1.8734 -12.3547,-1.574 -10.8512,-4.3762 -7.9117,-5.9159 -3.409,-4.8931 0.3148,-2.8128 1.7169,-1.7187 2.2439,-0.9308 2.4293,-0.0012 2.2449,0.9285 1.7186,1.717 0.9307,2.244 0.0011,2.4293 -0.9287,2.2448 -1.3751,2.0602 -2.4764,1.3702 Z" fill="#1d1d1d" stroke-linecap="round" transform="matrix(1, 0, 0, 1, 1603.7842, 279.9297)" opacity="1"/><path d="M2.9601,1.6929 Q3.3455,3.814 4.66,5.3196 T7.8296,6.8652 10.9541,4.6524 14.6113,0.6419 18.105,1.1009 18.92,5.0762 17.7432,9.5051 15.242,15.1701 12.0297,20.4797 9.2316,24.3591 6.7354,27.6042 5.0818,29.6181 4.2767,30.1523 3.3432,30.4015 2.3791,30.3396 1.4851,29.973 0.755,29.3402 0.2652,28.5074 0.067,27.5618 0.1811,26.6024 0.5955,25.7296 1.267,25.0349 2.1251,24.5909 3.0801,24.4442 4.0319,24.6101 4.8809,25.0713 5.5382,25.7794 5.935,26.6603 6.0298,27.6218 5.8125,28.5632 5.306,29.386 4.5634,30.004 3.6622,30.3525 2.697,30.395 1.7687,30.1271 0.9746,29.5767 0.3978,28.8016 0.0986,27.883 0.1085,26.9168 0.4263,26.0044 0.6598,25.5747 1.9661,23.9033 4.4064,20.7867 7.0096,17.3116 9.9448,12.7676 12.8311,6.9504 15.612,4.3892 15.7804,7.0967 12.7744,10.5352 8.7846,12.2071 3.4136,10.5856 -0.8446,6.799 -2.2411,2.6303 -2.5586,-0.0808 -2.3329,-1.0538 -1.752,-1.8664 -0.9044,-2.3948 0.0809,-2.5586 1.0539,-2.3328 1.8664,-1.7519 2.3948,-0.9043 2.5747,-0.428 2.9601,1.6929 Z" fill="#1d1d1d" stroke-linecap="round" transform="matrix(1, 0, 0, 1, 1228.8413, 353.0892)" opacity="1"/><path d="M2.5311,4.0435 Q2.6012,6.5669 2.5823,8.6181 T2.547,12.9546 2.4642,15.644 2.2062,16.4097 1.7172,17.0529 1.0484,17.5064 0.2699,17.7225 -0.5369,17.6787 -1.2875,17.3796 -1.9033,16.8565 -2.3198,16.1641 -2.4935,15.3749 -2.406,14.5717 -2.0667,13.8384 -1.5109,13.2519 -0.797,12.8735 0.0004,12.7429 0.7977,12.8737 1.5115,13.2523 2.0671,13.839 2.4062,14.5724 2.4934,15.3757 2.3196,16.1648 1.9028,16.857 1.2869,17.38 0.5362,17.6789 -0.2706,17.7224 -1.0491,17.506 -1.7178,17.0524 -2.2066,16.409 -2.4643,15.6433 -2.5305,15.2396 -2.547,12.9546 -2.5823,8.6181 -2.5311,4.0435 -2.3673,1.0491 -2.0069,0.179 -1.3409,-0.487 -0.4708,-0.8474 0.471,-0.8473 1.3411,-0.4868 2.007,0.1792 2.3674,1.0493 2.461,1.5201 2.5311,4.0435 Z" fill="#1d1d1d" stroke-linecap="round" transform="matrix(1, 0, 0, 1, 1262.3728, 369.855)" opacity="1"/><path d="M3.6661,1.5421 Q5.1118,3.3418 6.1747,4.5934 T8.9741,5.7184 12.3442,4.4053 16.005,2.5028 19.5481,4.1421 20.7277,8.5344 19.3946,12.8544 17.5357,16.9054 15.784,20.2896 13.9264,23.7027 12.7214,25.8356 12.1524,26.415 11.4282,26.7823 10.6246,26.8992 9.8258,26.7534 9.1153,26.3601 8.5676,25.7605 8.2401,25.0174 8.1669,24.2087 8.3559,23.4189 8.7871,22.7308 9.4154,22.2165 10.1752,21.9297 10.9867,21.9004 11.765,22.1319 12.4288,22.5998 12.9083,23.2551 13.1535,24.0292 13.1387,24.8411 12.8655,25.6058 12.3623,26.2432 11.682,26.6865 10.8957,26.8894 10.0858,26.8307 9.337,26.5163 8.7278,25.9794 8.322,25.276 8.162,24.4799 8.2646,23.6744 8.3817,23.2803 9.1924,21.4078 10.7101,17.8579 12.2202,14.4366 13.8131,11.0488 16.2799,8.3936 16.5111,8.6592 13.4687,10.5879 9.3552,11.485 4.925,10.6902 1.8355,8.2782 -0.7808,5.1021 -2.4761,2.805 -2.7794,1.7596 -2.6595,0.6777 -2.1347,-0.2759 -1.2849,-0.9562 -0.2395,-1.2594 0.8424,-1.1394 1.796,-0.6146 2.2206,-0.2574 3.6661,1.5421 Z" fill="#1d1d1d" stroke-linecap="round" transform="matrix(1, 0, 0, 1, 1428.506, 343.9443)" opacity="1"/><path d="M1.8021,-2.8032 Q3.6043,-2.7713 5.3681,-2.7223 T9.1402,-1.5437 11.8655,1.4611 11.9598,5.3278 8.7578,9.8944 9.8474,12.5079 13.9515,12.5841 14.7875,12.7971 15.5116,13.2658 16.0482,13.9413 16.341,14.7527 16.3594,15.6151 16.1015,16.4383 15.5942,17.136 14.8907,17.6352 14.0646,17.8836 13.2024,17.8552 12.3944,17.5531 11.7252,17.0087 11.2649,16.2792 11.0616,15.4408 11.1367,14.5815 11.4822,13.791 12.062,13.1523 12.8154,12.7322 13.6635,12.5746 14.5176,12.6961 15.2881,13.084 15.8944,13.6976 16.2731,14.4726 16.3845,15.3281 16.2169,16.1743 15.7879,16.9226 15.1423,17.4948 14.3479,17.831 13.9235,17.9339 11.8114,18.1479 5.9166,17.8225 0.9917,15.8795 0.2133,12.1871 2.9776,8.3651 6.5414,5.0656 5.6546,3.0354 1.8021,2.8032 -0.5425,2.7271 -1.5448,2.3119 -2.312,1.5447 -2.7271,0.5423 -2.7271,-0.5426 -2.3118,-1.5449 -1.5446,-2.312 -0.5422,-2.7271 0.0001,-2.835 1.8021,-2.8032 Z" fill="#1d1d1d" stroke-linecap="round" transform="matrix(1, 0, 0, 1, 1457.465, 357.6617)" opacity="1"/><path d="M2.7168,-3.0933 Q5.6678,-3.3746 8.0003,-3.5292 T13.0702,-4.2395 19.3738,-5.3591 26.3701,-6.2303 32.0755,-6.6884 36.3106,-6.9125 40.7857,-7.5441 45.1309,-9.0535 48.3342,-10.7478 50.0804,-11.6435 50.855,-11.8213 51.6459,-11.7424 52.3701,-11.4152 52.952,-10.8738 53.3305,-10.175 53.4661,-9.3919 53.3445,-8.6065 52.9785,-7.901 52.4064,-7.3494 51.6881,-7.0093 50.8988,-6.9163 50.1211,-7.0803 49.4365,-7.484 48.9167,-8.0852 48.616,-8.8209 48.566,-9.614 48.7718,-10.3817 49.212,-11.0434 49.8405,-11.5299 50.5914,-11.7903 51.3861,-11.7972 52.1415,-11.5501 52.7784,-11.0746 53.2301,-10.4207 53.4494,-9.6568 53.4133,-8.8629 53.1255,-8.122 52.6163,-7.5119 52.312,-7.2487 49.8023,-5.5075 44.8407,-2.7045 40.4562,-1.312 36.6387,-0.8961 32.5351,-0.6612 27.0847,-0.2481 20.389,0.5334 13.7976,1.6167 8.4092,2.2862 3.191,2.6014 -0.3128,2.7499 -1.3414,2.4208 -2.1657,1.7232 -2.6603,0.7632 -2.7498,-0.313 -2.4207,-1.3415 -1.7231,-2.1658 -0.7631,-2.6603 -0.234,-2.8121 2.7168,-3.0933 Z" fill="#1d1d1d" stroke-linecap="round" transform="matrix(1, 0, 0, 1, 738.2525, 281.9037)" opacity="1"/><path d="M2.948,3.6105 Q2.7057,5.8268 2.5846,7.6644 T2.4007,11.9195 2.3044,17.0999 2.2532,22.3067 2.2263,26.5314 2.2121,30.2306 2.5637,34.4982 2.9987,39.0708 3.0877,42.4542 3.034,44.1114 2.7502,45.0597 2.1784,45.8677 1.3786,46.4509 0.4344,46.7481 -0.5552,46.7283 -1.4867,46.3935 -2.2626,45.7788 -2.8016,44.9486 -3.0472,43.9897 -2.9738,43.0026 -2.589,42.0906 -1.9332,41.3492 -1.075,40.856 -0.1042,40.6627 0.8775,40.7895 1.7673,41.2231 2.4721,41.9181 2.9181,42.8018 3.0585,43.7817 2.8787,44.755 2.3975,45.6201 1.6653,46.2861 0.7587,46.6835 -0.2273,46.7706 -1.1895,46.5384 -2.0272,46.011 -2.6526,45.2438 -3.0003,44.317 -3.0981,43.8256 -3.2294,41.6783 -3.549,37.6038 -4.0006,33.9111 -4.2581,30.2106 -4.2418,26.4883 -4.2107,22.2399 -4.1519,16.9694 -4.0396,11.6122 -3.8277,7.0911 -3.44,2.9016 -3.0012,0.0889 -2.4087,-0.9872 -1.4496,-1.7547 -0.2697,-2.0967 0.9512,-1.9611 2.0274,-1.3686 2.7948,-0.4094 3.1367,0.7705 3.1903,1.3943 2.948,3.6105 Z" fill="#1d1d1d" stroke-linecap="round" transform="matrix(1, 0, 0, 1, 766.36, 277.7396)" opacity="1"/><path d="M3.2131,1.6121 Q3.6669,3.8368 3.9262,5.5835 T4.9583,10.5846 5.7807,14.1621 5.801,14.8107 5.6655,15.4453 5.382,16.0291 4.9671,16.528 4.4448,16.9132 3.8455,17.1621 3.2041,17.2605 2.5578,17.2024 1.9441,16.9913 1.3988,16.6396 0.9535,16.1675 0.6342,15.6026 0.4553,13.0904 0.6185,8.8475 1.5854,5.2035 3.9484,1.2549 7.0142,-2.0107 10.415,-3.7926 14.7368,-5.1442 17.5289,-5.6703 18.3522,-5.5915 19.1072,-5.2538 19.7149,-4.6928 20.1116,-3.9671 20.2559,-3.1527 20.1325,-2.3349 19.7544,-1.5992 19.1613,-1.0228 18.4152,-0.666 17.5941,-0.5661 16.7842,-0.7336 16.0701,-1.151 15.5267,-1.7745 15.2109,-2.5389 15.1556,-3.3641 15.3668,-4.1638 15.8222,-4.8542 16.4742,-5.363 17.2546,-5.637 18.0816,-5.6474 18.8687,-5.3932 19.5334,-4.9011 20.0061,-4.2224 20.2374,-3.4283 20.203,-2.602 19.9066,-1.8298 19.3791,-1.1928 18.6758,-0.7575 18.2889,-0.5976 17.1953,-0.2993 14.4102,0.6517 11.1681,2.0527 8.466,4.4701 6.5211,8.2814 5.7294,12.1313 5.7807,14.1621 5.801,14.8107 5.6655,15.4453 5.382,16.0291 4.9671,16.528 4.4448,16.9132 3.8455,17.1621 3.2041,17.2605 2.5578,17.2024 1.9441,16.9913 1.3988,16.6396 0.9535,16.1675 0.6342,15.6026 0.086,13.257 -1.018,8.1203 -2.2293,2.8199 -2.7716,0.0612 -2.584,-1.0041 -2.003,-1.9166 -1.1171,-2.5372 -0.0611,-2.7716 1.0042,-2.584 1.9167,-2.0029 2.5373,-1.117 2.7594,-0.6124 3.2131,1.6121 Z" fill="#1d1d1d" stroke-linecap="round" transform="matrix(1, 0, 0, 1, 778.8523, 298.56)" opacity="1"/><path d="M-1.942,2.6359 Q-3.4072,2.4065 -5.104,3.8399 T-7.6172,7.5775 -8.5567,11.9195 -7.3007,12.8495 -4.5192,9.9337 -2.6326,5.9473 -0.7176,1.6111 2.5964,0.8521 5.9961,5.0979 9.0735,9.8449 10.8591,12.1595 11.1644,13.0388 11.1728,13.9696 10.8837,14.8543 10.3271,15.6004 9.5615,16.1297 8.6669,16.3868 7.737,16.3448 6.8693,16.0081 6.1544,15.412 5.6674,14.6188 5.4591,13.7116 5.5514,12.7854 5.9347,11.9371 6.5687,11.2556 7.3871,10.8123 8.3043,10.6535 9.2241,10.7959 10.0503,11.2245 10.6965,11.8945 11.0948,12.7358 11.2037,13.6602 11.0117,14.571 10.5389,15.3728 9.8348,15.9816 8.9732,16.3338 8.0443,16.3924 7.1452,16.1513 6.3703,15.6358 6.0253,15.3148 5.1181,14.129 3.208,11.5483 1.0469,7.5359 1.5895,4.7219 2.5548,7.6282 -0.2368,13.4539 -4.1968,17.5911 -8.131,19.2358 -11.8065,18.4254 -14.142,14.4896 -14.5002,9.7857 -13.5641,6.2177 -12.2215,2.9955 -10.0148,-0.0924 -5.526,-2.5537 -1.0143,-3.1278 1.0069,-2.665 1.9501,-2.0768 2.5964,-1.1724 2.8474,-0.0895 2.6649,1.007 2.0767,1.9502 1.1722,2.5965 0.0893,2.8474 -0.4769,2.8652 -1.942,2.6359 Z" fill="#1d1d1d" stroke-linecap="round" transform="matrix(1, 0, 0, 1, 814.247, 296.478)" opacity="1"/><path d="M3.2821,2.1586 Q3.4871,4.6245 3.8315,7.0861 T4.3755,11.1555 5.2766,14.2473 6.0476,16.087 6.0997,16.8043 5.9786,17.5132 5.6913,18.1725 5.2546,18.7439 4.6939,19.1942 4.0416,19.4972 3.3358,19.6354 2.6175,19.6005 1.9283,19.3948 1.3085,19.0302 0.7939,18.5277 0.4145,17.9168 0.093,15.9423 0.2257,11.5565 1.8155,5.9095 4.2716,1.8203 8.1427,0.2315 12.2184,0.6751 14.7015,3.2965 16.5078,6.9171 17.7848,12.2197 18.5587,18.6668 18.701,22.1659 18.4421,23.1337 17.8876,23.9681 17.0957,24.5819 16.1494,24.9106 15.1476,24.9199 14.1952,24.6089 13.3921,24.01 12.8222,23.1861 12.5452,22.2233 12.5902,21.2225 12.9524,20.2884 13.5939,19.5188 14.4475,18.9944 15.4239,18.77 16.4208,18.8692 17.3339,19.2815 18.0675,19.9637 18.5449,20.8445 18.716,21.8316 18.563,22.8217 18.1019,23.7111 17.3809,24.4067 16.4755,24.8356 15.4806,24.953 14.5002,24.7466 13.6371,24.2379 12.9816,23.4803 12.6024,22.553 12.4888,22.0587 12.3072,19.1731 11.7341,13.591 10.405,8.0615 8.3723,6.5518 6.6658,10.1173 6.0163,14.0453 6.0476,16.087 6.0997,16.8043 5.9786,17.5132 5.6913,18.1725 5.2546,18.7439 4.6939,19.1942 4.0416,19.4972 3.3358,19.6354 2.6175,19.6005 1.9283,19.3948 1.3085,19.0302 0.7939,18.5277 0.4145,17.9168 -0.121,16.9116 -1.0968,13.3268 -2.0965,7.821 -2.7902,2.7654 -3.0188,-0.2931 -2.6768,-1.4261 -1.9273,-2.3419 -0.8844,-2.9012 0.2932,-3.0188 1.4262,-2.6768 2.342,-1.9272 2.9013,-0.8842 3.0771,-0.3073 3.2821,2.1586 Z" fill="#1d1d1d" stroke-linecap="round" transform="matrix(1, 0, 0, 1, 827.7802, 293.3549)" opacity="1"/><path d="M-1.0546,2.7893 Q-2.5296,3.0519 -5.2365,4.0678 T-7.499,6.636 -4.8579,10.5094 -1.2911,14.4107 0.7262,17.5442 0.9408,20.7731 -0.8298,23.3946 -5.0785,24.8203 -9.933,24.7714 -13.5586,23.7119 -15.5997,23.0123 -16.2458,22.5688 -16.7165,21.9421 -16.9624,21.198 -16.9579,20.4143 -16.7033,19.673 -16.2254,19.0519 -15.5741,18.6159 -14.8178,18.4106 -14.0355,18.4576 -13.3091,18.752 -12.7148,19.2629 -12.3147,19.9368 -12.1507,20.7032 -12.2401,21.4818 -12.5734,22.1911 -13.1157,22.7569 -13.8103,23.1199 -14.5844,23.242 -15.3571,23.1106 -16.0473,22.7394 -16.5828,22.1672 -16.9076,21.454 -16.9877,20.6743 -16.8146,19.91 -16.4065,19.2409 -15.8062,18.7371 -15.0764,18.4514 -14.2935,18.4137 -13.8994,18.459 -11.0902,19.2261 -5.9851,19.6042 -4.8731,17.9081 -8.7487,13.9705 -12.5294,9.7348 -13.8229,6.4491 -12.1066,2.4651 -8.4102,-0.5842 -5.0089,-1.6992 -1.9016,-2.2974 0.079,-2.5109 1.0339,-2.2895 1.8314,-1.7196 2.3501,-0.8878 2.5109,0.0792 2.2895,1.0341 1.7195,1.8315 0.8877,2.3501 0.4203,2.5267 -1.0546,2.7893 Z" fill="#1d1d1d" stroke-linecap="round" transform="matrix(1, 0, 0, 1, 865.257, 289.1908)" opacity="1"/><path d="M-1.1632,3.452 Q-2.6452,4.1822 -4.69,5.3052 T-8.1896,8.6142 -9.9785,13.6768 -10.3512,18.2941 -10.4141,23.4271 -10.206,28.6552 -8.7728,34.0209 -7.4915,38.0295 -7.4877,38.9871 -7.7898,39.8958 -8.3663,40.6604 -9.1567,41.2009 -10.0784,41.4608 -11.0348,41.4127 -11.9258,41.0618 -12.658,40.4447 -13.1549,39.6261 -13.3644,38.6917 -13.2646,37.7394 -12.8659,36.8687 -12.2101,36.171 -11.3658,35.7192 -10.4214,35.5606 -9.4758,35.7119 -8.6281,36.1572 -7.9669,36.8499 -7.5615,37.7174 -7.4543,38.669 -7.6566,39.605 -8.1472,40.4274 -8.8747,41.05 -9.763,41.4078 -10.7189,41.4632 -11.6426,41.2105 -12.4372,40.6761 -13.0195,39.9159 -13.2482,39.4885 -13.9535,37.4776 -15.3662,33.3526 -16.3199,29.0131 -16.519,23.335 -16.4209,18.0501 -16.0558,13.3183 -14.6497,8.025 -11.7811,3.5124 -7.6757,0.0817 -3.873,-1.9762 -1.8262,-2.8782 -0.6649,-2.9599 0.4393,-2.5911 1.3183,-1.8277 1.8382,-0.786 1.9199,0.3753 1.551,1.4794 0.7876,2.3584 0.3186,2.7218 -1.1632,3.452 Z" fill="#1d1d1d" stroke-linecap="round" transform="matrix(1, 0, 0, 1, 889.2004, 273.5755)" opacity="1"/><path d="M2.7008,-2.723 Q4.6693,-2.9813 7.1559,-3.3512 T11.6309,-4.1382 15.9213,-5.0392 18.6204,-5.5426 19.4002,-5.454 20.1109,-5.121 20.6781,-4.5785 21.0423,-3.8833 21.1655,-3.1082 21.0348,-2.3343 20.6637,-1.6427 20.0913,-1.1057 19.3774,-0.7797 18.5967,-0.6987 17.8311,-0.8712 17.1606,-1.2791 16.6555,-1.8798 16.3686,-2.6104 16.33,-3.3943 16.5438,-4.1494 16.9874,-4.7968 17.6146,-5.2687 18.3596,-5.5155 19.1445,-5.5116 19.8869,-5.2572 20.5093,-4.7791 20.9465,-4.1273 21.1526,-3.37 21.1061,-2.5865 20.8119,-1.8589 20.3008,-1.2634 19.6262,-0.8622 19.2564,-0.7169 16.9595,-0.2117 12.5226,0.7643 7.8369,1.6162 3.3193,2.2311 0.8644,2.4299 -0.0521,2.1777 -0.8024,1.5939 -1.2721,0.7675 -1.3899,-0.1757 -1.1376,-1.0923 -0.5539,-1.8425 0.2726,-2.3122 0.7324,-2.4648 2.7008,-2.723 Z" fill="#1d1d1d" stroke-linecap="round" transform="matrix(1, 0, 0, 1, 868.38, 299.601)" opacity="1"/><path d="M0.439,3.181 Q-0.5178,5.1427 -0.4894,7.1799 T1.7329,9.1145 3.2615,6.7479 0.1873,4.1431 -2.6591,3.7072 -3.4805,3.3826 -4.1552,2.8128 -4.6126,2.0574 -4.8049,1.1954 -4.7119,0.3172 -4.3433,-0.4854 -3.7377,-1.1282 -2.9586,-1.544 -2.0875,-1.6893 -1.2156,-1.5488 -0.4342,-1.1373 0.1749,-0.4978 0.5479,0.3027 0.6457,1.1804 0.4582,2.0434 0.0049,2.8014 -0.6667,3.3749 -1.4862,3.7039 -2.3679,3.7541 -3.2195,3.5201 -3.9517,3.0264 -4.488,2.3247 -4.7722,1.4886 -4.7745,0.6054 -4.4947,-0.2322 -3.962,-0.9366 -3.2324,-1.4341 -2.382,-1.6726 -1.9377,-1.7221 -0.7547,-1.6925 2.0361,-1.4897 5.0873,-0.4897 7.8441,1.6947 9.8223,6.3107 9.5577,10.8915 7.1826,13.1896 3.4445,14.709 -0.4329,14.7283 -3.6356,12.8414 -5.7905,9.3148 -5.917,4.9441 -4.4914,0.7591 -3.1497,-1.639 -2.3619,-2.3216 -1.3728,-2.6508 -0.333,-2.5763 0.5991,-2.1097 1.2817,-1.3218 1.6108,-0.3327 1.5363,0.7071 1.3957,1.2195 0.439,3.181 Z" fill="#1d1d1d" stroke-linecap="round" transform="matrix(1, 0, 0, 1, 898.5696, 297.519)" opacity="1"/><path d="M3.4689,0.875 Q3.9157,2.6122 4.395,5.1094 T5.3454,9.8347 6.3128,13.6292 7.3973,16.5382 8.0478,18.2253 8.0886,18.9194 7.962,19.6031 7.6754,20.2366 7.2456,20.7832 6.6975,21.211 6.0629,21.4952 5.3787,21.6192 4.6848,21.5759 4.0213,21.3678 3.427,21.007 2.9363,20.5144 2.5777,19.9187 2.281,17.5746 2.1371,12.5366 3.0652,7.5541 6.0308,3.3173 9.3057,-0.0197 10.9246,-1.3455 11.7682,-1.7205 12.6875,-1.8064 13.586,-1.5944 14.3699,-1.1065 14.9568,-0.3939 15.2855,0.4689 15.3216,1.3914 15.0611,2.2772 14.5315,3.0334 13.7881,3.5809 12.9088,3.8624 11.9856,3.8484 11.1153,3.5403 10.3889,2.9704 9.8825,2.1985 9.6491,1.3052 9.7131,0.3842 10.0679,-0.4682 10.6763,-1.1626 11.4745,-1.6265 12.3791,-1.8111 13.2953,-1.6973 14.1272,-1.2968 14.7877,-0.6517 15.2076,0.1705 15.343,1.0838 15.1796,1.9925 14.7347,2.8014 14.4462,3.1692 13.2777,4.3022 10.7237,7.0292 8.7374,10.8076 8.0608,15.4366 8.0478,18.2253 8.0886,18.9194 7.962,19.6031 7.6754,20.2366 7.2456,20.7832 6.6975,21.211 6.0629,21.4952 5.3787,21.6192 4.6848,21.5759 4.0213,21.3678 3.427,21.007 2.9363,20.5144 2.5777,19.9187 1.8678,18.2518 0.761,15.1233 -0.3325,11.0846 -1.4169,6.5556 -2.485,2.5732 -3.072,0.2512 -2.9343,-0.9436 -2.3498,-1.9947 -1.4076,-2.7421 -0.251,-3.0721 0.9437,-2.9343 1.9948,-2.3497 2.7422,-1.4074 3.0221,-0.8621 3.4689,0.875 Z" fill="#1d1d1d" stroke-linecap="round" transform="matrix(1, 0, 0, 1, 914.1849, 293.3549)" opacity="1"/><path d="M3.5371,1.854 Q4.0248,4.3173 4.3052,6.7263 T4.9698,10.9493 5.7884,14.4061 6.2508,16.4291 6.2151,17.1851 5.9995,17.9105 5.6166,18.5633 5.0885,19.1055 4.446,19.5055 3.7265,19.7402 2.9717,19.7958 2.2255,19.6692 1.5314,19.3677 0.9295,18.9088 0.455,18.3192 0.1353,17.6332 0.3352,14.7093 1.6733,9.0317 4.3297,3.2468 9.0791,-0.7578 14.1309,1.0675 16.6372,6.6075 15.7199,8.1676 16.3057,4.9609 19.9911,1.3073 23.0536,-0.9218 26.4197,-2.3257 30.277,-2.023 33.3131,0.5575 34.9525,4.1173 36.0594,8.8478 36.6388,12.4017 36.4927,13.4692 36.0134,14.4342 35.2511,15.1957 34.2855,15.6739 33.2178,15.8187 32.1597,15.615 31.2221,15.0841 30.5031,14.2816 30.0779,13.2915 29.9912,12.2175 30.2519,11.1721 30.8329,10.2646 31.6731,9.5901 32.6848,9.2193 33.7619,9.1908 34.7917,9.5078 35.6664,10.1371 36.2943,11.0127 36.6098,12.0429 36.5798,13.12 36.2075,14.1311 35.5318,14.9704 34.6234,15.55 33.5776,15.8092 32.5037,15.7209 31.5143,15.2943 30.7128,14.5741 30.1833,13.6357 29.9956,13.1236 29.477,10.4679 28.9208,5.771 27.3051,4.5139 24.2867,6.4279 21.5037,8.733 17.7803,11.8843 12.9673,11.1453 10.8634,6.4213 9.9336,6.3672 7.9996,9.9512 6.7735,13.815 6.2508,16.4291 6.2151,17.1851 5.9995,17.9105 5.6166,18.5633 5.0885,19.1055 4.446,19.5055 3.7265,19.7402 2.9717,19.7958 2.2255,19.6692 1.5314,19.3677 0.9295,18.9088 0.455,18.3192 0.1353,17.6332 -0.401,15.6253 -1.2,11.9087 -1.819,7.6842 -2.5533,3.07 -3.0499,0.0026 -2.8187,-1.1648 -2.1584,-2.1548 -1.1695,-2.8168 -0.0025,-3.0499 1.1649,-2.8187 2.1549,-2.1583 2.8169,-1.1693 3.0494,-0.6091 3.5371,1.854 Z" fill="#1d1d1d" stroke-linecap="round" transform="matrix(1, 0, 0, 1, 932.9233, 292.3139)" opacity="1"/><path d="M2.9478,-3.0227 Q5.1712,-3.2025 6.8422,-3.2881 T10.2268,-5.0418 10.4857,-5.3412 7.1812,-2.1981 4.9356,1.8026 5.2819,5.7271 8.9235,7.1549 14.4903,6.3871 17.5615,5.8669 18.3552,5.9516 19.0804,6.2853 19.661,6.8332 20.0363,7.5377 20.167,8.3252 20.0394,9.1132 19.6668,9.8192 19.0884,10.3692 18.3645,10.7058 17.5711,10.7936 16.7912,10.6235 16.1064,10.2133 15.5885,9.6058 15.2917,8.8648 15.247,8.0678 15.4591,7.2983 15.9059,6.6367 16.5405,6.1525 17.2965,5.8962 18.0947,5.8948 18.8517,6.1483 19.488,6.6303 19.9372,7.2902 20.1521,8.059 20.1102,8.8561 19.8161,9.5982 19.3003,10.2075 18.6171,10.6202 18.242,10.7705 15.6153,11.4494 10.0532,12.7654 4.7934,12.7547 0.6818,9.3356 -1.1887,4.8505 -0.9099,1.1699 0.2386,-2.502 2.195,-5.4239 4.9721,-7.8045 9.5157,-9.7132 14.2617,-9.2652 16.1496,-5.948 14.2267,-1.6908 10.6475,1.1566 7.4213,2.045 3.5642,2.5308 0.7995,2.7951 -0.2518,2.4903 -1.1065,1.8064 -1.6344,0.8474 -1.7551,-0.2406 -1.4503,-1.292 -0.7663,-2.1466 0.1927,-2.6744 0.7246,-2.843 2.9478,-3.0227 Z" fill="#1d1d1d" stroke-linecap="round" transform="matrix(1, 0, 0, 1, 973.5231, 298.56)" opacity="1"/><path d="M3.8292,1.7957 Q4.2541,4.2715 4.4924,6.6956 T5.0538,11.1696 5.3661,13.6185 5.2494,14.4024 4.9485,15.1355 4.4809,15.7754 3.8738,16.2847 3.1624,16.634 2.3881,16.8028 1.5959,16.7814 0.8318,16.5711 0.1403,16.184 -0.4385,15.6426 -0.8709,14.9785 -1.1318,14.2302 -0.9751,11.3245 0.1881,6.0625 2.4931,1.8502 5.6105,-0.7247 9.2541,-2.4887 14.2546,-3.5059 18.9379,-3.9386 21.012,-3.9775 21.9399,-3.7624 22.7506,-3.2623 23.3592,-2.5295 23.7019,-1.6407 23.7428,-0.6891 23.4778,0.2258 22.9344,1.0082 22.1697,1.5761 21.2637,1.8702 20.3112,1.8595 19.412,1.5452 18.6602,0.9603 18.1346,0.166 17.8901,-0.7547 17.9523,-1.7052 18.3148,-2.586 18.9397,-3.305 19.7613,-3.7869 20.6939,-3.9811 21.6396,-3.8674 22.4995,-3.4577 23.1836,-2.7948 23.6202,-1.9483 23.7636,-1.0066 23.5988,-0.0684 23.1431,0.7681 22.4442,1.4152 21.5752,1.8053 21.1091,1.9291 18.2881,2.3683 13.2127,3.3923 8.7584,5.9972 5.9675,10.6184 5.3661,13.6185 5.2494,14.4024 4.9485,15.1355 4.4809,15.7754 3.8738,16.2847 3.1624,16.634 2.3881,16.8028 1.5959,16.7814 0.8318,16.5711 0.1403,16.184 -0.4385,15.6426 -0.8709,14.9785 -1.1318,14.2302 -1.4715,11.8468 -2.0063,7.7149 -2.8453,3.1283 -3.4049,0.0029 -3.1468,-1.3003 -2.4096,-2.4056 -1.3056,-3.1446 -0.0027,-3.4049 1.3005,-3.1467 2.4057,-2.4095 3.1447,-1.3054 3.4043,-0.68 3.8292,1.7957 Z" fill="#1d1d1d" stroke-linecap="round" transform="matrix(1, 0, 0, 1, 1000.5896, 290.2318)" opacity="1"/><path d="M1.8897,-3.9818 Q3.7794,-3.9829 6.2451,-3.9835 T11.8998,-3.983 19.0792,-3.9786 27.902,-3.9683 38.4307,-3.9496 50.6982,-3.9192 64.7221,-3.8732 80.5113,-3.8064 98.0709,-3.713 117.4032,-3.5853 138.5096,-3.4635 161.3908,-3.4179 186.0473,-3.4549 212.4792,-3.5388 240.6866,-3.6399 270.6695,-3.7338 303.3025,-3.8067 321.1126,-3.7367 322.2737,-3.3455 323.2491,-2.604 323.9367,-1.5898 324.2644,-0.4092 324.198,0.8142 323.7445,1.9524 322.9512,2.8862 321.9013,3.5178 320.7046,3.7811 319.4866,3.6485 318.3746,3.1339 317.4852,2.2912 316.9114,1.2086 316.7134,-0.0006 316.9118,-1.2096 317.4859,-2.2921 318.3756,-3.1345 319.4877,-3.6488 320.7058,-3.781 321.9023,-3.5174 322.952,-2.8855 323.745,-1.9515 324.1983,-0.8131 324.2643,0.4104 323.9362,1.5909 323.2484,2.6048 322.2727,3.346 321.1115,3.7369 320.4994,3.8372 303.3025,3.8067 270.6695,3.7338 240.6866,3.6399 212.4792,3.5388 186.0473,3.4549 161.3908,3.4179 138.5096,3.4635 117.4032,3.5853 98.0709,3.713 80.5113,3.8064 64.7221,3.8732 50.6982,3.9192 38.4307,3.9496 27.902,3.9683 19.0792,3.9786 11.8998,3.983 6.2451,3.9835 1.8897,3.9818 -0.7617,3.8291 -2.1691,3.2461 -3.2462,2.1689 -3.8291,0.7615 -3.829,-0.7619 -3.246,-2.1692 -2.1687,-3.2463 -0.7613,-3.8292 0.0002,-3.9806 1.8897,-3.9818 Z" fill="#1d1d1d" stroke-linecap="round" transform="matrix(1, 0, 0, 1, 730.1585, 349.8206)" opacity="1"/><path d="M-3.9109,-5.1504 Q-3.8862,-10.3008 -3.799,-19.453 T-3.7513,-42.4416 -3.8193,-71.694 -3.7469,-87.7243 -3.3546,-88.8886 -2.6111,-89.8666 -1.5942,-90.5561 -0.4103,-90.8847 0.8164,-90.8181 1.9577,-90.3633 2.8941,-89.5679 3.5274,-88.5151 3.7914,-87.3152 3.6584,-86.0938 3.1424,-84.9788 2.2974,-84.087 1.2119,-83.5117 -0.0006,-83.3131 -1.2129,-83.512 -2.2983,-84.0877 -3.1431,-84.9798 -3.6587,-86.0949 -3.7913,-87.3163 -3.527,-88.5161 -2.8933,-89.5687 -1.9568,-90.3639 -0.8153,-90.8184 0.4115,-90.8846 1.5952,-90.5556 2.6119,-89.8658 3.3551,-88.8876 3.7471,-87.7232 3.8476,-87.1094 3.8193,-71.694 3.7513,-42.4416 3.799,-19.453 3.9109,-5.1504 3.7857,0.753 3.2093,2.1445 2.1443,3.2094 0.7529,3.7857 -0.7532,3.7857 -2.1446,3.2092 -3.2095,2.1442 -3.7858,0.7527 -3.9355,-0.0002 -3.9109,-5.1504 Z" fill="#1d1d1d" stroke-linecap="round" transform="matrix(1, 0, 0, 1, 727.3025, 346.9646)" opacity="1"/><path d="M1.8947,-3.9818 Q3.7894,-3.9829 6.2616,-3.9835 T11.9314,-3.983 19.1298,-3.9786 27.976,-3.9683 38.5326,-3.9496 50.8327,-3.9192 64.8937,-3.8732 80.7249,-3.8064 98.3309,-3.713 117.7145,-3.5853 138.8769,-3.4635 161.8189,-3.4179 186.5407,-3.4549 213.0427,-3.5388 241.3249,-3.6399 271.3874,-3.7338 304.1068,-3.8067 321.9626,-3.7367 323.1237,-3.3455 324.0991,-2.604 324.7867,-1.5898 325.1144,-0.4092 325.048,0.8142 324.5945,1.9524 323.8012,2.8862 322.7513,3.5178 321.5546,3.7811 320.3366,3.6485 319.2246,3.1339 318.3352,2.2912 317.7614,1.2086 317.5634,-0.0006 317.7618,-1.2096 318.3359,-2.2921 319.2256,-3.1345 320.3377,-3.6488 321.5558,-3.781 322.7523,-3.5174 323.802,-2.8855 324.595,-1.9515 325.0483,-0.8131 325.1143,0.4104 324.7862,1.5909 324.0984,2.6048 323.1227,3.346 321.9615,3.7369 321.3494,3.8372 304.1068,3.8067 271.3874,3.7338 241.3249,3.6399 213.0427,3.5388 186.5407,3.4549 161.8189,3.4179 138.8769,3.4635 117.7145,3.5853 98.3309,3.713 80.7249,3.8064 64.8937,3.8732 50.8327,3.9192 38.5326,3.9496 27.976,3.9683 19.1298,3.9786 11.9314,3.983 6.2616,3.9835 1.8947,3.9818 -0.7617,3.8291 -2.1691,3.2461 -3.2462,2.1689 -3.8291,0.7615 -3.829,-0.7619 -3.246,-2.1692 -2.1687,-3.2463 -0.7613,-3.8292 0.0002,-3.9806 1.8947,-3.9818 Z" fill="#1d1d1d" stroke-linecap="round" transform="matrix(1, 0, 0, 1, 727.3025, 255.5719)" opacity="1"/><path d="M-3.0492,-1.3404 Q-2.9682,-2.6808 -3.3436,-5.3141 T-3.9718,-9.5065 -4.2264,-11.4052 -4.1487,-12.0749 -3.913,-12.7065 -3.5329,-13.2633 -3.0307,-13.713 -2.4354,-14.0295 -1.7816,-14.1942 -1.1075,-14.1978 -0.4521,-14.0399 0.1465,-13.7297 0.6535,-13.2853 1.0393,-12.7325 1.2817,-12.1034 1.4937,-9.7159 1.7138,-3.089 1.7983,10.7758 1.8997,34.5781 2.081,65.2479 2.0602,81.984 1.6942,83.0684 1.0011,83.9792 0.0535,84.621 -1.0495,84.9266 -2.1923,84.864 -3.2553,84.4397 -4.1272,83.6983 -4.7166,82.7173 -4.962,81.5994 -4.8376,80.4617 -4.3564,79.4232 -3.5688,78.5928 -2.5573,78.0573 -1.4277,77.8729 -0.2984,78.0588 0.7124,78.5956 1.499,79.427 1.9788,80.4661 2.1018,81.604 1.8549,82.7215 1.2642,83.7018 0.3913,84.4421 -0.6722,84.865 -1.8151,84.9261 -2.9176,84.619 -3.8644,83.976 -4.5564,83.0644 -4.9209,81.9795 -5.0143,81.4077 -4.9249,65.2444 -4.7129,34.5716 -4.5696,10.7532 -4.3867,-4.8109 -4.2264,-11.4052 -4.1487,-12.0749 -3.913,-12.7065 -3.5329,-13.2633 -3.0307,-13.713 -2.4354,-14.0295 -1.7816,-14.1942 -1.1075,-14.1978 -0.4521,-14.0399 0.1465,-13.7297 0.6535,-13.2853 1.0393,-12.7325 1.2817,-12.1034 1.7185,-8.9593 2.5203,-4.4327 3.0492,-1.3604 3.011,0.5989 2.5525,1.7056 1.7055,2.5526 0.5988,3.011 -0.5991,3.0109 -1.7057,2.5525 -2.5527,1.7054 -3.011,0.5986 -3.1301,-0.0002 -3.0492,-1.3404 Z" fill="#1d1d1d" stroke-linecap="round" transform="matrix(1, 0, 0, 1, 1050.0331, 265.568)" opacity="1"/><path d="M-3.1186,2.8244 Q-4.8072,2.8495 -6.8248,2.8076 T-9.7088,4.7796 -10.3422,8.775 -7.8547,10.1104 -4.138,7.5192 -1.6502,3.7387 1.5106,0.7363 4.8403,0.7987 6.3236,3.7482 6.6982,7.2402 6.4706,10.8734 5.6623,14.9581 4.1919,19.8557 2.4063,24.8515 0.6948,28.6854 -1.5352,31.4911 -4.4933,33.5688 -7.7499,34.7263 -11.0346,34.8677 -14.1605,33.5431 -16.5958,31.5614 -17.852,30.3212 -18.3022,29.545 -18.481,28.6657 -18.3697,27.7754 -17.9799,26.9672 -17.3525,26.3257 -16.5531,25.9182 -15.6654,25.7873 -14.7824,25.9467 -13.9965,26.3797 -13.39,27.041 -13.0264,27.8613 -12.9438,28.7548 -13.1508,29.6279 -13.6258,30.3891 -14.3189,30.9589 -15.1578,31.2775 -16.0544,31.3116 -16.915,31.0576 -17.6494,30.542 -18.1808,29.819 -18.4534,28.9642 -18.4389,28.067 -18.1386,27.2215 -17.584,26.5161 -16.8333,26.0247 -15.9649,25.7987 -15.0698,25.8619 -14.2418,26.2075 -13.8564,26.4479 -12.1226,27.9057 -8.4859,28.9393 -5.0956,26.8993 -2.7534,22.9462 -1.0002,18.2915 0.6759,12.5919 1.0918,6.5866 2.2626,4.3822 2.788,6.6801 0.849,9.9616 -1.2873,12.6971 -4.1086,15.0264 -8.8011,15.909 -14.0301,13.4926 -16.1572,8.0506 -15.4989,3.2948 -13.8152,0.3803 -11.1898,-1.8414 -7.2119,-2.8076 -3.1186,-2.8244 -0.8943,-2.6928 0.0954,-2.2828 0.8529,-1.5253 1.2628,-0.5355 1.2628,0.5358 0.8528,1.5255 0.0952,2.283 -0.8946,2.6929 -1.4301,2.7994 -3.1186,2.8244 Z" fill="#1d1d1d" stroke-linecap="round" transform="matrix(1, 0, 0, 1, 1671.2181, 274.136)" opacity="1"/><path d="M-0.2512,3.3494 Q-1.9083,4.3534 -3.7789,6.7809 T-5.3286,11.2051 -2.5308,12.6511 0.503,10.039 0.5509,6.0405 -0.9696,3.9927 -2.358,3.7296 -3.0437,3.3129 -3.5605,2.6991 -3.8542,1.9524 -3.894,1.1509 -3.676,0.3788 -3.2227,-0.2834 -2.5818,-0.7661 -1.8202,-1.0189 -1.0178,-1.0153 -0.2586,-0.7557 0.378,-0.2672 0.8253,0.3989 1.0365,1.1731 0.9894,1.9741 0.689,2.7181 0.1667,3.3273 -0.5227,3.7378 -1.3071,3.9068 -2.1044,3.8163 -2.8311,3.4761 -3.4111,2.9216 -3.7836,2.2109 -3.9098,1.4185 -3.7763,0.6273 -3.3971,-0.0799 -2.812,-0.629 -2.0822,-0.9625 -1.2841,-1.0455 -0.8787,-1.0217 1.3637,-0.4014 4.8409,1.7926 6.3974,5.0753 6.2609,9.4039 5.0426,13.5561 2.8309,16.2001 -1.1239,17.9473 -6.6026,17.4894 -10.5111,14.7177 -11.4538,11.0442 -9.7405,6.2181 -6.4317,1.5417 -3.1261,-1.325 -0.9036,-2.5252 0.1315,-2.6788 1.1467,-2.4245 1.9872,-1.8011 2.5253,-0.9035 2.6788,0.1317 2.4245,1.1468 1.801,1.9873 1.4058,2.3455 -0.2512,3.3494 Z" fill="#1d1d1d" stroke-linecap="round" transform="matrix(1, 0, 0, 1, 1695.4943, 276.992)" opacity="1"/><path d="M-1.1555,2.9106 Q-2.8246,3.257 -4.889,4.9037 T-7.9658,8.2736 -7.0992,11.1083 -3.2537,11.5292 -0.2927,9.1431 0.1934,5.6846 -1.1129,2.6183 -2.0706,0.9753 -2.2737,0.2631 -2.2386,-0.4767 -1.9692,-1.1666 -1.4937,-1.7343 -0.8617,-2.1204 -0.1395,-2.2846 0.5973,-2.2095 1.2716,-1.9031 1.8127,-1.3975 2.164,-0.7455 2.2888,-0.0155 2.1739,0.7162 1.8314,1.3728 1.2972,1.8858 0.6271,2.2012 -0.1086,2.2863 -0.8329,2.1319 -1.4701,1.7543 -1.9533,1.1931 -2.232,0.5069 -2.277,-0.2323 -2.0836,-0.9472 -1.6721,-1.563 -1.0855,-2.0151 -0.3852,-2.2562 0.3554,-2.2611 1.0587,-2.0292 1.6513,-1.5849 1.9109,-1.3145 2.843,-0.1038 4.8088,2.6186 5.6792,6.8082 4.7525,11.0812 2.7012,13.9884 -0.3639,16.2229 -4.3871,17.2558 -9.4052,15.7304 -13.077,12.5898 -13.8769,9.3685 -12.2443,5.1827 -9.259,1.3829 -5.8683,-0.9259 -2.2217,-2.2342 -0.0034,-2.5649 0.9785,-2.3709 1.8113,-1.816 2.3684,-0.9845 2.5649,-0.0032 2.3708,0.9786 1.8159,1.8114 0.9844,2.3684 0.5134,2.5642 -1.1555,2.9106 Z" fill="#1d1d1d" stroke-linecap="round" transform="matrix(1, 0, 0, 1, 1719.7705, 276.992)" opacity="1"/><path d="M2.4667,2.7658 Q2.1444,5.1328 1.9901,7.6266 T1.7442,12.4594 1.6037,16.7095 -0.2882,21.761 -3.5024,23.6612 -6.6024,21.5107 -10.259,20.7067 -13.5071,22.2045 -14.0579,25.0863 -11.3518,26.9481 -7.2792,26.7565 -3.1461,25.0653 1.076,25.868 4.088,28.8963 5.0499,30.3525 5.2761,31.1076 5.2494,31.8954 4.9725,32.6335 4.4744,33.2445 3.8073,33.6645 3.041,33.8495 2.2558,33.7801 1.5338,33.4636 0.9507,32.9331 0.5675,32.2443 0.4243,31.4691 0.5361,30.6888 0.8913,29.985 1.4526,29.4315 2.1612,29.0862 2.943,28.9852 3.7161,29.1392 4.3996,29.5319 4.9219,30.1224 5.2283,30.8487 5.2867,31.6348 5.0911,32.3984 4.6619,33.0596 4.044,33.5491 3.3021,33.8157 2.514,33.8315 1.7621,33.5948 1.1251,33.1304 0.8449,32.8462 -1.0322,31.5681 -4.3949,30.9592 -7.7271,32.0038 -11.8303,32.2172 -16.6078,29.8868 -19.6712,24.8175 -19.3006,19.9703 -15.8334,16.6073 -10.0308,15.1212 -5.25,15.5682 -2.8687,17.6033 -3.1072,18.7975 -4.1441,16.5225 -3.9977,12.1492 -3.6993,7.0269 -3.1431,1.9642 -2.6066,-0.9173 -2.0571,-1.845 -1.1944,-2.4918 -0.1499,-2.7592 0.9175,-2.6065 1.8451,-2.057 2.4919,-1.1943 2.7592,-0.1497 2.789,0.399 2.4667,2.7658 Z" fill="#1d1d1d" stroke-linecap="round" transform="matrix(1, 0, 0, 1, 1755.4708, 258.4279)" opacity="1"/><path d="M2.8141,1.6095 Q3.1874,3.6263 3.9185,5.4795 T6.2075,5.4981 10.4339,1.1101 14.7479,0.6836 16.2264,5.9885 15.5398,11.0003 13.6074,15.0726 10.772,19.0996 6.9098,22.339 2.1453,25.0938 -0.5502,26.542 -1.3185,26.7045 -2.0985,26.6132 -2.8085,26.2776 -3.3742,25.7328 -3.7363,25.0359 -3.857,24.2599 -3.7235,23.486 -3.3499,22.7952 -2.7753,22.2599 -2.0598,21.9361 -1.2784,21.8577 -0.5129,22.0329 0.1566,22.4434 0.66,23.0461 0.9446,23.7781 0.9805,24.5626 0.7641,25.3175 0.318,25.9638 -0.3112,26.4338 -1.0575,26.6783 -1.8428,26.6717 -2.5849,26.4147 -3.2061,25.9341 -3.6413,25.2804 -3.845,24.522 -3.7958,23.7382 -3.4989,23.0111 -2.9855,22.4169 -2.6803,22.1621 -0.4163,20.7561 3.527,18.3684 6.4743,15.8433 9.3244,11.3307 11.6168,5.6432 12.2089,4.7327 10.2772,8.6301 6.5726,11.359 2.9411,11.353 0.2434,9.2348 -1.2744,6.1214 -2.1377,2.4441 -2.4258,-0.0753 -2.2124,-0.9979 -1.6621,-1.7686 -0.8587,-2.27 0.0754,-2.4258 0.998,-2.2123 1.7687,-1.662 2.2701,-0.8586 2.4408,-0.4072 2.8141,1.6095 Z" fill="#1d1d1d" stroke-linecap="round" transform="matrix(1, 0, 0, 1, 1588.3934, 342.6806)" opacity="1"/><path d="M1.6116,-2.8277 Q3.644,-3.1332 5.4957,-3.2878 T9.7309,-0.7024 10.578,3.9147 9.0842,7.4923 9.0888,12.4766 7.4049,17.2012 3.3116,19.3709 -1.3787,20.6768 -4.069,21.2883 -4.9512,21.2129 -5.7631,20.8597 -6.4198,20.2657 -6.8524,19.4931 -7.0157,18.6229 -6.8926,17.746 -6.4959,16.9544 -5.8672,16.3309 -5.0724,15.9408 -4.1945,15.8249 -3.3257,15.9954 -2.5567,16.4343 -1.9682,17.0959 -1.6217,17.9107 -1.5535,18.7936 -1.7708,19.6519 -2.2509,20.396 -2.9433,20.9478 -3.7757,21.2496 -4.661,21.2698 -5.5063,21.0063 -6.2232,20.4867 -6.7367,19.7653 -6.993,18.9178 -6.9652,18.0328 -6.6563,17.2029 -6.0985,16.5152 -5.3504,16.0416 -4.9379,15.8662 -1.0915,15.0857 3.863,13.1206 3.5453,9.7934 3.4274,5.1646 6.2316,2.0275 6.0958,1.5785 2.442,2.1513 -0.0778,2.5067 -1.0312,2.2861 -1.8276,1.7175 -2.3457,0.8873 -2.5067,-0.0779 -2.2861,-1.0313 -1.7174,-1.8276 -0.8872,-2.3457 -0.4207,-2.5222 1.6116,-2.8277 Z" fill="#1d1d1d" stroke-linecap="round" transform="matrix(1, 0, 0, 1, 1608.3856, 356.9607)" opacity="1"/><path d="M2.93,1.9656 Q3.3249,4.2937 4.7374,6.4502 T8.1808,6.889 12.5533,3.9876 15.7823,5.0121 16.435,10.8477 15.6867,16.6693 14.4592,20.5797 12.3877,23.552 9.4812,25.6823 5.5548,26.4138 1.3448,25.9562 -0.9208,25.4902 -1.7156,25.058 -2.3308,24.3946 -2.702,23.5694 -2.7903,22.669 -2.5864,21.7875 -2.1118,21.0172 -1.416,20.4389 -0.572,20.113 0.3319,20.0736 1.2011,20.325 1.9445,20.8407 2.4843,21.5668 2.764,22.4272 2.7543,23.3319 2.4562,24.1862 1.901,24.9005 1.1467,25.4002 0.2724,25.6329 -0.6305,25.5742 -1.4673,25.2302 -2.1505,24.6371 -2.6086,23.8569 -2.7935,22.9712 -2.686,22.0728 -2.2972,21.2559 -1.6679,20.6058 -0.864,20.1907 0.0304,20.054 0.4883,20.0589 2.3188,20.3842 5.9095,20.5487 8.7775,18.9859 10.3682,15.6261 11.2441,10.3671 13.069,7.7445 13.4557,9.7628 10.9417,12.2312 7.4347,13.6552 2.6795,11.5746 -1.0051,7.1825 -2.2536,2.7644 -2.508,-0.1364 -2.2649,-1.0858 -1.6769,-1.8699 -0.8337,-2.3693 0.1365,-2.508 1.0859,-2.2648 1.87,-1.6769 2.3693,-0.8336 2.5351,-0.3624 2.93,1.9656 Z" fill="#1d1d1d" stroke-linecap="round" transform="matrix(1, 0, 0, 1, 1702.6343, 331.2565)" opacity="1"/><path d="M2.4185,3.3194 Q2.3993,5.2088 4.2631,6.3322 T7.8193,7.406 11.822,7.1064 17.4491,5.9213 21.1271,4.9381 21.8455,4.9599 22.5194,5.2099 23.0781,5.6619 23.4633,6.2688 23.6345,6.9668 23.5739,7.683 23.2877,8.3423 22.806,8.8758 22.1792,9.2275 21.4729,9.3606 20.7611,9.2613 20.1182,8.9398 19.6117,8.4299 19.2944,7.785 19.1998,7.0725 19.3375,6.3671 19.6934,5.7426 20.23,5.2644 20.8911,4.9826 21.6077,4.9267 22.3046,5.1025 22.9089,5.4916 23.3573,6.0533 23.6029,6.7288 23.6199,7.4474 23.4066,8.1337 22.9853,8.7161 22.4001,9.1334 22.0736,9.2939 20.2459,9.892 16.5798,11.0769 12.0679,12.0331 6.7541,12.2447 2.1053,10.9757 -1.1515,7.8114 -2.4185,3.5942 -2.3449,0.9635 -1.9879,0.1017 -1.3282,-0.558 -0.4663,-0.915 0.4666,-0.9149 1.3284,-0.5579 1.9881,0.1019 2.345,0.9638 2.4377,1.4301 2.4185,3.3194 Z" fill="#1d1d1d" stroke-linecap="round" transform="matrix(1, 0, 0, 1, 1728.3385, 344.1086)" opacity="1"/><path d="M2.344,3.4568 Q2.4051,5.4836 2.4457,7.229 T2.1487,11.1213 1.6423,14.8752 0.8938,19.2433 -0.1578,23.4685 -0.7923,25.2717 -1.2172,25.88 -1.8141,26.3208 -2.5206,26.5479 -3.2625,26.5376 -3.9623,26.2909 -4.5467,25.8336 -4.9545,25.2137 -5.143,24.496 -5.0925,23.7558 -4.8082,23.0703 -4.32,22.5116 -3.6789,22.138 -2.952,21.9887 -2.2155,22.0792 -1.5465,22.4002 -1.0151,22.918 -0.6768,23.5784 -0.567,24.3123 -0.6974,25.0428 -1.0542,25.6934 -1.6,26.196 -2.2778,26.4981 -3.0165,26.5678 -3.7388,26.3981 -4.3692,26.0066 -4.8415,25.4343 -5.1063,24.7412 -5.136,23.9998 -5.0902,23.6269 -4.6983,22.1396 -3.9228,18.3033 -3.3515,14.1765 -2.8251,10.68 -2.4457,7.2226 -2.344,3.4568 -2.1961,0.9932 -1.8617,0.186 -1.2439,-0.4318 -0.4367,-0.7661 0.437,-0.7661 1.2441,-0.4317 1.8619,0.1862 2.1961,0.9934 2.283,1.4301 2.344,3.4568 Z" fill="#1d1d1d" stroke-linecap="round" transform="matrix(1, 0, 0, 1, 1741.1906, 342.6806)" opacity="1"/></svg>