<svg width="1790" height="261" viewBox="0 0 1790 261" fill="none" xmlns="http://www.w3.org/2000/svg">
<rect x="627" y="127" width="475" height="134" fill="#313131"/>
<path d="M751.776 183.034V179.909H773.594V183.034H764.446V209H760.923V183.034H751.776ZM776.31 209V187.182H779.549V190.477H779.776C780.174 189.398 780.894 188.522 781.935 187.849C782.977 187.177 784.151 186.841 785.458 186.841C785.704 186.841 786.012 186.846 786.381 186.855C786.751 186.865 787.03 186.879 787.219 186.898V190.307C787.106 190.278 786.845 190.236 786.438 190.179C786.04 190.113 785.619 190.08 785.174 190.08C784.113 190.08 783.166 190.302 782.333 190.747C781.509 191.183 780.856 191.789 780.373 192.565C779.899 193.332 779.663 194.208 779.663 195.193V209H776.31ZM797.614 209.511C796.231 209.511 794.976 209.251 793.849 208.73C792.723 208.2 791.828 207.438 791.165 206.443C790.502 205.439 790.17 204.227 790.17 202.807C790.17 201.557 790.417 200.544 790.909 199.767C791.402 198.981 792.06 198.366 792.884 197.92C793.707 197.475 794.616 197.144 795.611 196.926C796.615 196.699 797.623 196.519 798.636 196.386C799.962 196.216 801.037 196.088 801.861 196.003C802.694 195.908 803.3 195.752 803.679 195.534C804.067 195.316 804.261 194.937 804.261 194.398V194.284C804.261 192.883 803.878 191.794 803.111 191.017C802.353 190.241 801.203 189.852 799.659 189.852C798.059 189.852 796.804 190.203 795.895 190.903C794.986 191.604 794.347 192.352 793.977 193.148L790.795 192.011C791.364 190.686 792.121 189.653 793.068 188.915C794.025 188.167 795.066 187.646 796.193 187.352C797.33 187.049 798.447 186.898 799.545 186.898C800.246 186.898 801.051 186.983 801.96 187.153C802.879 187.314 803.764 187.651 804.616 188.162C805.478 188.673 806.193 189.445 806.761 190.477C807.33 191.509 807.614 192.892 807.614 194.625V209H804.261V206.045H804.091C803.864 206.519 803.485 207.026 802.955 207.565C802.424 208.105 801.719 208.564 800.838 208.943C799.957 209.322 798.883 209.511 797.614 209.511ZM798.125 206.5C799.451 206.5 800.568 206.24 801.477 205.719C802.396 205.198 803.087 204.526 803.551 203.702C804.025 202.878 804.261 202.011 804.261 201.102V198.034C804.119 198.205 803.807 198.361 803.324 198.503C802.85 198.635 802.301 198.754 801.676 198.858C801.061 198.953 800.459 199.038 799.872 199.114C799.295 199.18 798.826 199.237 798.466 199.284C797.595 199.398 796.78 199.582 796.023 199.838C795.275 200.084 794.669 200.458 794.205 200.96C793.75 201.453 793.523 202.125 793.523 202.977C793.523 204.142 793.954 205.023 794.815 205.619C795.687 206.206 796.79 206.5 798.125 206.5ZM817.085 195.875V209H813.732V187.182H816.971V190.591H817.255C817.766 189.483 818.543 188.593 819.585 187.92C820.626 187.239 821.971 186.898 823.619 186.898C825.096 186.898 826.388 187.201 827.496 187.807C828.604 188.403 829.466 189.312 830.082 190.534C830.697 191.746 831.005 193.28 831.005 195.136V209H827.653V195.364C827.653 193.65 827.208 192.314 826.317 191.358C825.427 190.392 824.206 189.909 822.653 189.909C821.583 189.909 820.626 190.141 819.783 190.605C818.95 191.069 818.292 191.746 817.809 192.636C817.326 193.527 817.085 194.606 817.085 195.875ZM852.585 192.068L849.574 192.92C849.384 192.419 849.105 191.931 848.736 191.457C848.376 190.974 847.884 190.577 847.259 190.264C846.634 189.952 845.833 189.795 844.858 189.795C843.523 189.795 842.41 190.103 841.52 190.719C840.639 191.325 840.199 192.097 840.199 193.034C840.199 193.867 840.502 194.526 841.108 195.009C841.714 195.491 842.661 195.894 843.949 196.216L847.188 197.011C849.138 197.485 850.592 198.209 851.548 199.185C852.505 200.151 852.983 201.396 852.983 202.92C852.983 204.17 852.623 205.288 851.903 206.273C851.193 207.258 850.199 208.034 848.92 208.602C847.642 209.17 846.155 209.455 844.46 209.455C842.235 209.455 840.393 208.972 838.935 208.006C837.476 207.04 836.553 205.629 836.165 203.773L839.347 202.977C839.65 204.152 840.223 205.032 841.065 205.619C841.918 206.206 843.03 206.5 844.403 206.5C845.966 206.5 847.206 206.169 848.125 205.506C849.053 204.833 849.517 204.028 849.517 203.091C849.517 202.333 849.252 201.699 848.722 201.188C848.191 200.667 847.377 200.278 846.278 200.023L842.642 199.17C840.644 198.697 839.176 197.963 838.239 196.969C837.311 195.965 836.847 194.71 836.847 193.205C836.847 191.973 837.192 190.884 837.884 189.938C838.584 188.991 839.536 188.247 840.739 187.707C841.951 187.168 843.324 186.898 844.858 186.898C847.017 186.898 848.712 187.371 849.943 188.318C851.184 189.265 852.064 190.515 852.585 192.068ZM867.745 187.182V190.023H855.984V187.182H867.745ZM859.506 209V184.17C859.506 182.92 859.8 181.879 860.387 181.045C860.974 180.212 861.737 179.587 862.674 179.17C863.612 178.754 864.601 178.545 865.643 178.545C866.467 178.545 867.139 178.612 867.66 178.744C868.181 178.877 868.569 179 868.825 179.114L867.859 182.011C867.688 181.955 867.451 181.884 867.148 181.798C866.855 181.713 866.467 181.67 865.984 181.67C864.876 181.67 864.076 181.95 863.583 182.509C863.1 183.067 862.859 183.886 862.859 184.966V209H859.506ZM880.408 209.455C878.439 209.455 876.71 208.986 875.224 208.048C873.746 207.111 872.591 205.799 871.758 204.114C870.934 202.428 870.522 200.458 870.522 198.205C870.522 195.932 870.934 193.948 871.758 192.253C872.591 190.558 873.746 189.241 875.224 188.304C876.71 187.366 878.439 186.898 880.408 186.898C882.378 186.898 884.102 187.366 885.579 188.304C887.066 189.241 888.221 190.558 889.045 192.253C889.878 193.948 890.295 195.932 890.295 198.205C890.295 200.458 889.878 202.428 889.045 204.114C888.221 205.799 887.066 207.111 885.579 208.048C884.102 208.986 882.378 209.455 880.408 209.455ZM880.408 206.443C881.905 206.443 883.136 206.06 884.102 205.293C885.067 204.526 885.782 203.517 886.246 202.267C886.71 201.017 886.942 199.663 886.942 198.205C886.942 196.746 886.71 195.387 886.246 194.128C885.782 192.868 885.067 191.85 884.102 191.074C883.136 190.297 881.905 189.909 880.408 189.909C878.912 189.909 877.681 190.297 876.715 191.074C875.749 191.85 875.034 192.868 874.57 194.128C874.106 195.387 873.874 196.746 873.874 198.205C873.874 199.663 874.106 201.017 874.57 202.267C875.034 203.517 875.749 204.526 876.715 205.293C877.681 206.06 878.912 206.443 880.408 206.443ZM895.412 209V187.182H898.651V190.477H898.878C899.276 189.398 899.995 188.522 901.037 187.849C902.079 187.177 903.253 186.841 904.56 186.841C904.806 186.841 905.114 186.846 905.483 186.855C905.852 186.865 906.132 186.879 906.321 186.898V190.307C906.207 190.278 905.947 190.236 905.54 190.179C905.142 190.113 904.721 190.08 904.276 190.08C903.215 190.08 902.268 190.302 901.435 190.747C900.611 191.183 899.957 191.789 899.474 192.565C899.001 193.332 898.764 194.208 898.764 195.193V209H895.412ZM910.295 209V187.182H913.533V190.591H913.817C914.272 189.426 915.006 188.522 916.019 187.878C917.032 187.224 918.249 186.898 919.67 186.898C921.109 186.898 922.307 187.224 923.263 187.878C924.229 188.522 924.982 189.426 925.522 190.591H925.749C926.308 189.464 927.146 188.569 928.263 187.906C929.381 187.234 930.721 186.898 932.283 186.898C934.234 186.898 935.83 187.509 937.07 188.73C938.311 189.942 938.931 191.831 938.931 194.398V209H935.579V194.398C935.579 192.788 935.138 191.637 934.258 190.946C933.377 190.255 932.34 189.909 931.147 189.909C929.613 189.909 928.424 190.373 927.582 191.301C926.739 192.22 926.317 193.384 926.317 194.795V209H922.908V194.057C922.908 192.816 922.506 191.817 921.701 191.06C920.896 190.293 919.859 189.909 918.59 189.909C917.719 189.909 916.905 190.141 916.147 190.605C915.399 191.069 914.793 191.713 914.329 192.537C913.874 193.351 913.647 194.294 913.647 195.364V209H910.295ZM954.208 209.455C952.106 209.455 950.292 208.991 948.768 208.062C947.253 207.125 946.083 205.818 945.259 204.142C944.445 202.456 944.038 200.496 944.038 198.261C944.038 196.027 944.445 194.057 945.259 192.352C946.083 190.638 947.229 189.303 948.697 188.347C950.174 187.381 951.897 186.898 953.867 186.898C955.004 186.898 956.126 187.087 957.234 187.466C958.342 187.845 959.35 188.46 960.259 189.312C961.168 190.155 961.893 191.273 962.433 192.665C962.972 194.057 963.242 195.771 963.242 197.807V199.227H946.424V196.33H959.833C959.833 195.098 959.587 194 959.094 193.034C958.612 192.068 957.92 191.306 957.021 190.747C956.13 190.188 955.079 189.909 953.867 189.909C952.532 189.909 951.377 190.241 950.401 190.903C949.435 191.557 948.692 192.409 948.171 193.46C947.65 194.511 947.39 195.638 947.39 196.841V198.773C947.39 200.42 947.674 201.817 948.242 202.963C948.82 204.099 949.62 204.966 950.643 205.562C951.665 206.15 952.854 206.443 954.208 206.443C955.089 206.443 955.884 206.32 956.594 206.074C957.314 205.818 957.934 205.439 958.455 204.938C958.976 204.426 959.379 203.792 959.663 203.034L962.901 203.943C962.56 205.042 961.987 206.008 961.183 206.841C960.378 207.665 959.383 208.309 958.2 208.773C957.016 209.227 955.685 209.455 954.208 209.455ZM968.342 209V187.182H971.58V190.477H971.808C972.205 189.398 972.925 188.522 973.967 187.849C975.008 187.177 976.183 186.841 977.489 186.841C977.736 186.841 978.043 186.846 978.413 186.855C978.782 186.865 979.061 186.879 979.251 186.898V190.307C979.137 190.278 978.877 190.236 978.469 190.179C978.072 190.113 977.65 190.08 977.205 190.08C976.145 190.08 975.198 190.302 974.364 190.747C973.54 191.183 972.887 191.789 972.404 192.565C971.931 193.332 971.694 194.208 971.694 195.193V209H968.342Z" fill="white"/>
<path d="M0.271662 177.034V173.909H22.0898V177.034H12.9421V203H9.41939V177.034H0.271662ZM30.4244 189.875V203H27.0721V173.909H30.4244V184.591H30.7085C31.2198 183.464 31.9869 182.569 33.0096 181.906C34.0418 181.234 35.4149 180.898 37.1289 180.898C38.6156 180.898 39.9177 181.196 41.0352 181.793C42.1526 182.38 43.0191 183.284 43.6346 184.506C44.2596 185.718 44.5721 187.261 44.5721 189.136V203H41.2198V189.364C41.2198 187.631 40.77 186.291 39.8704 185.344C38.9802 184.387 37.7444 183.909 36.163 183.909C35.0645 183.909 34.0797 184.141 33.2085 184.605C32.3467 185.069 31.6649 185.746 31.163 186.636C30.6706 187.527 30.4244 188.606 30.4244 189.875ZM59.8526 203.455C57.7504 203.455 55.9369 202.991 54.4123 202.062C52.8971 201.125 51.7276 199.818 50.9038 198.142C50.0894 196.456 49.6822 194.496 49.6822 192.261C49.6822 190.027 50.0894 188.057 50.9038 186.352C51.7276 184.638 52.8735 183.303 54.3413 182.347C55.8185 181.381 57.542 180.898 59.5117 180.898C60.6481 180.898 61.7702 181.087 62.8782 181.466C63.9862 181.845 64.9947 182.46 65.9038 183.312C66.8129 184.155 67.5373 185.273 68.0771 186.665C68.6168 188.057 68.8867 189.771 68.8867 191.807V193.227H52.0685V190.33H65.4776C65.4776 189.098 65.2314 188 64.739 187.034C64.256 186.068 63.5647 185.306 62.6651 184.747C61.775 184.188 60.7238 183.909 59.5117 183.909C58.1765 183.909 57.0212 184.241 56.0458 184.903C55.0799 185.557 54.3365 186.409 53.8157 187.46C53.2949 188.511 53.0344 189.638 53.0344 190.841V192.773C53.0344 194.42 53.3185 195.817 53.8867 196.963C54.4644 198.099 55.2646 198.966 56.2873 199.562C57.31 200.15 58.4985 200.443 59.8526 200.443C60.7333 200.443 61.5288 200.32 62.239 200.074C62.9587 199.818 63.579 199.439 64.0998 198.938C64.6206 198.426 65.0231 197.792 65.3072 197.034L68.5458 197.943C68.2049 199.042 67.632 200.008 66.8271 200.841C66.0221 201.665 65.0278 202.309 63.8441 202.773C62.6604 203.227 61.3299 203.455 59.8526 203.455ZM90.1793 203L83.5316 181.182H87.0543L91.7702 197.886H91.9975L96.6566 181.182H100.236L104.838 197.83H105.066L109.782 181.182H113.304L106.657 203H103.361L98.5884 186.239H98.2475L93.4748 203H90.1793ZM126.142 203.455C124.039 203.455 122.226 202.991 120.701 202.062C119.186 201.125 118.017 199.818 117.193 198.142C116.378 196.456 115.971 194.496 115.971 192.261C115.971 190.027 116.378 188.057 117.193 186.352C118.017 184.638 119.163 183.303 120.63 182.347C122.108 181.381 123.831 180.898 125.801 180.898C126.937 180.898 128.059 181.087 129.167 181.466C130.275 181.845 131.284 182.46 132.193 183.312C133.102 184.155 133.826 185.273 134.366 186.665C134.906 188.057 135.176 189.771 135.176 191.807V193.227H118.358V190.33H131.767C131.767 189.098 131.52 188 131.028 187.034C130.545 186.068 129.854 185.306 128.954 184.747C128.064 184.188 127.013 183.909 125.801 183.909C124.466 183.909 123.31 184.241 122.335 184.903C121.369 185.557 120.626 186.409 120.105 187.46C119.584 188.511 119.324 189.638 119.324 190.841V192.773C119.324 194.42 119.608 195.817 120.176 196.963C120.753 198.099 121.554 198.966 122.576 199.562C123.599 200.15 124.788 200.443 126.142 200.443C127.022 200.443 127.818 200.32 128.528 200.074C129.248 199.818 129.868 199.439 130.389 198.938C130.91 198.426 131.312 197.792 131.596 197.034L134.835 197.943C134.494 199.042 133.921 200.008 133.116 200.841C132.311 201.665 131.317 202.309 130.133 202.773C128.949 203.227 127.619 203.455 126.142 203.455ZM146.696 203.511C145.313 203.511 144.058 203.251 142.931 202.73C141.805 202.2 140.91 201.438 140.247 200.443C139.584 199.439 139.252 198.227 139.252 196.807C139.252 195.557 139.499 194.544 139.991 193.767C140.484 192.981 141.142 192.366 141.966 191.92C142.789 191.475 143.699 191.144 144.693 190.926C145.697 190.699 146.705 190.519 147.718 190.386C149.044 190.216 150.119 190.088 150.943 190.003C151.776 189.908 152.382 189.752 152.761 189.534C153.149 189.316 153.343 188.937 153.343 188.398V188.284C153.343 186.883 152.96 185.794 152.193 185.017C151.435 184.241 150.285 183.852 148.741 183.852C147.141 183.852 145.886 184.203 144.977 184.903C144.068 185.604 143.429 186.352 143.059 187.148L139.877 186.011C140.446 184.686 141.203 183.653 142.15 182.915C143.107 182.167 144.148 181.646 145.275 181.352C146.412 181.049 147.529 180.898 148.627 180.898C149.328 180.898 150.133 180.983 151.042 181.153C151.961 181.314 152.846 181.651 153.699 182.162C154.56 182.673 155.275 183.445 155.843 184.477C156.412 185.509 156.696 186.892 156.696 188.625V203H153.343V200.045H153.173C152.946 200.519 152.567 201.026 152.037 201.565C151.506 202.105 150.801 202.564 149.92 202.943C149.039 203.322 147.965 203.511 146.696 203.511ZM147.207 200.5C148.533 200.5 149.65 200.24 150.559 199.719C151.478 199.198 152.169 198.526 152.633 197.702C153.107 196.878 153.343 196.011 153.343 195.102V192.034C153.201 192.205 152.889 192.361 152.406 192.503C151.932 192.635 151.383 192.754 150.758 192.858C150.143 192.953 149.541 193.038 148.954 193.114C148.377 193.18 147.908 193.237 147.548 193.284C146.677 193.398 145.862 193.582 145.105 193.838C144.357 194.084 143.751 194.458 143.287 194.96C142.832 195.453 142.605 196.125 142.605 196.977C142.605 198.142 143.036 199.023 143.897 199.619C144.769 200.206 145.872 200.5 147.207 200.5ZM172.303 181.182V184.023H160.996V181.182H172.303ZM164.292 175.955H167.644V196.75C167.644 197.697 167.781 198.407 168.056 198.881C168.34 199.345 168.7 199.657 169.135 199.818C169.58 199.97 170.049 200.045 170.542 200.045C170.911 200.045 171.214 200.027 171.451 199.989C171.687 199.941 171.877 199.903 172.019 199.875L172.701 202.886C172.473 202.972 172.156 203.057 171.749 203.142C171.342 203.237 170.826 203.284 170.201 203.284C169.254 203.284 168.326 203.08 167.417 202.673C166.517 202.266 165.769 201.646 165.172 200.812C164.585 199.979 164.292 198.928 164.292 197.659V175.955ZM181.167 189.875V203H177.814V173.909H181.167V184.591H181.451C181.962 183.464 182.729 182.569 183.752 181.906C184.784 181.234 186.157 180.898 187.871 180.898C189.358 180.898 190.66 181.196 191.777 181.793C192.895 182.38 193.761 183.284 194.377 184.506C195.002 185.718 195.314 187.261 195.314 189.136V203H191.962V189.364C191.962 187.631 191.512 186.291 190.613 185.344C189.722 184.387 188.487 183.909 186.905 183.909C185.807 183.909 184.822 184.141 183.951 184.605C183.089 185.069 182.407 185.746 181.905 186.636C181.413 187.527 181.167 188.606 181.167 189.875ZM210.595 203.455C208.493 203.455 206.679 202.991 205.154 202.062C203.639 201.125 202.47 199.818 201.646 198.142C200.832 196.456 200.424 194.496 200.424 192.261C200.424 190.027 200.832 188.057 201.646 186.352C202.47 184.638 203.616 183.303 205.083 182.347C206.561 181.381 208.284 180.898 210.254 180.898C211.39 180.898 212.512 181.087 213.62 181.466C214.728 181.845 215.737 182.46 216.646 183.312C217.555 184.155 218.279 185.273 218.819 186.665C219.359 188.057 219.629 189.771 219.629 191.807V193.227H202.811V190.33H216.22C216.22 189.098 215.974 188 215.481 187.034C214.998 186.068 214.307 185.306 213.407 184.747C212.517 184.188 211.466 183.909 210.254 183.909C208.919 183.909 207.763 184.241 206.788 184.903C205.822 185.557 205.079 186.409 204.558 187.46C204.037 188.511 203.777 189.638 203.777 190.841V192.773C203.777 194.42 204.061 195.817 204.629 196.963C205.207 198.099 206.007 198.966 207.029 199.562C208.052 200.15 209.241 200.443 210.595 200.443C211.475 200.443 212.271 200.32 212.981 200.074C213.701 199.818 214.321 199.439 214.842 198.938C215.363 198.426 215.765 197.792 216.049 197.034L219.288 197.943C218.947 199.042 218.374 200.008 217.569 200.841C216.764 201.665 215.77 202.309 214.586 202.773C213.403 203.227 212.072 203.455 210.595 203.455ZM224.728 203V181.182H227.967V184.477H228.194C228.592 183.398 229.312 182.522 230.353 181.849C231.395 181.177 232.569 180.841 233.876 180.841C234.122 180.841 234.43 180.846 234.799 180.855C235.169 180.865 235.448 180.879 235.637 180.898V184.307C235.524 184.278 235.263 184.236 234.856 184.179C234.458 184.113 234.037 184.08 233.592 184.08C232.531 184.08 231.584 184.302 230.751 184.747C229.927 185.183 229.274 185.789 228.791 186.565C228.317 187.332 228.081 188.208 228.081 189.193V203H224.728ZM250.861 203V181.182H254.213V203H250.861ZM252.566 177.545C251.912 177.545 251.349 177.323 250.875 176.878C250.411 176.433 250.179 175.898 250.179 175.273C250.179 174.648 250.411 174.113 250.875 173.668C251.349 173.223 251.912 173 252.566 173C253.219 173 253.778 173.223 254.242 173.668C254.715 174.113 254.952 174.648 254.952 175.273C254.952 175.898 254.715 176.433 254.242 176.878C253.778 177.323 253.219 177.545 252.566 177.545ZM275.808 186.068L272.797 186.92C272.607 186.419 272.328 185.931 271.958 185.457C271.599 184.974 271.106 184.577 270.481 184.264C269.856 183.952 269.056 183.795 268.081 183.795C266.745 183.795 265.633 184.103 264.743 184.719C263.862 185.325 263.422 186.097 263.422 187.034C263.422 187.867 263.725 188.526 264.331 189.009C264.937 189.491 265.884 189.894 267.172 190.216L270.41 191.011C272.361 191.485 273.815 192.209 274.771 193.185C275.727 194.151 276.206 195.396 276.206 196.92C276.206 198.17 275.846 199.288 275.126 200.273C274.416 201.258 273.422 202.034 272.143 202.602C270.865 203.17 269.378 203.455 267.683 203.455C265.458 203.455 263.616 202.972 262.157 202.006C260.699 201.04 259.776 199.629 259.387 197.773L262.569 196.977C262.872 198.152 263.445 199.032 264.288 199.619C265.14 200.206 266.253 200.5 267.626 200.5C269.189 200.5 270.429 200.169 271.348 199.506C272.276 198.833 272.74 198.028 272.74 197.091C272.74 196.333 272.475 195.699 271.944 195.188C271.414 194.667 270.6 194.278 269.501 194.023L265.865 193.17C263.867 192.697 262.399 191.963 261.461 190.969C260.533 189.965 260.069 188.71 260.069 187.205C260.069 185.973 260.415 184.884 261.106 183.938C261.807 182.991 262.759 182.247 263.961 181.707C265.173 181.168 266.547 180.898 268.081 180.898C270.24 180.898 271.935 181.371 273.166 182.318C274.406 183.265 275.287 184.515 275.808 186.068ZM301.309 211.636C299.689 211.636 298.297 211.428 297.132 211.011C295.968 210.604 294.997 210.064 294.221 209.392C293.453 208.729 292.843 208.019 292.388 207.261L295.059 205.386C295.362 205.784 295.745 206.239 296.209 206.75C296.673 207.271 297.308 207.721 298.113 208.099C298.927 208.488 299.992 208.682 301.309 208.682C303.07 208.682 304.524 208.256 305.669 207.403C306.815 206.551 307.388 205.216 307.388 203.398V198.966H307.104C306.858 199.364 306.507 199.856 306.053 200.443C305.608 201.021 304.964 201.537 304.121 201.991C303.288 202.437 302.161 202.659 300.74 202.659C298.979 202.659 297.398 202.242 295.996 201.409C294.604 200.576 293.501 199.364 292.686 197.773C291.882 196.182 291.479 194.25 291.479 191.977C291.479 189.742 291.872 187.796 292.658 186.139C293.444 184.473 294.538 183.185 295.939 182.276C297.341 181.357 298.96 180.898 300.797 180.898C302.218 180.898 303.345 181.134 304.178 181.608C305.021 182.072 305.665 182.602 306.11 183.199C306.564 183.786 306.915 184.269 307.161 184.648H307.502V181.182H310.74V203.625C310.74 205.5 310.314 207.025 309.462 208.199C308.619 209.383 307.483 210.249 306.053 210.798C304.632 211.357 303.051 211.636 301.309 211.636ZM301.195 199.648C302.54 199.648 303.676 199.34 304.604 198.724C305.532 198.109 306.238 197.223 306.721 196.068C307.203 194.913 307.445 193.53 307.445 191.92C307.445 190.348 307.208 188.961 306.735 187.759C306.261 186.556 305.56 185.614 304.632 184.932C303.704 184.25 302.559 183.909 301.195 183.909C299.775 183.909 298.591 184.269 297.644 184.989C296.706 185.708 296.001 186.674 295.527 187.886C295.063 189.098 294.831 190.443 294.831 191.92C294.831 193.436 295.068 194.776 295.542 195.94C296.025 197.096 296.735 198.005 297.672 198.668C298.619 199.321 299.793 199.648 301.195 199.648ZM316.877 203V181.182H320.115V184.477H320.343C320.74 183.398 321.46 182.522 322.502 181.849C323.543 181.177 324.718 180.841 326.025 180.841C326.271 180.841 326.578 180.846 326.948 180.855C327.317 180.865 327.596 180.879 327.786 180.898V184.307C327.672 184.278 327.412 184.236 327.005 184.179C326.607 184.113 326.185 184.08 325.74 184.08C324.68 184.08 323.733 184.302 322.9 184.747C322.076 185.183 321.422 185.789 320.939 186.565C320.466 187.332 320.229 188.208 320.229 189.193V203H316.877ZM340.243 203.455C338.141 203.455 336.328 202.991 334.803 202.062C333.288 201.125 332.118 199.818 331.294 198.142C330.48 196.456 330.073 194.496 330.073 192.261C330.073 190.027 330.48 188.057 331.294 186.352C332.118 184.638 333.264 183.303 334.732 182.347C336.209 181.381 337.933 180.898 339.902 180.898C341.039 180.898 342.161 181.087 343.269 181.466C344.377 181.845 345.385 182.46 346.294 183.312C347.203 184.155 347.928 185.273 348.468 186.665C349.007 188.057 349.277 189.771 349.277 191.807V193.227H332.459V190.33H345.868C345.868 189.098 345.622 188 345.13 187.034C344.647 186.068 343.955 185.306 343.056 184.747C342.166 184.188 341.114 183.909 339.902 183.909C338.567 183.909 337.412 184.241 336.436 184.903C335.471 185.557 334.727 186.409 334.206 187.46C333.685 188.511 333.425 189.638 333.425 190.841V192.773C333.425 194.42 333.709 195.817 334.277 196.963C334.855 198.099 335.655 198.966 336.678 199.562C337.701 200.15 338.889 200.443 340.243 200.443C341.124 200.443 341.919 200.32 342.63 200.074C343.349 199.818 343.97 199.439 344.49 198.938C345.011 198.426 345.414 197.792 345.698 197.034L348.936 197.943C348.596 199.042 348.023 200.008 347.218 200.841C346.413 201.665 345.418 202.309 344.235 202.773C343.051 203.227 341.721 203.455 340.243 203.455ZM360.797 203.511C359.415 203.511 358.16 203.251 357.033 202.73C355.906 202.2 355.011 201.438 354.348 200.443C353.685 199.439 353.354 198.227 353.354 196.807C353.354 195.557 353.6 194.544 354.093 193.767C354.585 192.981 355.243 192.366 356.067 191.92C356.891 191.475 357.8 191.144 358.794 190.926C359.798 190.699 360.807 190.519 361.82 190.386C363.146 190.216 364.221 190.088 365.044 190.003C365.878 189.908 366.484 189.752 366.863 189.534C367.251 189.316 367.445 188.937 367.445 188.398V188.284C367.445 186.883 367.061 185.794 366.294 185.017C365.537 184.241 364.386 183.852 362.843 183.852C361.242 183.852 359.988 184.203 359.078 184.903C358.169 185.604 357.53 186.352 357.161 187.148L353.979 186.011C354.547 184.686 355.305 183.653 356.252 182.915C357.208 182.167 358.25 181.646 359.377 181.352C360.513 181.049 361.631 180.898 362.729 180.898C363.43 180.898 364.235 180.983 365.144 181.153C366.062 181.314 366.948 181.651 367.8 182.162C368.662 182.673 369.377 183.445 369.945 184.477C370.513 185.509 370.797 186.892 370.797 188.625V203H367.445V200.045H367.275C367.047 200.519 366.668 201.026 366.138 201.565C365.608 202.105 364.902 202.564 364.022 202.943C363.141 203.322 362.066 203.511 360.797 203.511ZM361.309 200.5C362.634 200.5 363.752 200.24 364.661 199.719C365.579 199.198 366.271 198.526 366.735 197.702C367.208 196.878 367.445 196.011 367.445 195.102V192.034C367.303 192.205 366.99 192.361 366.507 192.503C366.034 192.635 365.485 192.754 364.86 192.858C364.244 192.953 363.643 193.038 363.056 193.114C362.478 193.18 362.009 193.237 361.65 193.284C360.778 193.398 359.964 193.582 359.206 193.838C358.458 194.084 357.852 194.458 357.388 194.96C356.934 195.453 356.706 196.125 356.706 196.977C356.706 198.142 357.137 199.023 357.999 199.619C358.87 200.206 359.973 200.5 361.309 200.5ZM386.404 181.182V184.023H375.098V181.182H386.404ZM378.393 175.955H381.745V196.75C381.745 197.697 381.883 198.407 382.157 198.881C382.441 199.345 382.801 199.657 383.237 199.818C383.682 199.97 384.151 200.045 384.643 200.045C385.012 200.045 385.315 200.027 385.552 199.989C385.789 199.941 385.978 199.903 386.12 199.875L386.802 202.886C386.575 202.972 386.258 203.057 385.85 203.142C385.443 203.237 384.927 203.284 384.302 203.284C383.355 203.284 382.427 203.08 381.518 202.673C380.618 202.266 379.87 201.646 379.274 200.812C378.687 199.979 378.393 198.928 378.393 197.659V175.955ZM412.186 181.182V184.023H400.879V181.182H412.186ZM404.174 175.955H407.527V196.75C407.527 197.697 407.664 198.407 407.939 198.881C408.223 199.345 408.583 199.657 409.018 199.818C409.463 199.97 409.932 200.045 410.424 200.045C410.794 200.045 411.097 200.027 411.333 199.989C411.57 199.941 411.76 199.903 411.902 199.875L412.583 202.886C412.356 202.972 412.039 203.057 411.632 203.142C411.225 203.237 410.708 203.284 410.083 203.284C409.136 203.284 408.208 203.08 407.299 202.673C406.4 202.266 405.652 201.646 405.055 200.812C404.468 199.979 404.174 198.928 404.174 197.659V175.955ZM425.858 203.455C423.888 203.455 422.16 202.986 420.673 202.048C419.196 201.111 418.04 199.799 417.207 198.114C416.383 196.428 415.971 194.458 415.971 192.205C415.971 189.932 416.383 187.948 417.207 186.253C418.04 184.558 419.196 183.241 420.673 182.304C422.16 181.366 423.888 180.898 425.858 180.898C427.827 180.898 429.551 181.366 431.028 182.304C432.515 183.241 433.67 184.558 434.494 186.253C435.327 187.948 435.744 189.932 435.744 192.205C435.744 194.458 435.327 196.428 434.494 198.114C433.67 199.799 432.515 201.111 431.028 202.048C429.551 202.986 427.827 203.455 425.858 203.455ZM425.858 200.443C427.354 200.443 428.585 200.06 429.551 199.293C430.517 198.526 431.232 197.517 431.696 196.267C432.16 195.017 432.392 193.663 432.392 192.205C432.392 190.746 432.16 189.387 431.696 188.128C431.232 186.868 430.517 185.85 429.551 185.074C428.585 184.297 427.354 183.909 425.858 183.909C424.361 183.909 423.13 184.297 422.164 185.074C421.199 185.85 420.484 186.868 420.02 188.128C419.556 189.387 419.324 190.746 419.324 192.205C419.324 193.663 419.556 195.017 420.02 196.267C420.484 197.517 421.199 198.526 422.164 199.293C423.13 200.06 424.361 200.443 425.858 200.443ZM449.1 203.455C447.282 203.455 445.676 202.995 444.284 202.077C442.892 201.149 441.803 199.842 441.017 198.156C440.231 196.461 439.838 194.458 439.838 192.148C439.838 189.856 440.231 187.867 441.017 186.182C441.803 184.496 442.897 183.194 444.299 182.276C445.7 181.357 447.319 180.898 449.157 180.898C450.577 180.898 451.699 181.134 452.523 181.608C453.356 182.072 453.991 182.602 454.426 183.199C454.872 183.786 455.217 184.269 455.463 184.648H455.748V173.909H459.1V203H455.861V199.648H455.463C455.217 200.045 454.867 200.547 454.412 201.153C453.958 201.75 453.309 202.285 452.466 202.759C451.623 203.223 450.501 203.455 449.1 203.455ZM449.554 200.443C450.899 200.443 452.035 200.093 452.963 199.392C453.891 198.682 454.597 197.702 455.08 196.452C455.563 195.192 455.804 193.739 455.804 192.091C455.804 190.462 455.568 189.037 455.094 187.815C454.621 186.584 453.92 185.628 452.992 184.946C452.064 184.255 450.918 183.909 449.554 183.909C448.134 183.909 446.95 184.274 446.003 185.003C445.066 185.723 444.36 186.703 443.887 187.943C443.423 189.174 443.191 190.557 443.191 192.091C443.191 193.644 443.427 195.055 443.901 196.324C444.384 197.583 445.094 198.587 446.032 199.335C446.979 200.074 448.153 200.443 449.554 200.443ZM472.125 203.511C470.743 203.511 469.488 203.251 468.361 202.73C467.234 202.2 466.339 201.438 465.676 200.443C465.014 199.439 464.682 198.227 464.682 196.807C464.682 195.557 464.928 194.544 465.421 193.767C465.913 192.981 466.571 192.366 467.395 191.92C468.219 191.475 469.128 191.144 470.123 190.926C471.126 190.699 472.135 190.519 473.148 190.386C474.474 190.216 475.549 190.088 476.373 190.003C477.206 189.908 477.812 189.752 478.191 189.534C478.579 189.316 478.773 188.937 478.773 188.398V188.284C478.773 186.883 478.39 185.794 477.623 185.017C476.865 184.241 475.714 183.852 474.171 183.852C472.57 183.852 471.316 184.203 470.407 184.903C469.498 185.604 468.858 186.352 468.489 187.148L465.307 186.011C465.875 184.686 466.633 183.653 467.58 182.915C468.536 182.167 469.578 181.646 470.705 181.352C471.841 181.049 472.959 180.898 474.057 180.898C474.758 180.898 475.563 180.983 476.472 181.153C477.391 181.314 478.276 181.651 479.128 182.162C479.99 182.673 480.705 183.445 481.273 184.477C481.841 185.509 482.125 186.892 482.125 188.625V203H478.773V200.045H478.603C478.375 200.519 477.997 201.026 477.466 201.565C476.936 202.105 476.23 202.564 475.35 202.943C474.469 203.322 473.394 203.511 472.125 203.511ZM472.637 200.5C473.962 200.5 475.08 200.24 475.989 199.719C476.908 199.198 477.599 198.526 478.063 197.702C478.536 196.878 478.773 196.011 478.773 195.102V192.034C478.631 192.205 478.319 192.361 477.836 192.503C477.362 192.635 476.813 192.754 476.188 192.858C475.572 192.953 474.971 193.038 474.384 193.114C473.806 193.18 473.337 193.237 472.978 193.284C472.106 193.398 471.292 193.582 470.534 193.838C469.786 194.084 469.18 194.458 468.716 194.96C468.262 195.453 468.034 196.125 468.034 196.977C468.034 198.142 468.465 199.023 469.327 199.619C470.198 200.206 471.301 200.5 472.637 200.5ZM489.622 211.182C489.054 211.182 488.547 211.134 488.102 211.04C487.657 210.955 487.349 210.869 487.179 210.784L488.031 207.83C488.845 208.038 489.565 208.114 490.19 208.057C490.815 208 491.369 207.721 491.852 207.219C492.344 206.726 492.794 205.926 493.201 204.818L493.826 203.114L485.758 181.182H489.395L495.417 198.568H495.645L501.667 181.182H505.304L496.042 206.182C495.626 207.309 495.109 208.241 494.494 208.98C493.878 209.728 493.163 210.282 492.349 210.642C491.544 211.002 490.635 211.182 489.622 211.182Z" fill="black"/>
<path d="M89.8391 0.90909V30H83.6886V0.90909H89.8391ZM100.837 17.3864V30H94.7859V8.18182H100.553V12.0312H100.809C101.292 10.7623 102.101 9.75852 103.238 9.01989C104.374 8.27178 105.752 7.89773 107.371 7.89773C108.886 7.89773 110.207 8.22917 111.334 8.89205C112.461 9.55492 113.337 10.5019 113.962 11.733C114.587 12.9545 114.9 14.4129 114.9 16.108V30H108.848V17.1875C108.858 15.8523 108.517 14.8106 107.826 14.0625C107.134 13.3049 106.183 12.9261 104.971 12.9261C104.156 12.9261 103.436 13.1013 102.811 13.4517C102.196 13.8021 101.713 14.3134 101.363 14.9858C101.022 15.6487 100.846 16.4489 100.837 17.3864ZM119.669 38.1818V8.18182H125.635V11.8466H125.904C126.17 11.2595 126.553 10.6629 127.055 10.0568C127.566 9.44129 128.229 8.92992 129.044 8.52273C129.868 8.10606 130.89 7.89773 132.112 7.89773C133.703 7.89773 135.171 8.31439 136.515 9.14773C137.86 9.97159 138.935 11.2169 139.74 12.8835C140.545 14.5407 140.947 16.6193 140.947 19.1193C140.947 21.553 140.554 23.608 139.768 25.2841C138.992 26.9508 137.931 28.215 136.586 29.0767C135.251 29.929 133.755 30.3551 132.098 30.3551C130.923 30.3551 129.924 30.161 129.1 29.7727C128.286 29.3845 127.618 28.8968 127.098 28.3097C126.577 27.7131 126.179 27.1117 125.904 26.5057H125.72V38.1818H119.669ZM125.592 19.0909C125.592 20.3883 125.772 21.5199 126.132 22.4858C126.492 23.4517 127.012 24.2045 127.694 24.7443C128.376 25.2746 129.205 25.5398 130.18 25.5398C131.165 25.5398 131.998 25.2699 132.68 24.7301C133.362 24.1809 133.878 23.4233 134.228 22.4574C134.588 21.482 134.768 20.3598 134.768 19.0909C134.768 17.8314 134.593 16.7235 134.243 15.767C133.892 14.8106 133.376 14.0625 132.694 13.5227C132.012 12.983 131.174 12.7131 130.18 12.7131C129.195 12.7131 128.362 12.9735 127.68 13.4943C127.008 14.0152 126.492 14.7538 126.132 15.7102C125.772 16.6667 125.592 17.7936 125.592 19.0909ZM158.973 20.7102V8.18182H165.024V30H159.214V26.0369H158.987C158.494 27.3153 157.675 28.3428 156.529 29.1193C155.393 29.8958 154.006 30.2841 152.368 30.2841C150.909 30.2841 149.626 29.9527 148.518 29.2898C147.41 28.6269 146.544 27.6847 145.919 26.4631C145.303 25.2415 144.991 23.7784 144.981 22.0739V8.18182H151.032V20.9943C151.042 22.2822 151.387 23.3002 152.069 24.0483C152.751 24.7964 153.665 25.1705 154.811 25.1705C155.54 25.1705 156.222 25.0047 156.856 24.6733C157.491 24.3324 158.002 23.8305 158.39 23.1676C158.788 22.5047 158.982 21.6856 158.973 20.7102ZM181.469 8.18182V12.7273H168.33V8.18182H181.469ZM171.313 2.95455H177.364V23.2955C177.364 23.8542 177.449 24.2898 177.62 24.6023C177.79 24.9053 178.027 25.1184 178.33 25.2415C178.642 25.3646 179.002 25.4261 179.409 25.4261C179.694 25.4261 179.978 25.4025 180.262 25.3551C180.546 25.2983 180.764 25.2557 180.915 25.2273L181.867 29.7301C181.564 29.8248 181.138 29.9337 180.588 30.0568C180.039 30.1894 179.372 30.2699 178.586 30.2983C177.127 30.3551 175.849 30.161 174.75 29.7159C173.661 29.2708 172.814 28.5795 172.208 27.642C171.602 26.7045 171.303 25.5208 171.313 24.0909V2.95455ZM212.822 14.4034L207.282 14.7443C207.188 14.2708 206.984 13.8447 206.672 13.4659C206.359 13.0777 205.947 12.7699 205.436 12.5426C204.934 12.3059 204.333 12.1875 203.632 12.1875C202.694 12.1875 201.904 12.3864 201.26 12.7841C200.616 13.1723 200.294 13.6932 200.294 14.3466C200.294 14.8674 200.502 15.3078 200.919 15.6676C201.335 16.0275 202.05 16.3163 203.064 16.5341L207.012 17.3295C209.134 17.7652 210.715 18.4659 211.757 19.4318C212.798 20.3977 213.319 21.6667 213.319 23.2386C213.319 24.6686 212.898 25.9233 212.055 27.0028C211.222 28.0824 210.076 28.9252 208.618 29.5312C207.169 30.1278 205.497 30.4261 203.603 30.4261C200.715 30.4261 198.414 29.8248 196.7 28.6222C194.995 27.41 193.996 25.7623 193.703 23.679L199.654 23.3665C199.834 24.2472 200.27 24.9195 200.961 25.3835C201.653 25.8381 202.538 26.0653 203.618 26.0653C204.678 26.0653 205.53 25.8617 206.174 25.4545C206.828 25.0379 207.159 24.5028 207.169 23.8494C207.159 23.3002 206.927 22.8504 206.473 22.5C206.018 22.1402 205.317 21.8655 204.37 21.6761L200.592 20.9233C198.461 20.4972 196.875 19.7585 195.833 18.7074C194.801 17.6562 194.285 16.3163 194.285 14.6875C194.285 13.286 194.664 12.0786 195.422 11.0653C196.189 10.0521 197.263 9.27083 198.646 8.72159C200.038 8.17235 201.667 7.89773 203.532 7.89773C206.288 7.89773 208.457 8.48011 210.038 9.64489C211.629 10.8097 212.557 12.3958 212.822 14.4034ZM227.073 30.4261C224.828 30.4261 222.897 29.9716 221.277 29.0625C219.667 28.1439 218.427 26.8466 217.556 25.1705C216.685 23.4848 216.249 21.4915 216.249 19.1903C216.249 16.946 216.685 14.9763 217.556 13.2812C218.427 11.5862 219.653 10.2652 221.235 9.31818C222.826 8.37121 224.691 7.89773 226.831 7.89773C228.271 7.89773 229.611 8.12973 230.851 8.59375C232.101 9.0483 233.19 9.73485 234.118 10.6534C235.056 11.572 235.785 12.7273 236.306 14.1193C236.827 15.5019 237.087 17.1212 237.087 18.9773V20.6392H218.664V16.8892H231.391C231.391 16.018 231.202 15.2462 230.823 14.5739C230.444 13.9015 229.918 13.3759 229.246 12.9972C228.583 12.6089 227.811 12.4148 226.931 12.4148C226.012 12.4148 225.198 12.6278 224.488 13.054C223.787 13.4706 223.238 14.0341 222.84 14.7443C222.442 15.4451 222.239 16.2263 222.229 17.0881V20.6534C222.229 21.733 222.428 22.6657 222.826 23.4517C223.233 24.2377 223.806 24.8438 224.544 25.2699C225.283 25.696 226.159 25.9091 227.172 25.9091C227.845 25.9091 228.46 25.8144 229.019 25.625C229.578 25.4356 230.056 25.1515 230.453 24.7727C230.851 24.3939 231.154 23.9299 231.363 23.3807L236.959 23.75C236.675 25.0947 236.093 26.2689 235.212 27.2727C234.341 28.267 233.214 29.0436 231.831 29.6023C230.458 30.1515 228.872 30.4261 227.073 30.4261ZM255.453 38.1818V26.5057H255.269C254.985 27.1117 254.582 27.7131 254.061 28.3097C253.55 28.8968 252.882 29.3845 252.059 29.7727C251.244 30.161 250.25 30.3551 249.076 30.3551C247.418 30.3551 245.917 29.929 244.573 29.0767C243.238 28.215 242.177 26.9508 241.391 25.2841C240.614 23.608 240.226 21.553 240.226 19.1193C240.226 16.6193 240.629 14.5407 241.434 12.8835C242.239 11.2169 243.309 9.97159 244.644 9.14773C245.989 8.31439 247.461 7.89773 249.061 7.89773C250.283 7.89773 251.301 8.10606 252.115 8.52273C252.939 8.92992 253.602 9.44129 254.104 10.0568C254.615 10.6629 255.004 11.2595 255.269 11.8466H255.525V8.18182H261.49V38.1818H255.453ZM250.993 25.5398C251.969 25.5398 252.792 25.2746 253.465 24.7443C254.147 24.2045 254.667 23.4517 255.027 22.4858C255.397 21.5199 255.581 20.3883 255.581 19.0909C255.581 17.7936 255.401 16.6667 255.042 15.7102C254.682 14.7538 254.161 14.0152 253.479 13.4943C252.797 12.9735 251.969 12.7131 250.993 12.7131C249.999 12.7131 249.161 12.983 248.479 13.5227C247.797 14.0625 247.281 14.8106 246.931 15.767C246.58 16.7235 246.405 17.8314 246.405 19.0909C246.405 20.3598 246.58 21.482 246.931 22.4574C247.291 23.4233 247.807 24.1809 248.479 24.7301C249.161 25.2699 249.999 25.5398 250.993 25.5398ZM280.34 20.7102V8.18182H286.391V30H280.581V26.0369H280.354C279.862 27.3153 279.042 28.3428 277.897 29.1193C276.76 29.8958 275.373 30.2841 273.735 30.2841C272.276 30.2841 270.993 29.9527 269.885 29.2898C268.777 28.6269 267.911 27.6847 267.286 26.4631C266.67 25.2415 266.358 23.7784 266.348 22.0739V8.18182H272.4V20.9943C272.409 22.2822 272.755 23.3002 273.436 24.0483C274.118 24.7964 275.032 25.1705 276.178 25.1705C276.907 25.1705 277.589 25.0047 278.223 24.6733C278.858 24.3324 279.369 23.8305 279.757 23.1676C280.155 22.5047 280.349 21.6856 280.34 20.7102ZM301.174 30.4261C298.93 30.4261 296.998 29.9716 295.379 29.0625C293.769 28.1439 292.529 26.8466 291.657 25.1705C290.786 23.4848 290.35 21.4915 290.35 19.1903C290.35 16.946 290.786 14.9763 291.657 13.2812C292.529 11.5862 293.755 10.2652 295.336 9.31818C296.927 8.37121 298.793 7.89773 300.933 7.89773C302.372 7.89773 303.712 8.12973 304.953 8.59375C306.203 9.0483 307.292 9.73485 308.22 10.6534C309.157 11.572 309.886 12.7273 310.407 14.1193C310.928 15.5019 311.189 17.1212 311.189 18.9773V20.6392H292.765V16.8892H305.493C305.493 16.018 305.303 15.2462 304.924 14.5739C304.546 13.9015 304.02 13.3759 303.348 12.9972C302.685 12.6089 301.913 12.4148 301.032 12.4148C300.114 12.4148 299.299 12.6278 298.589 13.054C297.888 13.4706 297.339 14.0341 296.941 14.7443C296.544 15.4451 296.34 16.2263 296.331 17.0881V20.6534C296.331 21.733 296.529 22.6657 296.927 23.4517C297.334 24.2377 297.907 24.8438 298.646 25.2699C299.385 25.696 300.261 25.9091 301.274 25.9091C301.946 25.9091 302.562 25.8144 303.12 25.625C303.679 25.4356 304.157 25.1515 304.555 24.7727C304.953 24.3939 305.256 23.9299 305.464 23.3807L311.061 23.75C310.777 25.0947 310.194 26.2689 309.314 27.2727C308.442 28.267 307.315 29.0436 305.933 29.6023C304.56 30.1515 302.974 30.4261 301.174 30.4261ZM321.189 17.3864V30H315.137V8.18182H320.904V12.0312H321.16C321.643 10.7623 322.453 9.75852 323.589 9.01989C324.725 8.27178 326.103 7.89773 327.723 7.89773C329.238 7.89773 330.559 8.22917 331.686 8.89205C332.813 9.55492 333.689 10.5019 334.314 11.733C334.939 12.9545 335.251 14.4129 335.251 16.108V30H329.2V17.1875C329.209 15.8523 328.868 14.8106 328.177 14.0625C327.486 13.3049 326.534 12.9261 325.322 12.9261C324.508 12.9261 323.788 13.1013 323.163 13.4517C322.547 13.8021 322.065 14.3134 321.714 14.9858C321.373 15.6487 321.198 16.4489 321.189 17.3864ZM349.878 30.4261C347.643 30.4261 345.721 29.9527 344.111 29.0057C342.511 28.0492 341.28 26.7235 340.418 25.0284C339.566 23.3333 339.14 21.3826 339.14 19.1761C339.14 16.9413 339.57 14.9811 340.432 13.2955C341.303 11.6004 342.539 10.2794 344.14 9.33239C345.74 8.37595 347.643 7.89773 349.85 7.89773C351.753 7.89773 353.42 8.24337 354.85 8.93466C356.28 9.62595 357.411 10.5966 358.245 11.8466C359.078 13.0966 359.537 14.5644 359.623 16.25H353.912C353.751 15.161 353.325 14.285 352.634 13.6222C351.952 12.9498 351.057 12.6136 349.949 12.6136C349.012 12.6136 348.193 12.8693 347.492 13.3807C346.801 13.8826 346.261 14.6165 345.873 15.5824C345.484 16.5483 345.29 17.7178 345.29 19.0909C345.29 20.483 345.48 21.6667 345.858 22.642C346.247 23.6174 346.791 24.3608 347.492 24.8722C348.193 25.3835 349.012 25.6392 349.949 25.6392C350.641 25.6392 351.261 25.4972 351.81 25.2131C352.369 24.929 352.828 24.517 353.188 23.9773C353.557 23.428 353.799 22.7699 353.912 22.0028H359.623C359.528 23.6695 359.073 25.1373 358.259 26.4062C357.454 27.6657 356.341 28.6506 354.921 29.3608C353.5 30.071 351.819 30.4261 349.878 30.4261ZM373.44 30.4261C371.196 30.4261 369.264 29.9716 367.645 29.0625C366.035 28.1439 364.794 26.8466 363.923 25.1705C363.052 23.4848 362.616 21.4915 362.616 19.1903C362.616 16.946 363.052 14.9763 363.923 13.2812C364.794 11.5862 366.02 10.2652 367.602 9.31818C369.193 8.37121 371.058 7.89773 373.199 7.89773C374.638 7.89773 375.978 8.12973 377.218 8.59375C378.468 9.0483 379.557 9.73485 380.485 10.6534C381.423 11.572 382.152 12.7273 382.673 14.1193C383.194 15.5019 383.454 17.1212 383.454 18.9773V20.6392H365.031V16.8892H377.758C377.758 16.018 377.569 15.2462 377.19 14.5739C376.811 13.9015 376.286 13.3759 375.613 12.9972C374.95 12.6089 374.179 12.4148 373.298 12.4148C372.379 12.4148 371.565 12.6278 370.855 13.054C370.154 13.4706 369.605 14.0341 369.207 14.7443C368.809 15.4451 368.606 16.2263 368.596 17.0881V20.6534C368.596 21.733 368.795 22.6657 369.193 23.4517C369.6 24.2377 370.173 24.8438 370.912 25.2699C371.65 25.696 372.526 25.9091 373.539 25.9091C374.212 25.9091 374.827 25.8144 375.386 25.625C375.945 25.4356 376.423 25.1515 376.821 24.7727C377.218 24.3939 377.521 23.9299 377.73 23.3807L383.326 23.75C383.042 25.0947 382.46 26.2689 381.579 27.2727C380.708 28.267 379.581 29.0436 378.199 29.6023C376.825 30.1515 375.239 30.4261 373.44 30.4261ZM402.542 0.90909L408.408 10.8239H408.635L414.53 0.90909H421.476L412.598 15.4545L421.675 30H414.601L408.635 20.071H408.408L402.442 30H395.397L404.502 15.4545L395.567 0.90909H402.542Z" fill="black"/>
<path d="M1287.41 15.4545C1287.41 18.6269 1286.81 21.3258 1285.61 23.5511C1284.42 25.7765 1282.79 27.4763 1280.72 28.6506C1278.67 29.8153 1276.36 30.3977 1273.79 30.3977C1271.21 30.3977 1268.89 29.8106 1266.83 28.6364C1264.78 27.4621 1263.15 25.7623 1261.96 23.5369C1260.77 21.3116 1260.17 18.6174 1260.17 15.4545C1260.17 12.2822 1260.77 9.58333 1261.96 7.35795C1263.15 5.13258 1264.78 3.4375 1266.83 2.27273C1268.89 1.09848 1271.21 0.511363 1273.79 0.511363C1276.36 0.511363 1278.67 1.09848 1280.72 2.27273C1282.79 3.4375 1284.42 5.13258 1285.61 7.35795C1286.81 9.58333 1287.41 12.2822 1287.41 15.4545ZM1281.18 15.4545C1281.18 13.3996 1280.87 11.6667 1280.25 10.2557C1279.65 8.8447 1278.79 7.77462 1277.68 7.04545C1276.58 6.31629 1275.28 5.9517 1273.79 5.9517C1272.3 5.9517 1271.01 6.31629 1269.9 7.04545C1268.79 7.77462 1267.93 8.8447 1267.31 10.2557C1266.71 11.6667 1266.41 13.3996 1266.41 15.4545C1266.41 17.5095 1266.71 19.2424 1267.31 20.6534C1267.93 22.0644 1268.79 23.1345 1269.9 23.8636C1271.01 24.5928 1272.3 24.9574 1273.79 24.9574C1275.28 24.9574 1276.58 24.5928 1277.68 23.8636C1278.79 23.1345 1279.65 22.0644 1280.25 20.6534C1280.87 19.2424 1281.18 17.5095 1281.18 15.4545ZM1305.85 20.7102V8.18182H1311.9V30H1306.09V26.0369H1305.86C1305.37 27.3153 1304.55 28.3428 1303.4 29.1193C1302.27 29.8958 1300.88 30.2841 1299.24 30.2841C1297.78 30.2841 1296.5 29.9527 1295.39 29.2898C1294.29 28.6269 1293.42 27.6847 1292.79 26.4631C1292.18 25.2415 1291.87 23.7784 1291.86 22.0739V8.18182H1297.91V20.9943C1297.92 22.2822 1298.26 23.3002 1298.94 24.0483C1299.63 24.7964 1300.54 25.1705 1301.69 25.1705C1302.41 25.1705 1303.1 25.0047 1303.73 24.6733C1304.37 24.3324 1304.88 23.8305 1305.27 23.1676C1305.66 22.5047 1305.86 21.6856 1305.85 20.7102ZM1328.34 8.18182V12.7273H1315.2V8.18182H1328.34ZM1318.19 2.95455H1324.24V23.2955C1324.24 23.8542 1324.32 24.2898 1324.49 24.6023C1324.67 24.9053 1324.9 25.1184 1325.2 25.2415C1325.52 25.3646 1325.88 25.4261 1326.28 25.4261C1326.57 25.4261 1326.85 25.4025 1327.14 25.3551C1327.42 25.2983 1327.64 25.2557 1327.79 25.2273L1328.74 29.7301C1328.44 29.8248 1328.01 29.9337 1327.46 30.0568C1326.91 30.1894 1326.25 30.2699 1325.46 30.2983C1324 30.3551 1322.72 30.161 1321.63 29.7159C1320.54 29.2708 1319.69 28.5795 1319.08 27.642C1318.48 26.7045 1318.18 25.5208 1318.19 24.0909V2.95455ZM1332.29 38.1818V8.18182H1338.25V11.8466H1338.52C1338.79 11.2595 1339.17 10.6629 1339.67 10.0568C1340.18 9.44129 1340.85 8.92992 1341.66 8.52273C1342.48 8.10606 1343.51 7.89773 1344.73 7.89773C1346.32 7.89773 1347.79 8.31439 1349.13 9.14773C1350.48 9.97159 1351.55 11.2169 1352.36 12.8835C1353.16 14.5407 1353.56 16.6193 1353.56 19.1193C1353.56 21.553 1353.17 23.608 1352.39 25.2841C1351.61 26.9508 1350.55 28.215 1349.2 29.0767C1347.87 29.929 1346.37 30.3551 1344.71 30.3551C1343.54 30.3551 1342.54 30.161 1341.72 29.7727C1340.9 29.3845 1340.24 28.8968 1339.71 28.3097C1339.19 27.7131 1338.8 27.1117 1338.52 26.5057H1338.34V38.1818H1332.29ZM1338.21 19.0909C1338.21 20.3883 1338.39 21.5199 1338.75 22.4858C1339.11 23.4517 1339.63 24.2045 1340.31 24.7443C1340.99 25.2746 1341.82 25.5398 1342.8 25.5398C1343.78 25.5398 1344.62 25.2699 1345.3 24.7301C1345.98 24.1809 1346.5 23.4233 1346.85 22.4574C1347.21 21.482 1347.39 20.3598 1347.39 19.0909C1347.39 17.8314 1347.21 16.7235 1346.86 15.767C1346.51 14.8106 1345.99 14.0625 1345.31 13.5227C1344.63 12.983 1343.79 12.7131 1342.8 12.7131C1341.81 12.7131 1340.98 12.9735 1340.3 13.4943C1339.62 14.0152 1339.11 14.7538 1338.75 15.7102C1338.39 16.6667 1338.21 17.7936 1338.21 19.0909ZM1371.59 20.7102V8.18182H1377.64V30H1371.83V26.0369H1371.6C1371.11 27.3153 1370.29 28.3428 1369.15 29.1193C1368.01 29.8958 1366.62 30.2841 1364.98 30.2841C1363.53 30.2841 1362.24 29.9527 1361.14 29.2898C1360.03 28.6269 1359.16 27.6847 1358.54 26.4631C1357.92 25.2415 1357.61 23.7784 1357.6 22.0739V8.18182H1363.65V20.9943C1363.66 22.2822 1364 23.3002 1364.69 24.0483C1365.37 24.7964 1366.28 25.1705 1367.43 25.1705C1368.16 25.1705 1368.84 25.0047 1369.47 24.6733C1370.11 24.3324 1370.62 23.8305 1371.01 23.1676C1371.41 22.5047 1371.6 21.6856 1371.59 20.7102ZM1394.09 8.18182V12.7273H1380.95V8.18182H1394.09ZM1383.93 2.95455H1389.98V23.2955C1389.98 23.8542 1390.07 24.2898 1390.24 24.6023C1390.41 24.9053 1390.64 25.1184 1390.95 25.2415C1391.26 25.3646 1391.62 25.4261 1392.03 25.4261C1392.31 25.4261 1392.59 25.4025 1392.88 25.3551C1393.16 25.2983 1393.38 25.2557 1393.53 25.2273L1394.48 29.7301C1394.18 29.8248 1393.75 29.9337 1393.21 30.0568C1392.66 30.1894 1391.99 30.2699 1391.2 30.2983C1389.74 30.3551 1388.47 30.161 1387.37 29.7159C1386.28 29.2708 1385.43 28.5795 1384.82 27.642C1384.22 26.7045 1383.92 25.5208 1383.93 24.0909V2.95455ZM1425.44 14.4034L1419.9 14.7443C1419.8 14.2708 1419.6 13.8447 1419.29 13.4659C1418.98 13.0777 1418.56 12.7699 1418.05 12.5426C1417.55 12.3059 1416.95 12.1875 1416.25 12.1875C1415.31 12.1875 1414.52 12.3864 1413.88 12.7841C1413.23 13.1723 1412.91 13.6932 1412.91 14.3466C1412.91 14.8674 1413.12 15.3078 1413.54 15.6676C1413.95 16.0275 1414.67 16.3163 1415.68 16.5341L1419.63 17.3295C1421.75 17.7652 1423.33 18.4659 1424.37 19.4318C1425.42 20.3977 1425.94 21.6667 1425.94 23.2386C1425.94 24.6686 1425.52 25.9233 1424.67 27.0028C1423.84 28.0824 1422.69 28.9252 1421.23 29.5312C1419.79 30.1278 1418.11 30.4261 1416.22 30.4261C1413.33 30.4261 1411.03 29.8248 1409.32 28.6222C1407.61 27.41 1406.61 25.7623 1406.32 23.679L1412.27 23.3665C1412.45 24.2472 1412.89 24.9195 1413.58 25.3835C1414.27 25.8381 1415.16 26.0653 1416.23 26.0653C1417.3 26.0653 1418.15 25.8617 1418.79 25.4545C1419.44 25.0379 1419.78 24.5028 1419.79 23.8494C1419.78 23.3002 1419.54 22.8504 1419.09 22.5C1418.64 22.1402 1417.93 21.8655 1416.99 21.6761L1413.21 20.9233C1411.08 20.4972 1409.49 19.7585 1408.45 18.7074C1407.42 17.6562 1406.9 16.3163 1406.9 14.6875C1406.9 13.286 1407.28 12.0786 1408.04 11.0653C1408.81 10.0521 1409.88 9.27083 1411.26 8.72159C1412.66 8.17235 1414.28 7.89773 1416.15 7.89773C1418.91 7.89773 1421.07 8.48011 1422.66 9.64489C1424.25 10.8097 1425.17 12.3958 1425.44 14.4034ZM1439.69 30.4261C1437.45 30.4261 1435.51 29.9716 1433.89 29.0625C1432.28 28.1439 1431.04 26.8466 1430.17 25.1705C1429.3 23.4848 1428.87 21.4915 1428.87 19.1903C1428.87 16.946 1429.3 14.9763 1430.17 13.2812C1431.04 11.5862 1432.27 10.2652 1433.85 9.31818C1435.44 8.37121 1437.31 7.89773 1439.45 7.89773C1440.89 7.89773 1442.23 8.12973 1443.47 8.59375C1444.72 9.0483 1445.81 9.73485 1446.74 10.6534C1447.67 11.572 1448.4 12.7273 1448.92 14.1193C1449.44 15.5019 1449.7 17.1212 1449.7 18.9773V20.6392H1431.28V16.8892H1444.01C1444.01 16.018 1443.82 15.2462 1443.44 14.5739C1443.06 13.9015 1442.54 13.3759 1441.86 12.9972C1441.2 12.6089 1440.43 12.4148 1439.55 12.4148C1438.63 12.4148 1437.81 12.6278 1437.1 13.054C1436.4 13.4706 1435.85 14.0341 1435.46 14.7443C1435.06 15.4451 1434.86 16.2263 1434.85 17.0881V20.6534C1434.85 21.733 1435.05 22.6657 1435.44 23.4517C1435.85 24.2377 1436.42 24.8438 1437.16 25.2699C1437.9 25.696 1438.78 25.9091 1439.79 25.9091C1440.46 25.9091 1441.08 25.8144 1441.64 25.625C1442.19 25.4356 1442.67 25.1515 1443.07 24.7727C1443.47 24.3939 1443.77 23.9299 1443.98 23.3807L1449.58 23.75C1449.29 25.0947 1448.71 26.2689 1447.83 27.2727C1446.96 28.267 1445.83 29.0436 1444.45 29.6023C1443.08 30.1515 1441.49 30.4261 1439.69 30.4261ZM1468.07 38.1818V26.5057H1467.89C1467.6 27.1117 1467.2 27.7131 1466.68 28.3097C1466.17 28.8968 1465.5 29.3845 1464.68 29.7727C1463.86 30.161 1462.87 30.3551 1461.69 30.3551C1460.04 30.3551 1458.53 29.929 1457.19 29.0767C1455.85 28.215 1454.79 26.9508 1454.01 25.2841C1453.23 23.608 1452.84 21.553 1452.84 19.1193C1452.84 16.6193 1453.25 14.5407 1454.05 12.8835C1454.86 11.2169 1455.93 9.97159 1457.26 9.14773C1458.61 8.31439 1460.08 7.89773 1461.68 7.89773C1462.9 7.89773 1463.92 8.10606 1464.73 8.52273C1465.56 8.92992 1466.22 9.44129 1466.72 10.0568C1467.23 10.6629 1467.62 11.2595 1467.89 11.8466H1468.14V8.18182H1474.11V38.1818H1468.07ZM1463.61 25.5398C1464.59 25.5398 1465.41 25.2746 1466.08 24.7443C1466.76 24.2045 1467.28 23.4517 1467.64 22.4858C1468.01 21.5199 1468.2 20.3883 1468.2 19.0909C1468.2 17.7936 1468.02 16.6667 1467.66 15.7102C1467.3 14.7538 1466.78 14.0152 1466.1 13.4943C1465.41 12.9735 1464.59 12.7131 1463.61 12.7131C1462.62 12.7131 1461.78 12.983 1461.1 13.5227C1460.41 14.0625 1459.9 14.8106 1459.55 15.767C1459.2 16.7235 1459.02 17.8314 1459.02 19.0909C1459.02 20.3598 1459.2 21.482 1459.55 22.4574C1459.91 23.4233 1460.42 24.1809 1461.1 24.7301C1461.78 25.2699 1462.62 25.5398 1463.61 25.5398ZM1492.96 20.7102V8.18182H1499.01V30H1493.2V26.0369H1492.97C1492.48 27.3153 1491.66 28.3428 1490.51 29.1193C1489.38 29.8958 1487.99 30.2841 1486.35 30.2841C1484.89 30.2841 1483.61 29.9527 1482.5 29.2898C1481.39 28.6269 1480.53 27.6847 1479.9 26.4631C1479.29 25.2415 1478.98 23.7784 1478.97 22.0739V8.18182H1485.02V20.9943C1485.03 22.2822 1485.37 23.3002 1486.05 24.0483C1486.74 24.7964 1487.65 25.1705 1488.8 25.1705C1489.52 25.1705 1490.21 25.0047 1490.84 24.6733C1491.48 24.3324 1491.99 23.8305 1492.37 23.1676C1492.77 22.5047 1492.97 21.6856 1492.96 20.7102ZM1513.79 30.4261C1511.55 30.4261 1509.62 29.9716 1508 29.0625C1506.39 28.1439 1505.15 26.8466 1504.27 25.1705C1503.4 23.4848 1502.97 21.4915 1502.97 19.1903C1502.97 16.946 1503.4 14.9763 1504.27 13.2812C1505.15 11.5862 1506.37 10.2652 1507.95 9.31818C1509.54 8.37121 1511.41 7.89773 1513.55 7.89773C1514.99 7.89773 1516.33 8.12973 1517.57 8.59375C1518.82 9.0483 1519.91 9.73485 1520.84 10.6534C1521.77 11.572 1522.5 12.7273 1523.02 14.1193C1523.55 15.5019 1523.81 17.1212 1523.81 18.9773V20.6392H1505.38V16.8892H1518.11C1518.11 16.018 1517.92 15.2462 1517.54 14.5739C1517.16 13.9015 1516.64 13.3759 1515.96 12.9972C1515.3 12.6089 1514.53 12.4148 1513.65 12.4148C1512.73 12.4148 1511.92 12.6278 1511.21 13.054C1510.51 13.4706 1509.96 14.0341 1509.56 14.7443C1509.16 15.4451 1508.96 16.2263 1508.95 17.0881V20.6534C1508.95 21.733 1509.15 22.6657 1509.54 23.4517C1509.95 24.2377 1510.52 24.8438 1511.26 25.2699C1512 25.696 1512.88 25.9091 1513.89 25.9091C1514.56 25.9091 1515.18 25.8144 1515.74 25.625C1516.3 25.4356 1516.77 25.1515 1517.17 24.7727C1517.57 24.3939 1517.87 23.9299 1518.08 23.3807L1523.68 23.75C1523.39 25.0947 1522.81 26.2689 1521.93 27.2727C1521.06 28.267 1519.93 29.0436 1518.55 29.6023C1517.18 30.1515 1515.59 30.4261 1513.79 30.4261ZM1533.81 17.3864V30H1527.75V8.18182H1533.52V12.0312H1533.78C1534.26 10.7623 1535.07 9.75852 1536.21 9.01989C1537.34 8.27178 1538.72 7.89773 1540.34 7.89773C1541.85 7.89773 1543.18 8.22917 1544.3 8.89205C1545.43 9.55492 1546.31 10.5019 1546.93 11.733C1547.56 12.9545 1547.87 14.4129 1547.87 16.108V30H1541.82V17.1875C1541.83 15.8523 1541.49 14.8106 1540.79 14.0625C1540.1 13.3049 1539.15 12.9261 1537.94 12.9261C1537.12 12.9261 1536.41 13.1013 1535.78 13.4517C1535.16 13.8021 1534.68 14.3134 1534.33 14.9858C1533.99 15.6487 1533.82 16.4489 1533.81 17.3864ZM1562.5 30.4261C1560.26 30.4261 1558.34 29.9527 1556.73 29.0057C1555.13 28.0492 1553.9 26.7235 1553.04 25.0284C1552.18 23.3333 1551.76 21.3826 1551.76 19.1761C1551.76 16.9413 1552.19 14.9811 1553.05 13.2955C1553.92 11.6004 1555.16 10.2794 1556.76 9.33239C1558.36 8.37595 1560.26 7.89773 1562.47 7.89773C1564.37 7.89773 1566.04 8.24337 1567.47 8.93466C1568.9 9.62595 1570.03 10.5966 1570.86 11.8466C1571.7 13.0966 1572.15 14.5644 1572.24 16.25H1566.53C1566.37 15.161 1565.94 14.285 1565.25 13.6222C1564.57 12.9498 1563.67 12.6136 1562.57 12.6136C1561.63 12.6136 1560.81 12.8693 1560.11 13.3807C1559.42 13.8826 1558.88 14.6165 1558.49 15.5824C1558.1 16.5483 1557.91 17.7178 1557.91 19.0909C1557.91 20.483 1558.1 21.6667 1558.48 22.642C1558.86 23.6174 1559.41 24.3608 1560.11 24.8722C1560.81 25.3835 1561.63 25.6392 1562.57 25.6392C1563.26 25.6392 1563.88 25.4972 1564.43 25.2131C1564.99 24.929 1565.45 24.517 1565.81 23.9773C1566.17 23.428 1566.42 22.7699 1566.53 22.0028H1572.24C1572.15 23.6695 1571.69 25.1373 1570.88 26.4062C1570.07 27.6657 1568.96 28.6506 1567.54 29.3608C1566.12 30.071 1564.44 30.4261 1562.5 30.4261ZM1586.06 30.4261C1583.81 30.4261 1581.88 29.9716 1580.26 29.0625C1578.65 28.1439 1577.41 26.8466 1576.54 25.1705C1575.67 23.4848 1575.23 21.4915 1575.23 19.1903C1575.23 16.946 1575.67 14.9763 1576.54 13.2812C1577.41 11.5862 1578.64 10.2652 1580.22 9.31818C1581.81 8.37121 1583.68 7.89773 1585.82 7.89773C1587.26 7.89773 1588.6 8.12973 1589.84 8.59375C1591.09 9.0483 1592.17 9.73485 1593.1 10.6534C1594.04 11.572 1594.77 12.7273 1595.29 14.1193C1595.81 15.5019 1596.07 17.1212 1596.07 18.9773V20.6392H1577.65V16.8892H1590.38C1590.38 16.018 1590.19 15.2462 1589.81 14.5739C1589.43 13.9015 1588.9 13.3759 1588.23 12.9972C1587.57 12.6089 1586.8 12.4148 1585.92 12.4148C1585 12.4148 1584.18 12.6278 1583.47 13.054C1582.77 13.4706 1582.22 14.0341 1581.82 14.7443C1581.43 15.4451 1581.22 16.2263 1581.21 17.0881V20.6534C1581.21 21.733 1581.41 22.6657 1581.81 23.4517C1582.22 24.2377 1582.79 24.8438 1583.53 25.2699C1584.27 25.696 1585.14 25.9091 1586.16 25.9091C1586.83 25.9091 1587.44 25.8144 1588 25.625C1588.56 25.4356 1589.04 25.1515 1589.44 24.7727C1589.84 24.3939 1590.14 23.9299 1590.35 23.3807L1595.94 23.75C1595.66 25.0947 1595.08 26.2689 1594.2 27.2727C1593.33 28.267 1592.2 29.0436 1590.82 29.6023C1589.44 30.1515 1587.86 30.4261 1586.06 30.4261ZM1607.69 0.90909H1614.58L1621.21 13.4375H1621.49L1628.13 0.90909H1635.02L1624.41 19.7159V30H1618.3V19.7159L1607.69 0.90909Z" fill="black"/>
<path d="M1234.96 207H1225.98V177.909H1235.36C1238.18 177.909 1240.6 178.491 1242.6 179.656C1244.61 180.812 1246.15 182.473 1247.22 184.642C1248.29 186.801 1248.82 189.386 1248.82 192.398C1248.82 195.428 1248.28 198.037 1247.21 200.224C1246.13 202.402 1244.55 204.079 1242.49 205.253C1240.42 206.418 1237.92 207 1234.96 207ZM1229.51 203.875H1234.73C1237.14 203.875 1239.13 203.411 1240.71 202.483C1242.3 201.555 1243.47 200.234 1244.25 198.52C1245.03 196.806 1245.42 194.765 1245.42 192.398C1245.42 190.049 1245.03 188.027 1244.26 186.332C1243.5 184.628 1242.35 183.321 1240.83 182.412C1239.3 181.493 1237.4 181.034 1235.13 181.034H1229.51V203.875ZM1260.7 207.511C1259.32 207.511 1258.06 207.251 1256.94 206.73C1255.81 206.2 1254.91 205.438 1254.25 204.443C1253.59 203.439 1253.26 202.227 1253.26 200.807C1253.26 199.557 1253.5 198.544 1254 197.767C1254.49 196.981 1255.15 196.366 1255.97 195.92C1256.79 195.475 1257.7 195.144 1258.7 194.926C1259.7 194.699 1260.71 194.519 1261.72 194.386C1263.05 194.216 1264.12 194.088 1264.95 194.003C1265.78 193.908 1266.39 193.752 1266.76 193.534C1267.15 193.316 1267.35 192.937 1267.35 192.398V192.284C1267.35 190.883 1266.96 189.794 1266.2 189.017C1265.44 188.241 1264.29 187.852 1262.75 187.852C1261.14 187.852 1259.89 188.203 1258.98 188.903C1258.07 189.604 1257.43 190.352 1257.06 191.148L1253.88 190.011C1254.45 188.686 1255.21 187.653 1256.15 186.915C1257.11 186.167 1258.15 185.646 1259.28 185.352C1260.42 185.049 1261.53 184.898 1262.63 184.898C1263.33 184.898 1264.14 184.983 1265.05 185.153C1265.96 185.314 1266.85 185.651 1267.7 186.162C1268.56 186.673 1269.28 187.445 1269.85 188.477C1270.42 189.509 1270.7 190.892 1270.7 192.625V207H1267.35V204.045H1267.18C1266.95 204.519 1266.57 205.026 1266.04 205.565C1265.51 206.105 1264.8 206.564 1263.92 206.943C1263.04 207.322 1261.97 207.511 1260.7 207.511ZM1261.21 204.5C1262.54 204.5 1263.65 204.24 1264.56 203.719C1265.48 203.198 1266.17 202.526 1266.64 201.702C1267.11 200.878 1267.35 200.011 1267.35 199.102V196.034C1267.21 196.205 1266.89 196.361 1266.41 196.503C1265.94 196.635 1265.39 196.754 1264.76 196.858C1264.15 196.953 1263.55 197.038 1262.96 197.114C1262.38 197.18 1261.91 197.237 1261.55 197.284C1260.68 197.398 1259.87 197.582 1259.11 197.838C1258.36 198.084 1257.75 198.458 1257.29 198.96C1256.84 199.453 1256.61 200.125 1256.61 200.977C1256.61 202.142 1257.04 203.023 1257.9 203.619C1258.77 204.206 1259.88 204.5 1261.21 204.5ZM1292.27 190.068L1289.26 190.92C1289.07 190.419 1288.79 189.931 1288.42 189.457C1288.06 188.974 1287.57 188.577 1286.95 188.264C1286.32 187.952 1285.52 187.795 1284.55 187.795C1283.21 187.795 1282.1 188.103 1281.21 188.719C1280.33 189.325 1279.89 190.097 1279.89 191.034C1279.89 191.867 1280.19 192.526 1280.8 193.009C1281.4 193.491 1282.35 193.894 1283.64 194.216L1286.88 195.011C1288.83 195.485 1290.28 196.209 1291.24 197.185C1292.19 198.151 1292.67 199.396 1292.67 200.92C1292.67 202.17 1292.31 203.288 1291.59 204.273C1290.88 205.258 1289.89 206.034 1288.61 206.602C1287.33 207.17 1285.84 207.455 1284.15 207.455C1281.92 207.455 1280.08 206.972 1278.62 206.006C1277.16 205.04 1276.24 203.629 1275.85 201.773L1279.03 200.977C1279.34 202.152 1279.91 203.032 1280.75 203.619C1281.61 204.206 1282.72 204.5 1284.09 204.5C1285.65 204.5 1286.89 204.169 1287.81 203.506C1288.74 202.833 1289.2 202.028 1289.2 201.091C1289.2 200.333 1288.94 199.699 1288.41 199.188C1287.88 198.667 1287.06 198.278 1285.97 198.023L1282.33 197.17C1280.33 196.697 1278.86 195.963 1277.93 194.969C1277 193.965 1276.53 192.71 1276.53 191.205C1276.53 189.973 1276.88 188.884 1277.57 187.938C1278.27 186.991 1279.22 186.247 1280.43 185.707C1281.64 185.168 1283.01 184.898 1284.55 184.898C1286.7 184.898 1288.4 185.371 1289.63 186.318C1290.87 187.265 1291.75 188.515 1292.27 190.068ZM1314.71 207L1306.75 177.909H1310.33L1316.41 201.602H1316.69L1322.89 177.909H1326.86L1333.06 201.602H1333.34L1339.42 177.909H1343L1335.05 207H1331.41L1324.99 183.818H1324.76L1318.34 207H1314.71ZM1354.05 207.455C1351.95 207.455 1350.14 206.991 1348.61 206.062C1347.1 205.125 1345.93 203.818 1345.1 202.142C1344.29 200.456 1343.88 198.496 1343.88 196.261C1343.88 194.027 1344.29 192.057 1345.1 190.352C1345.93 188.638 1347.07 187.303 1348.54 186.347C1350.02 185.381 1351.74 184.898 1353.71 184.898C1354.85 184.898 1355.97 185.087 1357.08 185.466C1358.19 185.845 1359.19 186.46 1360.1 187.312C1361.01 188.155 1361.74 189.273 1362.28 190.665C1362.82 192.057 1363.09 193.771 1363.09 195.807V197.227H1346.27V194.33H1359.68C1359.68 193.098 1359.43 192 1358.94 191.034C1358.46 190.068 1357.76 189.306 1356.86 188.747C1355.97 188.188 1354.92 187.909 1353.71 187.909C1352.38 187.909 1351.22 188.241 1350.25 188.903C1349.28 189.557 1348.54 190.409 1348.01 191.46C1347.49 192.511 1347.23 193.638 1347.23 194.841V196.773C1347.23 198.42 1347.52 199.817 1348.09 200.963C1348.66 202.099 1349.46 202.966 1350.49 203.562C1351.51 204.15 1352.7 204.443 1354.05 204.443C1354.93 204.443 1355.73 204.32 1356.44 204.074C1357.16 203.818 1357.78 203.439 1358.3 202.938C1358.82 202.426 1359.22 201.792 1359.51 201.034L1362.75 201.943C1362.4 203.042 1361.83 204.008 1361.03 204.841C1360.22 205.665 1359.23 206.309 1358.04 206.773C1356.86 207.227 1355.53 207.455 1354.05 207.455ZM1377.67 185.182V188.023H1366.37V185.182H1377.67ZM1369.66 179.955H1373.01V200.75C1373.01 201.697 1373.15 202.407 1373.43 202.881C1373.71 203.345 1374.07 203.657 1374.51 203.818C1374.95 203.97 1375.42 204.045 1375.91 204.045C1376.28 204.045 1376.58 204.027 1376.82 203.989C1377.06 203.941 1377.25 203.903 1377.39 203.875L1378.07 206.886C1377.84 206.972 1377.53 207.057 1377.12 207.142C1376.71 207.237 1376.2 207.284 1375.57 207.284C1374.62 207.284 1373.7 207.08 1372.79 206.673C1371.89 206.266 1371.14 205.646 1370.54 204.812C1369.96 203.979 1369.66 202.928 1369.66 201.659V179.955ZM1392.21 185.182V188.023H1380.9V185.182H1392.21ZM1384.19 179.955H1387.55V200.75C1387.55 201.697 1387.68 202.407 1387.96 202.881C1388.24 203.345 1388.6 203.657 1389.04 203.818C1389.48 203.97 1389.95 204.045 1390.44 204.045C1390.81 204.045 1391.12 204.027 1391.35 203.989C1391.59 203.941 1391.78 203.903 1391.92 203.875L1392.6 206.886C1392.38 206.972 1392.06 207.057 1391.65 207.142C1391.24 207.237 1390.73 207.284 1390.1 207.284C1389.16 207.284 1388.23 207.08 1387.32 206.673C1386.42 206.266 1385.67 205.646 1385.07 204.812C1384.49 203.979 1384.19 202.928 1384.19 201.659V179.955ZM1406.16 207.455C1404.06 207.455 1402.25 206.991 1400.72 206.062C1399.21 205.125 1398.04 203.818 1397.21 202.142C1396.4 200.456 1395.99 198.496 1395.99 196.261C1395.99 194.027 1396.4 192.057 1397.21 190.352C1398.04 188.638 1399.18 187.303 1400.65 186.347C1402.13 185.381 1403.85 184.898 1405.82 184.898C1406.96 184.898 1408.08 185.087 1409.19 185.466C1410.29 185.845 1411.3 186.46 1412.21 187.312C1413.12 188.155 1413.85 189.273 1414.39 190.665C1414.93 192.057 1415.2 193.771 1415.2 195.807V197.227H1398.38V194.33H1411.79C1411.79 193.098 1411.54 192 1411.05 191.034C1410.56 190.068 1409.87 189.306 1408.97 188.747C1408.08 188.188 1407.03 187.909 1405.82 187.909C1404.49 187.909 1403.33 188.241 1402.35 188.903C1401.39 189.557 1400.65 190.409 1400.12 191.46C1399.6 192.511 1399.34 193.638 1399.34 194.841V196.773C1399.34 198.42 1399.63 199.817 1400.2 200.963C1400.77 202.099 1401.57 202.966 1402.6 203.562C1403.62 204.15 1404.81 204.443 1406.16 204.443C1407.04 204.443 1407.84 204.32 1408.55 204.074C1409.27 203.818 1409.89 203.439 1410.41 202.938C1410.93 202.426 1411.33 201.792 1411.62 201.034L1414.85 201.943C1414.51 203.042 1413.94 204.008 1413.14 204.841C1412.33 205.665 1411.34 206.309 1410.15 206.773C1408.97 207.227 1407.64 207.455 1406.16 207.455ZM1420.29 207V185.182H1423.53V188.477H1423.76C1424.16 187.398 1424.88 186.522 1425.92 185.849C1426.96 185.177 1428.14 184.841 1429.44 184.841C1429.69 184.841 1430 184.846 1430.37 184.855C1430.74 184.865 1431.01 184.879 1431.2 184.898V188.307C1431.09 188.278 1430.83 188.236 1430.42 188.179C1430.02 188.113 1429.6 188.08 1429.16 188.08C1428.1 188.08 1427.15 188.302 1426.32 188.747C1425.49 189.183 1424.84 189.789 1424.36 190.565C1423.88 191.332 1423.65 192.208 1423.65 193.193V207H1420.29ZM1446.43 207V185.182H1449.78V207H1446.43ZM1448.13 181.545C1447.48 181.545 1446.92 181.323 1446.44 180.878C1445.98 180.433 1445.75 179.898 1445.75 179.273C1445.75 178.648 1445.98 178.113 1446.44 177.668C1446.92 177.223 1447.48 177 1448.13 177C1448.79 177 1449.34 177.223 1449.81 177.668C1450.28 178.113 1450.52 178.648 1450.52 179.273C1450.52 179.898 1450.28 180.433 1449.81 180.878C1449.34 181.323 1448.79 181.545 1448.13 181.545ZM1471.37 190.068L1468.36 190.92C1468.17 190.419 1467.89 189.931 1467.52 189.457C1467.17 188.974 1466.67 188.577 1466.05 188.264C1465.42 187.952 1464.62 187.795 1463.65 187.795C1462.31 187.795 1461.2 188.103 1460.31 188.719C1459.43 189.325 1458.99 190.097 1458.99 191.034C1458.99 191.867 1459.29 192.526 1459.9 193.009C1460.5 193.491 1461.45 193.894 1462.74 194.216L1465.98 195.011C1467.93 195.485 1469.38 196.209 1470.34 197.185C1471.29 198.151 1471.77 199.396 1471.77 200.92C1471.77 202.17 1471.41 203.288 1470.69 204.273C1469.98 205.258 1468.99 206.034 1467.71 206.602C1466.43 207.17 1464.94 207.455 1463.25 207.455C1461.02 207.455 1459.18 206.972 1457.72 206.006C1456.27 205.04 1455.34 203.629 1454.95 201.773L1458.14 200.977C1458.44 202.152 1459.01 203.032 1459.85 203.619C1460.71 204.206 1461.82 204.5 1463.19 204.5C1464.75 204.5 1466 204.169 1466.91 203.506C1467.84 202.833 1468.31 202.028 1468.31 201.091C1468.31 200.333 1468.04 199.699 1467.51 199.188C1466.98 198.667 1466.17 198.278 1465.07 198.023L1461.43 197.17C1459.43 196.697 1457.97 195.963 1457.03 194.969C1456.1 193.965 1455.64 192.71 1455.64 191.205C1455.64 189.973 1455.98 188.884 1456.67 187.938C1457.37 186.991 1458.33 186.247 1459.53 185.707C1460.74 185.168 1462.11 184.898 1463.65 184.898C1465.81 184.898 1467.5 185.371 1468.73 186.318C1469.97 187.265 1470.85 188.515 1471.37 190.068ZM1486.31 185.182V188.023H1475V185.182H1486.31ZM1478.3 179.955H1481.65V200.75C1481.65 201.697 1481.79 202.407 1482.06 202.881C1482.34 203.345 1482.7 203.657 1483.14 203.818C1483.58 203.97 1484.05 204.045 1484.55 204.045C1484.91 204.045 1485.22 204.027 1485.45 203.989C1485.69 203.941 1485.88 203.903 1486.02 203.875L1486.7 206.886C1486.48 206.972 1486.16 207.057 1485.75 207.142C1485.35 207.237 1484.83 207.284 1484.2 207.284C1483.26 207.284 1482.33 207.08 1481.42 206.673C1480.52 206.266 1479.77 205.646 1479.18 204.812C1478.59 203.979 1478.3 202.928 1478.3 201.659V179.955ZM1505.95 193.875V207H1502.6V177.909H1505.95V188.591H1506.24C1506.75 187.464 1507.51 186.569 1508.54 185.906C1509.57 185.234 1510.94 184.898 1512.66 184.898C1514.14 184.898 1515.45 185.196 1516.56 185.793C1517.68 186.38 1518.55 187.284 1519.16 188.506C1519.79 189.718 1520.1 191.261 1520.1 193.136V207H1516.75V193.364C1516.75 191.631 1516.3 190.291 1515.4 189.344C1514.51 188.387 1513.27 187.909 1511.69 187.909C1510.59 187.909 1509.61 188.141 1508.74 188.605C1507.87 189.069 1507.19 189.746 1506.69 190.636C1506.2 191.527 1505.95 192.606 1505.95 193.875ZM1535.38 207.455C1533.28 207.455 1531.46 206.991 1529.94 206.062C1528.42 205.125 1527.25 203.818 1526.43 202.142C1525.62 200.456 1525.21 198.496 1525.21 196.261C1525.21 194.027 1525.62 192.057 1526.43 190.352C1527.25 188.638 1528.4 187.303 1529.87 186.347C1531.35 185.381 1533.07 184.898 1535.04 184.898C1536.18 184.898 1537.3 185.087 1538.41 185.466C1539.51 185.845 1540.52 186.46 1541.43 187.312C1542.34 188.155 1543.06 189.273 1543.6 190.665C1544.14 192.057 1544.41 193.771 1544.41 195.807V197.227H1527.6V194.33H1541C1541 193.098 1540.76 192 1540.27 191.034C1539.78 190.068 1539.09 189.306 1538.19 188.747C1537.3 188.188 1536.25 187.909 1535.04 187.909C1533.7 187.909 1532.55 188.241 1531.57 188.903C1530.61 189.557 1529.86 190.409 1529.34 191.46C1528.82 192.511 1528.56 193.638 1528.56 194.841V196.773C1528.56 198.42 1528.85 199.817 1529.41 200.963C1529.99 202.099 1530.79 202.966 1531.81 203.562C1532.84 204.15 1534.03 204.443 1535.38 204.443C1536.26 204.443 1537.06 204.32 1537.77 204.074C1538.49 203.818 1539.11 203.439 1539.63 202.938C1540.15 202.426 1540.55 201.792 1540.83 201.034L1544.07 201.943C1543.73 203.042 1543.16 204.008 1542.35 204.841C1541.55 205.665 1540.56 206.309 1539.37 206.773C1538.19 207.227 1536.86 207.455 1535.38 207.455ZM1563.26 198.08V185.182H1566.62V207H1563.26V203.307H1563.04C1562.52 204.415 1561.73 205.357 1560.65 206.134C1559.57 206.901 1558.21 207.284 1556.56 207.284C1555.2 207.284 1553.98 206.986 1552.92 206.389C1551.86 205.783 1551.03 204.874 1550.42 203.662C1549.82 202.44 1549.51 200.902 1549.51 199.045V185.182H1552.87V198.818C1552.87 200.409 1553.31 201.678 1554.2 202.625C1555.1 203.572 1556.25 204.045 1557.64 204.045C1558.47 204.045 1559.32 203.832 1560.18 203.406C1561.05 202.98 1561.78 202.327 1562.37 201.446C1562.97 200.565 1563.26 199.443 1563.26 198.08ZM1582.24 185.182V188.023H1570.94V185.182H1582.24ZM1574.23 179.955H1577.59V200.75C1577.59 201.697 1577.72 202.407 1578 202.881C1578.28 203.345 1578.64 203.657 1579.08 203.818C1579.52 203.97 1579.99 204.045 1580.48 204.045C1580.85 204.045 1581.16 204.027 1581.39 203.989C1581.63 203.941 1581.82 203.903 1581.96 203.875L1582.64 206.886C1582.41 206.972 1582.1 207.057 1581.69 207.142C1581.28 207.237 1580.77 207.284 1580.14 207.284C1579.2 207.284 1578.27 207.08 1577.36 206.673C1576.46 206.266 1575.71 205.646 1575.11 204.812C1574.53 203.979 1574.23 202.928 1574.23 201.659V179.955ZM1596.2 207.455C1594.1 207.455 1592.28 206.991 1590.76 206.062C1589.24 205.125 1588.08 203.818 1587.25 202.142C1586.44 200.456 1586.03 198.496 1586.03 196.261C1586.03 194.027 1586.44 192.057 1587.25 190.352C1588.08 188.638 1589.22 187.303 1590.69 186.347C1592.17 185.381 1593.89 184.898 1595.86 184.898C1597 184.898 1598.12 185.087 1599.23 185.466C1600.33 185.845 1601.34 186.46 1602.25 187.312C1603.16 188.155 1603.88 189.273 1604.42 190.665C1604.96 192.057 1605.23 193.771 1605.23 195.807V197.227H1588.42V194.33H1601.83C1601.83 193.098 1601.58 192 1601.09 191.034C1600.6 190.068 1599.91 189.306 1599.01 188.747C1598.12 188.188 1597.07 187.909 1595.86 187.909C1594.52 187.909 1593.37 188.241 1592.39 188.903C1591.43 189.557 1590.68 190.409 1590.16 191.46C1589.64 192.511 1589.38 193.638 1589.38 194.841V196.773C1589.38 198.42 1589.67 199.817 1590.23 200.963C1590.81 202.099 1591.61 202.966 1592.63 203.562C1593.66 204.15 1594.85 204.443 1596.2 204.443C1597.08 204.443 1597.88 204.32 1598.59 204.074C1599.31 203.818 1599.93 203.439 1600.45 202.938C1600.97 202.426 1601.37 201.792 1601.65 201.034L1604.89 201.943C1604.55 203.042 1603.98 204.008 1603.17 204.841C1602.37 205.665 1601.38 206.309 1600.19 206.773C1599.01 207.227 1597.68 207.455 1596.2 207.455ZM1630.39 215.636C1628.77 215.636 1627.38 215.428 1626.21 215.011C1625.05 214.604 1624.08 214.064 1623.3 213.392C1622.54 212.729 1621.92 212.019 1621.47 211.261L1624.14 209.386C1624.44 209.784 1624.83 210.239 1625.29 210.75C1625.76 211.271 1626.39 211.721 1627.19 212.099C1628.01 212.488 1629.07 212.682 1630.39 212.682C1632.15 212.682 1633.61 212.256 1634.75 211.403C1635.9 210.551 1636.47 209.216 1636.47 207.398V202.966H1636.19C1635.94 203.364 1635.59 203.856 1635.13 204.443C1634.69 205.021 1634.05 205.537 1633.2 205.991C1632.37 206.437 1631.24 206.659 1629.82 206.659C1628.06 206.659 1626.48 206.242 1625.08 205.409C1623.69 204.576 1622.58 203.364 1621.77 201.773C1620.96 200.182 1620.56 198.25 1620.56 195.977C1620.56 193.742 1620.95 191.796 1621.74 190.139C1622.53 188.473 1623.62 187.185 1625.02 186.276C1626.42 185.357 1628.04 184.898 1629.88 184.898C1631.3 184.898 1632.43 185.134 1633.26 185.608C1634.1 186.072 1634.75 186.602 1635.19 187.199C1635.65 187.786 1636 188.269 1636.24 188.648H1636.58V185.182H1639.82V207.625C1639.82 209.5 1639.4 211.025 1638.54 212.199C1637.7 213.383 1636.56 214.249 1635.13 214.798C1633.71 215.357 1632.13 215.636 1630.39 215.636ZM1630.28 203.648C1631.62 203.648 1632.76 203.34 1633.69 202.724C1634.61 202.109 1635.32 201.223 1635.8 200.068C1636.29 198.913 1636.53 197.53 1636.53 195.92C1636.53 194.348 1636.29 192.961 1635.82 191.759C1635.34 190.556 1634.64 189.614 1633.71 188.932C1632.79 188.25 1631.64 187.909 1630.28 187.909C1628.86 187.909 1627.67 188.269 1626.73 188.989C1625.79 189.708 1625.08 190.674 1624.61 191.886C1624.15 193.098 1623.91 194.443 1623.91 195.92C1623.91 197.436 1624.15 198.776 1624.62 199.94C1625.11 201.096 1625.82 202.005 1626.75 202.668C1627.7 203.321 1628.88 203.648 1630.28 203.648ZM1645.96 207V185.182H1649.2V188.477H1649.42C1649.82 187.398 1650.54 186.522 1651.58 185.849C1652.63 185.177 1653.8 184.841 1655.11 184.841C1655.35 184.841 1655.66 184.846 1656.03 184.855C1656.4 184.865 1656.68 184.879 1656.87 184.898V188.307C1656.75 188.278 1656.49 188.236 1656.09 188.179C1655.69 188.113 1655.27 188.08 1654.82 188.08C1653.76 188.08 1652.81 188.302 1651.98 188.747C1651.16 189.183 1650.5 189.789 1650.02 190.565C1649.55 191.332 1649.31 192.208 1649.31 193.193V207H1645.96ZM1669.04 207.455C1667.07 207.455 1665.34 206.986 1663.86 206.048C1662.38 205.111 1661.22 203.799 1660.39 202.114C1659.57 200.428 1659.15 198.458 1659.15 196.205C1659.15 193.932 1659.57 191.948 1660.39 190.253C1661.22 188.558 1662.38 187.241 1663.86 186.304C1665.34 185.366 1667.07 184.898 1669.04 184.898C1671.01 184.898 1672.73 185.366 1674.21 186.304C1675.7 187.241 1676.85 188.558 1677.68 190.253C1678.51 191.948 1678.93 193.932 1678.93 196.205C1678.93 198.458 1678.51 200.428 1677.68 202.114C1676.85 203.799 1675.7 205.111 1674.21 206.048C1672.73 206.986 1671.01 207.455 1669.04 207.455ZM1669.04 204.443C1670.54 204.443 1671.77 204.06 1672.73 203.293C1673.7 202.526 1674.42 201.517 1674.88 200.267C1675.34 199.017 1675.58 197.663 1675.58 196.205C1675.58 194.746 1675.34 193.387 1674.88 192.128C1674.42 190.868 1673.7 189.85 1672.73 189.074C1671.77 188.297 1670.54 187.909 1669.04 187.909C1667.54 187.909 1666.31 188.297 1665.35 189.074C1664.38 189.85 1663.67 190.868 1663.2 192.128C1662.74 193.387 1662.51 194.746 1662.51 196.205C1662.51 197.663 1662.74 199.017 1663.2 200.267C1663.67 201.517 1664.38 202.526 1665.35 203.293C1666.31 204.06 1667.54 204.443 1669.04 204.443ZM1684.5 207V185.352C1684.5 183.733 1684.85 182.336 1685.56 181.162C1686.28 179.988 1687.27 179.088 1688.53 178.463C1689.8 177.829 1691.26 177.511 1692.91 177.511C1694.52 177.511 1695.96 177.814 1697.24 178.42C1698.52 179.027 1699.53 179.888 1700.27 181.006C1701 182.123 1701.37 183.458 1701.37 185.011C1701.37 186.669 1700.95 188.065 1700.1 189.202C1699.24 190.329 1698.14 191.129 1696.77 191.602V191.886C1698.62 192.066 1700.13 192.791 1701.3 194.06C1702.49 195.319 1703.08 196.962 1703.08 198.989C1703.08 200.523 1702.73 201.896 1702.03 203.108C1701.33 204.311 1700.34 205.262 1699.07 205.963C1697.8 206.654 1696.32 207 1694.61 207H1691.43V203.875H1694.67C1695.7 203.875 1696.59 203.667 1697.34 203.25C1698.1 202.833 1698.68 202.256 1699.1 201.517C1699.52 200.778 1699.73 199.936 1699.73 198.989C1699.73 197.492 1699.22 196.257 1698.21 195.281C1697.19 194.306 1695.83 193.818 1694.1 193.818H1691.54V190.636H1693.36C1694.32 190.636 1695.14 190.395 1695.83 189.912C1696.54 189.42 1697.08 188.785 1697.45 188.009C1697.83 187.223 1698.02 186.394 1698.02 185.523C1698.02 184.159 1697.57 183.004 1696.66 182.057C1695.76 181.11 1694.53 180.636 1692.97 180.636C1691.5 180.636 1690.28 181.077 1689.3 181.957C1688.33 182.829 1687.85 183.96 1687.85 185.352V207H1684.5ZM1714.84 207.511C1713.46 207.511 1712.2 207.251 1711.08 206.73C1709.95 206.2 1709.05 205.438 1708.39 204.443C1707.73 203.439 1707.4 202.227 1707.4 200.807C1707.4 199.557 1707.64 198.544 1708.14 197.767C1708.63 196.981 1709.29 196.366 1710.11 195.92C1710.93 195.475 1711.84 195.144 1712.84 194.926C1713.84 194.699 1714.85 194.519 1715.86 194.386C1717.19 194.216 1718.26 194.088 1719.09 194.003C1719.92 193.908 1720.53 193.752 1720.91 193.534C1721.29 193.316 1721.49 192.937 1721.49 192.398V192.284C1721.49 190.883 1721.1 189.794 1720.34 189.017C1719.58 188.241 1718.43 187.852 1716.89 187.852C1715.29 187.852 1714.03 188.203 1713.12 188.903C1712.21 189.604 1711.57 190.352 1711.2 191.148L1708.02 190.011C1708.59 188.686 1709.35 187.653 1710.29 186.915C1711.25 186.167 1712.29 185.646 1713.42 185.352C1714.56 185.049 1715.67 184.898 1716.77 184.898C1717.47 184.898 1718.28 184.983 1719.19 185.153C1720.11 185.314 1720.99 185.651 1721.84 186.162C1722.7 186.673 1723.42 187.445 1723.99 188.477C1724.56 189.509 1724.84 190.892 1724.84 192.625V207H1721.49V204.045H1721.32C1721.09 204.519 1720.71 205.026 1720.18 205.565C1719.65 206.105 1718.95 206.564 1718.06 206.943C1717.18 207.322 1716.11 207.511 1714.84 207.511ZM1715.35 204.5C1716.68 204.5 1717.79 204.24 1718.7 203.719C1719.62 203.198 1720.31 202.526 1720.78 201.702C1721.25 200.878 1721.49 200.011 1721.49 199.102V196.034C1721.35 196.205 1721.03 196.361 1720.55 196.503C1720.08 196.635 1719.53 196.754 1718.9 196.858C1718.29 196.953 1717.69 197.038 1717.1 197.114C1716.52 197.18 1716.05 197.237 1715.69 197.284C1714.82 197.398 1714.01 197.582 1713.25 197.838C1712.5 198.084 1711.9 198.458 1711.43 198.96C1710.98 199.453 1710.75 200.125 1710.75 200.977C1710.75 202.142 1711.18 203.023 1712.04 203.619C1712.91 204.206 1714.02 204.5 1715.35 204.5ZM1730.96 207V185.182H1734.2V188.477H1734.42C1734.82 187.398 1735.54 186.522 1736.58 185.849C1737.63 185.177 1738.8 184.841 1740.11 184.841C1740.35 184.841 1740.66 184.846 1741.03 184.855C1741.4 184.865 1741.68 184.879 1741.87 184.898V188.307C1741.75 188.278 1741.49 188.236 1741.09 188.179C1740.69 188.113 1740.27 188.08 1739.82 188.08C1738.76 188.08 1737.81 188.302 1736.98 188.747C1736.16 189.183 1735.5 189.789 1735.02 190.565C1734.55 191.332 1734.31 192.208 1734.31 193.193V207H1730.96ZM1756.7 185.182V188.023H1745.39V185.182H1756.7ZM1748.69 179.955H1752.04V200.75C1752.04 201.697 1752.18 202.407 1752.45 202.881C1752.73 203.345 1753.09 203.657 1753.53 203.818C1753.97 203.97 1754.44 204.045 1754.94 204.045C1755.31 204.045 1755.61 204.027 1755.85 203.989C1756.08 203.941 1756.27 203.903 1756.41 203.875L1757.1 206.886C1756.87 206.972 1756.55 207.057 1756.14 207.142C1755.74 207.237 1755.22 207.284 1754.6 207.284C1753.65 207.284 1752.72 207.08 1751.81 206.673C1750.91 206.266 1750.16 205.646 1749.57 204.812C1748.98 203.979 1748.69 202.928 1748.69 201.659V179.955ZM1761.74 207V185.182H1765.09V207H1761.74ZM1763.44 181.545C1762.79 181.545 1762.23 181.323 1761.75 180.878C1761.29 180.433 1761.06 179.898 1761.06 179.273C1761.06 178.648 1761.29 178.113 1761.75 177.668C1762.23 177.223 1762.79 177 1763.44 177C1764.1 177 1764.66 177.223 1765.12 177.668C1765.59 178.113 1765.83 178.648 1765.83 179.273C1765.83 179.898 1765.59 180.433 1765.12 180.878C1764.66 181.323 1764.1 181.545 1763.44 181.545ZM1780.04 215.636C1778.42 215.636 1777.03 215.428 1775.86 215.011C1774.7 214.604 1773.73 214.064 1772.95 213.392C1772.18 212.729 1771.57 212.019 1771.12 211.261L1773.79 209.386C1774.09 209.784 1774.48 210.239 1774.94 210.75C1775.4 211.271 1776.04 211.721 1776.84 212.099C1777.66 212.488 1778.72 212.682 1780.04 212.682C1781.8 212.682 1783.25 212.256 1784.4 211.403C1785.55 210.551 1786.12 209.216 1786.12 207.398V202.966H1785.83C1785.59 203.364 1785.24 203.856 1784.78 204.443C1784.34 205.021 1783.69 205.537 1782.85 205.991C1782.02 206.437 1780.89 206.659 1779.47 206.659C1777.71 206.659 1776.13 206.242 1774.73 205.409C1773.33 204.576 1772.23 203.364 1771.42 201.773C1770.61 200.182 1770.21 198.25 1770.21 195.977C1770.21 193.742 1770.6 191.796 1771.39 190.139C1772.17 188.473 1773.27 187.185 1774.67 186.276C1776.07 185.357 1777.69 184.898 1779.53 184.898C1780.95 184.898 1782.08 185.134 1782.91 185.608C1783.75 186.072 1784.4 186.602 1784.84 187.199C1785.29 187.786 1785.65 188.269 1785.89 188.648H1786.23V185.182H1789.47V207.625C1789.47 209.5 1789.04 211.025 1788.19 212.199C1787.35 213.383 1786.21 214.249 1784.78 214.798C1783.36 215.357 1781.78 215.636 1780.04 215.636ZM1779.93 203.648C1781.27 203.648 1782.41 203.34 1783.33 202.724C1784.26 202.109 1784.97 201.223 1785.45 200.068C1785.93 198.913 1786.18 197.53 1786.18 195.92C1786.18 194.348 1785.94 192.961 1785.47 191.759C1784.99 190.556 1784.29 189.614 1783.36 188.932C1782.43 188.25 1781.29 187.909 1779.93 187.909C1778.5 187.909 1777.32 188.269 1776.37 188.989C1775.44 189.708 1774.73 190.674 1774.26 191.886C1773.79 193.098 1773.56 194.443 1773.56 195.92C1773.56 197.436 1773.8 198.776 1774.27 199.94C1774.75 201.096 1775.47 202.005 1776.4 202.668C1777.35 203.321 1778.52 203.648 1779.93 203.648Z" fill="black"/>
<path d="M606.061 195.061C606.646 194.475 606.646 193.525 606.061 192.939L596.515 183.393C595.929 182.808 594.979 182.808 594.393 183.393C593.808 183.979 593.808 184.929 594.393 185.515L602.879 194L594.393 202.485C593.808 203.071 593.808 204.021 594.393 204.607C594.979 205.192 595.929 205.192 596.515 204.607L606.061 195.061ZM529 195.5H605V192.5H529V195.5Z" fill="black"/>
<path d="M1201.06 195.061C1201.65 194.475 1201.65 193.525 1201.06 192.939L1191.51 183.393C1190.93 182.808 1189.98 182.808 1189.39 183.393C1188.81 183.979 1188.81 184.929 1189.39 185.515L1197.88 194L1189.39 202.485C1188.81 203.071 1188.81 204.021 1189.39 204.607C1189.98 205.192 1190.93 205.192 1191.51 204.607L1201.06 195.061ZM1124 195.5H1200V192.5H1124V195.5Z" fill="black"/>
</svg>
